<?xml version="1.0" standalone="no"?>
<!DOCTYPE svg PUBLIC "-//W3C//DTD SVG 1.1//EN" "http://www.w3.org/Graphics/SVG/1.1/DTD/svg11.dtd" >
<svg>
<metadata>
Created by FontForge 20090914 at Tue Oct 19 21:54:08 2021
 By www-data
Copyright 2012 The Arsenal Project Authors (andrij.design@gmail.com)
</metadata>
<defs>
<font id="Arsenal-Italic" horiz-adv-x="515" >
  <font-face 
    font-family="Arsenal"
    font-weight="400"
    font-style="italic"
    font-stretch="normal"
    units-per-em="1000"
    panose-1="0 0 5 0 0 0 0 0 0 0"
    ascent="800"
    descent="-200"
    x-height="499.999"
    cap-height="650"
    bbox="-431 -383.001 1212 1005"
    underline-thickness="50"
    underline-position="0"
    slope="-9.10001"
    unicode-range="U+000D-U+FB02"
  />
<missing-glyph horiz-adv-x="537" 
d="M289 436h-85l-11 -97h-56l18 147h140zM455 486h140l-18 -147h-55l11 97h-84zM162 90h84l-6 -51h-140l19 147h55zM406 90h86l12 96h55l-19 -147h-140z" />
    <glyph glyph-name="fi" unicode="fi" horiz-adv-x="524" 
d="M441 736c21.333 -15.333 38.333 -32.9961 51 -52.9961c5.33301 2.66699 11.666 4 18.999 4c12 0 21.333 -3.33301 28 -10c5.33301 -6 8 -14.667 8 -26c0 -14.667 -5.66699 -27.667 -17 -39c-10.667 -7.33301 -21.334 -11 -32.001 -11c-12 0 -21 3.66699 -27 11
s-9 16 -9 26c0 7.33301 1.66699 15 5 23c-24.667 34.667 -56.667 52 -96 52c-26.667 0 -48 -4.5 -64 -13.5s-28.833 -24.333 -38.5 -46s-17.167 -51.834 -22.5 -90.501l-9 -63h145l-7 -49h-145l-69 -492c-20.667 -146 -78 -219 -172 -219c-16 0 -29.167 1.66699 -39.5 5
s-18 6.66602 -23 9.99902s-7.83301 5.66602 -8.5 6.99902l21 41c0.666992 -0.666992 2.83398 -2.33398 6.50098 -5.00098s9 -5.16699 16 -7.5s15.167 -3.5 24.5 -3.5c26 0 47.333 13.333 64 40s29.334 70.667 38.001 132l69 492h-51l6 42l52 6l10 72
c9.33301 64.667 28.333 112.167 57 142.5s72.334 45.5 131.001 45.5c31.333 0 57.666 -7.66699 78.999 -23zM449 0.00390625h-72l70 500h72z" />
    <glyph glyph-name="fl" unicode="fl" horiz-adv-x="521" 
d="M374 0l93.998 675.003c-46.667 26 -88 39 -124 39c-28 0 -49.333 -11 -64 -33s-26 -61.333 -34 -118l-9 -63h144l-7 -49h-144l-69 -492c-20.667 -146 -78 -219 -172 -219c-16 0 -29.167 1.66699 -39.5 5s-18 6.66602 -23 9.99902s-7.83301 5.66602 -8.5 6.99902l21 41
c0.666992 -0.666992 2.83398 -2.33398 6.50098 -5.00098s9 -5.16699 16 -7.5s15.167 -3.5 24.5 -3.5c26 0 47.333 13.333 64 40s29.334 70.667 38.001 132l69 492h-52l6 42l53 6l10 72c18 125.333 70.333 188 157 188c44 0 92 -13.333 144 -40l4 29l73 4l-105 -752h-73z" />
    <glyph glyph-name="f_f" unicode="ff" horiz-adv-x="586" 
d="M229 451l-68.0088 -491.994c-20.667 -146 -78 -219 -172 -219c-16 0 -29.167 1.66699 -39.5 5s-18 6.66602 -23 9.99902s-7.83301 5.66602 -8.5 6.99902l21 41c0.666992 -0.666992 2.83398 -2.33398 6.50098 -5.00098s9 -5.16699 16 -7.5s15.167 -3.5 24.5 -3.5
c26 0 47.333 13.333 64 40s29.334 70.667 38.001 132l69 492h-52l6 42l53 6l10 72c9.33301 65.333 28 113 56 143s72.667 45 134 45c36.667 0 83.334 -12.667 140.001 -38c24 25.333 57.667 38 101 38c16 0 30.667 -2.16699 44 -6.5s24 -8.83301 32 -13.5s13 -7.66699 15 -9
l-16 -39c-1.33301 1.33301 -5.16602 3.83301 -11.499 7.5s-14.666 7.16699 -24.999 10.5s-21.166 5 -32.499 5c-17.333 0 -31.666 -4.33301 -42.999 -13s-21 -24 -29 -46s-14.667 -52.667 -20 -92l-9 -63h144l-7 -49h-144l-69 -492c-20.667 -146 -78 -219 -172 -219
c-16 0 -29.167 1.66699 -39.5 5s-18 6.66602 -23 9.99902s-7.83301 5.66602 -8.5 6.99902l21 41c0.666992 -0.666992 2.83398 -2.33398 6.50098 -5.00098s9 -5.16699 16 -7.5s15.167 -3.5 24.5 -3.5c26 0 47.333 13.333 64 40s29.334 70.667 38.001 132l69 492h-201z
M436.991 500.006l9.99902 71c7.33301 50 18.333 88.667 33 116c-44 18 -79.667 27 -107 27c-29.333 0 -52.166 -4.66699 -68.499 -14s-29 -24.5 -38 -45.5s-16.167 -51.5 -21.5 -91.5l-9 -63h201z" />
    <glyph glyph-name=".notdef" horiz-adv-x="537" 
d="M289 436h-85l-11 -97h-56l18 147h140zM455 486h140l-18 -147h-55l11 97h-84zM162 90h84l-6 -51h-140l19 147h55zM406 90h86l12 96h55l-19 -147h-140z" />
    <glyph glyph-name="NULL" horiz-adv-x="0" 
 />
    <glyph glyph-name="NULL" horiz-adv-x="0" 
 />
    <glyph glyph-name="nonmarkingreturn" unicode="&#xd;" horiz-adv-x="233" 
 />
    <glyph glyph-name="space" unicode=" " horiz-adv-x="233" 
 />
    <glyph glyph-name="exclam" unicode="!" horiz-adv-x="276" 
d="M274 667l-83 -455h-44l46 455l11 83h81zM150 83c12.667 0 23 -4 31 -12c6 -6.66699 9 -15.667 9 -27c0 -16 -6 -29.667 -18 -41c-10.667 -8 -22 -12 -34 -12c-12.667 0 -22.667 4 -30 12c-6.66699 8 -10 17 -10 27c0 16 6.33301 29.667 19 41c10 8 21 12 33 12z" />
    <glyph glyph-name="quotedbl" unicode="&#x22;" horiz-adv-x="299" 
d="M152 518h-41l28 232l67 -2zM293 518h-41l28 232l67 -2z" />
    <glyph glyph-name="numbersign" unicode="#" horiz-adv-x="480" 
d="M410 431h82l-7 -42h-89l-46 -130h117l-6 -41h-125l-48 -138l-33 10l44 128h-104l-44 -127l-32 10l41 117h-80l6 41h88l45 130h-115l6 42h124l48 137l32 -10l-45 -127h105l44 126l33 -10zM209 259h105l45 130h-104z" />
    <glyph glyph-name="dollar" unicode="$" horiz-adv-x="408" 
d="M99.5 144c9 -10.667 22.001 -20.6641 39.001 -29.9971s37.833 -14 62.5 -14c41.333 0 72.833 10.667 94.5 32s32.5 46.666 32.5 75.999c0 16.667 -4.33301 30.5 -13 41.5s-19.167 19.667 -31.5 26s-29.5 14.166 -51.5 23.499c-24.667 10 -44.834 19.333 -60.501 28
s-28.834 20.667 -39.501 36s-16 35 -16 59c0 40 13.5 73.333 40.5 100s62.167 43.667 105.5 51l22 127h42l-11 -125c20 -1.33301 38.333 -5 55 -11s29.834 -12.167 39.501 -18.5s15.834 -10.5 18.501 -12.5l-13 -43c-2.66699 2 -9.16699 6.5 -19.5 13.5
s-23.666 13.833 -39.999 20.5s-33.5 10 -51.5 10c-34.667 0 -62.667 -8.83301 -84 -26.5s-32 -39.834 -32 -66.501c0 -24 8.16699 -42.167 24.5 -54.5s41.166 -25.166 74.499 -38.499c26.667 -11.333 47.667 -21.333 63 -30s28.5 -20.667 39.5 -36s16.5 -35 16.5 -59
c0 -42.667 -14 -79.334 -42 -110.001s-68.667 -49 -122 -55l-19 -108h-42l8 106c-30.667 2 -55.834 8.33301 -75.501 19s-34.167 21.667 -43.5 33s-14 18 -14 20l30 35c0 -2 4.5 -8.33301 13.5 -19z" />
    <glyph glyph-name="percent" unicode="%" horiz-adv-x="802" 
d="M409 393c-15.333 -33.333 -37.166 -59.5 -65.499 -78.5s-61.166 -28.5 -98.499 -28.5c-43.333 0 -76.5 13.667 -99.5 41s-34.5 64.666 -34.5 111.999c0 43.333 7.66699 82 23 116s37.166 60.5 65.499 79.5s61.166 28.5 98.499 28.5c41.333 0 74 -14.167 98 -42.5
s36 -66.166 36 -113.499c0 -42.667 -7.66699 -80.667 -23 -114zM279 2l-42 10l371 629l41 -10zM352 593c-14 18.667 -34 28 -60 28c-36.667 0 -66.167 -15.833 -88.5 -47.5s-33.5 -78.167 -33.5 -139.5c0 -33.333 6.83301 -59.333 20.5 -78s33.5 -28 59.5 -28
c36 0 65.5 16.167 88.5 48.5s34.5 78.5 34.5 138.5c0 33.333 -7 59.333 -21 78zM760 93c-15.333 -33.333 -37.166 -59.5 -65.499 -78.5s-61.166 -28.5 -98.499 -28.5c-43.333 0 -76.5 13.667 -99.5 41s-34.5 64.666 -34.5 111.999c0 43.333 7.66699 82 23 116
s37.166 60.5 65.499 79.5s61.166 28.5 98.499 28.5c41.333 0 74 -14.167 98 -42.5s36 -66.166 36 -113.499c0 -42.667 -7.66699 -80.667 -23 -114zM703 293c-14 18.667 -34 28 -60 28c-36.667 0 -66.167 -15.833 -88.5 -47.5s-33.5 -78.167 -33.5 -139.5
c0 -33.333 6.83301 -59.333 20.5 -78s33.5 -28 59.5 -28c36 0 65.5 16.167 88.5 48.5s34.5 78.5 34.5 138.5c0 33.333 -7 59.333 -21 78z" />
    <glyph glyph-name="ampersand" unicode="&#x26;" horiz-adv-x="603" 
d="M485 313l-23.998 -175c-2.66699 -22.667 -4 -37 -4 -43c0 -22.667 4.33301 -38.167 13 -46.5s22.334 -12.5 41.001 -12.5c12 0 23.167 1 33.5 3s18.666 4 24.999 6s10.166 3.33301 11.499 4l-4 -40c-1.33301 -1.33301 -5.66602 -3.5 -12.999 -6.5s-18 -5.83301 -32 -8.5
s-30.667 -4 -50 -4c-24.667 0 -44.5 4.5 -59.5 13.5s-25.167 23.5 -30.5 43.5c-34 -38 -81.333 -57 -142 -57s-106 14.333 -136 43s-45 66.334 -45 113.001c0 50.667 15 92 45 124s66.333 54.333 109 67c-22 11.333 -40 27.833 -54 49.5s-21 48.167 -21 79.5
c0 37.333 8.33301 70.666 25 99.999s40.167 52.166 70.5 68.499s65.833 24.5 106.5 24.5c20.667 0 40 -2.33301 58 -7s32.5 -9.5 43.5 -14.5s17.833 -8.16699 20.5 -9.5l-14 -43c-2 1.33301 -7.33301 4.33301 -16 9s-20.334 9.16699 -35.001 13.5s-30.334 6.5 -47.001 6.5
c-44 0 -78.5 -14.167 -103.5 -42.5s-37.5 -66.166 -37.5 -113.499c0 -32 8.5 -57 25.5 -75s36.167 -27 57.5 -27h123l53 144h34l-21 -144h129l-6 -43h-129zM288.002 313c-22.667 -0.666992 -44.999 -7.33203 -66.999 -19.999s-40 -31.334 -54 -56.001s-21 -53.667 -21 -87
c0 -34 10.167 -61.5 30.5 -82.5s50.5 -31.5 90.5 -31.5c32 0 57.667 6.66699 77 20s34 28.333 44 45c1.33301 15.333 2.66602 26.333 3.99902 33l24 179h-128z" />
    <glyph glyph-name="quotesingle" unicode="'" horiz-adv-x="158" 
d="M152 518h-41l28 232l67 -2z" />
    <glyph glyph-name="parenleft" unicode="(" horiz-adv-x="307" 
d="M326.5 654c-25.667 -39.333 -51.333 -91.334 -77 -156.001s-44.5 -140 -56.5 -226c-7.33301 -55.333 -11 -103.666 -11 -144.999c0 -57.333 4.66699 -107.166 14 -149.499s19.666 -76.333 30.999 -102s17 -36.834 17 -33.501l-40 -21c0 -4 -8.33301 8.5 -25 37.5
s-31.667 67.5 -45 115.5s-20 104.667 -20 170c0 46 3 88.667 9 128c12.667 91.333 34.334 170.833 65.001 238.5s62 122 94 163s48 59.167 48 54.5l35 -21c0 4 -12.833 -13.667 -38.5 -53z" />
    <glyph glyph-name="parenright" unicode=")" horiz-adv-x="307" 
d="M56.5 -104.5c25.667 39.667 51.333 91.834 77 156.501s44.5 139.667 56.5 225c6.66699 49.333 10 96.666 10 141.999c0 57.333 -4.5 107.333 -13.5 150s-19.167 77.167 -30.5 103.5s-17 37.833 -17 34.5l40 21c0 4 8.33301 -8.5 25 -37.5s31.667 -67.5 45 -115.5
s20 -104.667 20 -170c0 -46 -3 -88.667 -9 -128c-12.667 -91.333 -34.5 -170.833 -65.5 -238.5s-62.5 -122 -94.5 -163s-48 -59.167 -48 -54.5l-34 21c0 -4 12.833 13.833 38.5 53.5z" />
    <glyph glyph-name="asterisk" unicode="*" horiz-adv-x="393" 
d="M255 518l7 186h67l-48 -186l156 79l10 -70l-161 -35l91 -138l-61 -44l-53 161l-99 -161l-48 44l129 136l-152 37l31 70z" />
    <glyph glyph-name="plus" unicode="+" horiz-adv-x="408" 
d="M269 301h147l-7 -47h-146l-24 -174h-45l24 174h-148l7 47h147l25 174h45z" />
    <glyph glyph-name="comma" unicode="," horiz-adv-x="226" 
d="M124 98c10.667 0 19.334 -3.33398 26.001 -10.001l4 -6c4 -8 6 -18 6 -30c0 -20 -5.33301 -43.833 -16 -71.5s-25 -54.5 -43 -80.5s-37.333 -47 -58 -63l-18 23c24 19.333 44.5 44.333 61.5 75s26.5 58.334 28.5 83.001c-12.667 0 -22.334 3.33301 -29.001 10
c-5.33301 6.66699 -8 14.667 -8 24c0 14 5.66699 26 17 36c7.33301 6.66699 17 10 29 10z" />
    <glyph glyph-name="hyphen" unicode="-" horiz-adv-x="297" 
d="M299 254h-229l7 47h228z" />
    <glyph glyph-name="period" unicode="." horiz-adv-x="243" 
d="M131 83c12.667 0 23 -4 31 -12c6 -6.66699 9 -15.667 9 -27c0 -16 -6 -29.667 -18 -41c-10.667 -8 -22 -12 -34 -12c-12.667 0 -22.667 4 -30 12c-6.66699 8 -10 17 -10 27c0 16 6.33301 29.667 19 41c10 8 21 12 33 12z" />
    <glyph glyph-name="slash" unicode="/" horiz-adv-x="417" 
d="M537 750l-515 -1000h-56l516 1000h55z" />
    <glyph glyph-name="zero" unicode="0" horiz-adv-x="562" 
d="M516 590c28.667 -46 43 -102.333 43 -169c0 -86.667 -12.167 -162.5 -36.5 -227.5s-57.5 -115.167 -99.5 -150.5s-88.333 -53 -139 -53c-62.667 0 -110 21.833 -142 65.5s-48 105.5 -48 185.5c0 124.667 23 225.5 69 302.5s114.667 115.5 206 115.5
c69.333 0 118.333 -23 147 -69zM222 515c-34.667 -65.333 -52.002 -162.998 -52.002 -292.998c0 -60.667 10.333 -106.834 31 -138.501s50.334 -47.5 89.001 -47.5c33.333 0 64.833 15.167 94.5 45.5s53.5 75.166 71.5 134.499s27 130.333 27 213
c0 54.667 -9.16699 99 -27.5 133s-49.166 51 -92.499 51c-59.333 0 -106.333 -32.667 -141 -98z" />
    <glyph glyph-name="one" unicode="1" horiz-adv-x="369" 
d="M350 650l-91 -650h-72l82 592l-128 -67l-11 39l161 86h59z" />
    <glyph glyph-name="two" unicode="2" horiz-adv-x="475" 
d="M43 0l7.99902 60.001c17.333 6 55.5 34.167 114.5 84.5s112.833 108.333 161.5 174s73 128.167 73 187.5c0 34.667 -9.16699 60.667 -27.5 78s-46.833 26 -85.5 26c-22 0 -43.833 -4 -65.5 -12s-40.5 -17 -56.5 -27s-24 -15.333 -24 -16l-1 47
c0 0.666992 8.5 6.16699 25.5 16.5s37.667 19.666 62 27.999s49.833 12.5 76.5 12.5c58.667 0 102.834 -13.333 132.501 -40s44.5 -62.667 44.5 -108c0 -78 -36.5 -156.333 -109.5 -235s-153.167 -148 -240.5 -208h307l-9 -68h-386z" />
    <glyph glyph-name="three" unicode="3" horiz-adv-x="475" 
d="M412 581l-262.002 -0.00195312l14 69h328l-7 -47l-213 -235c8 2 17.333 3 28 3c47.333 0 85 -14.167 113 -42.5s42 -66.166 42 -113.499c0 -45.333 -10.167 -85 -30.5 -119s-48.166 -60.167 -83.499 -78.5s-75.333 -27.5 -120 -27.5c-37.333 0 -68.666 5.5 -93.999 16.5
s-44.5 23 -57.5 36s-19.5 20.5 -19.5 22.5l30 39c0 -1.33301 6 -7.83301 18 -19.5s28.333 -22.334 49 -32.001s44.667 -14.5 72 -14.5c53.333 0 93.5 16.5 120.5 49.5s40.5 77.833 40.5 134.5c0 32.667 -8.83301 58.5 -26.5 77.5s-43.167 28.5 -76.5 28.5
c-10.667 0 -20.5 -1.66699 -29.5 -5s-16.333 -6.66602 -22 -9.99902s-9.16699 -5.66602 -10.5 -6.99902l-22 30z" />
    <glyph glyph-name="four" unicode="4" horiz-adv-x="492" 
d="M243.5 421.5c-42.333 -76.333 -85.165 -147.169 -128.498 -212.502h229l65 346h57l-48 -346h71l-6 -40l-71 -5l-23 -164h-74l23 164h-281l1 38c35.333 54.667 74.166 124.334 116.499 209.001s79.166 167.334 110.499 248.001l68 -9
c-30.667 -76 -67.167 -152.167 -109.5 -228.5z" />
    <glyph glyph-name="five" unicode="5" horiz-adv-x="465" 
d="M239 580l-46.002 -195.001c24.667 8.66699 49.334 13 74.001 13c56.667 0 101.667 -14.667 135 -44s50 -69.666 50 -120.999c0 -48.667 -11.5 -91.5 -34.5 -128.5s-53.667 -65.333 -92 -85s-80.5 -29.5 -126.5 -29.5c-35.333 0 -65.166 5.5 -89.499 16.5
s-43 22.833 -56 35.5s-19.5 20 -19.5 22l31 37c0 -2 5.5 -8.33301 16.5 -19s26.333 -20.667 46 -30s43.5 -14 71.5 -14c53.333 0 96 18 128 54s48 82.333 48 139c0 38 -10.667 68.333 -32 91s-50.666 34 -87.999 34c-20.667 0 -39.334 -3.16699 -56.001 -9.5
s-27.667 -12.5 -33 -18.5l-2 -3l-29 4l75 321h272l-14 -70h-229z" />
    <glyph glyph-name="six" unicode="6" horiz-adv-x="517" 
d="M455 591.5c-10 5 -22.8311 9.83105 -38.498 14.498s-32.167 7 -49.5 7c-98.667 0 -163.667 -89 -195 -267c49.333 42.667 102 64 158 64c54 0 96 -14.833 126 -44.5s45 -70.167 45 -121.5c0 -16 -0.666992 -28 -2 -36c-6 -40.667 -19 -77.5 -39 -110.5
s-46.5 -59.167 -79.5 -78.5s-71.167 -29 -114.5 -29c-58.667 0 -103.334 17.833 -134.001 53.5s-46 86.834 -46 153.501c0 40.667 4.66699 82.667 14 126c22.667 112.667 57.167 196.834 103.5 252.501s100.833 83.5 163.5 83.5c20.667 0 40.167 -2.5 58.5 -7.5
s33.166 -10.167 44.499 -15.5s18.333 -9 21 -11l-17 -44c-2.66699 2 -9 5.5 -19 10.5zM233.002 345.998c-24 -15.333 -43.666 -32.332 -58.999 -50.999c-2 -6.66699 -4.33301 -18.834 -7 -36.501s-4.33398 -36.167 -5.00098 -55.5c-0.666992 -6 -1 -14.667 -1 -26
c0 -46.667 9.33301 -82.167 28 -106.5s46.667 -36.5 84 -36.5c43.333 0 77 15.833 101 47.5s40 73.167 48 124.5c2 14 3 27 3 39c0 38 -9 68.167 -27 90.5s-45.333 33.5 -82 33.5c-31.333 0 -59 -7.66699 -83 -23z" />
    <glyph glyph-name="seven" unicode="7" horiz-adv-x="421" 
d="M318 301c-56 -109.333 -99.333 -209.668 -130 -301.001h-79c30.667 86 73.5 177.833 128.5 275.5s116.167 198.5 183.5 302.5h-299l10 72h361l-8 -60c-55.333 -83.333 -111 -179.666 -167 -288.999z" />
    <glyph glyph-name="eight" unicode="8" horiz-adv-x="502" 
d="M469.5 394.5c-29 -29 -63.833 -49.8311 -104.5 -62.498c31.333 -9.33301 58.333 -24.833 81 -46.5s34 -52.834 34 -93.501c0 -67.333 -20.5 -117.833 -61.5 -151.5s-97.167 -50.5 -168.5 -50.5c-56.667 0 -101 12.167 -133 36.5s-48 61.833 -48 112.5
c0 54 15.5 96.333 46.5 127s68.5 53 112.5 67c-28 9.33301 -51.667 24.666 -71 45.999s-29 51 -29 89c0 58.667 19.667 105.167 59 139.5s91.333 51.5 156 51.5c52 0 93.333 -12.5 124 -37.5s46 -60.167 46 -105.5c0 -52 -14.5 -92.5 -43.5 -121.5zM230 382.502
c17.333 -17 37.334 -28.168 60.001 -33.501c30.667 3.33301 62.667 17 96 41s50 67 50 129c0 32.667 -8.33301 57.334 -25 74.001s-41.334 25 -74.001 25c-42 0 -74.667 -14 -98 -42s-35 -66 -35 -114c0 -36 8.66699 -62.5 26 -79.5zM370.001 279.001
c-20 18 -42.668 29.666 -68.001 34.999c-31.333 -4 -64.666 -18.333 -99.999 -43s-53 -68.667 -53 -132c0 -36 9.33301 -63 28 -81s45 -27 79 -27c44 0 79 14.333 105 43s39 69.334 39 122.001c0 37.333 -10 65 -30 83z" />
    <glyph glyph-name="nine" unicode="9" horiz-adv-x="517" 
d="M151.5 68c9.66699 -8 22.833 -15.333 39.5 -22s36 -10 58 -10c45.333 0 84.166 22 116.499 66s55.833 108.667 70.5 194c-17.333 -18.667 -38.833 -34.834 -64.5 -48.501s-56.167 -20.5 -91.5 -20.5c-54 0 -96.5 15.5 -127.5 46.5s-46.5 72.5 -46.5 124.5
c0 44.667 9.5 87 28.5 127s46.667 72.333 83 97s78.5 37 126.5 37c57.333 0 101.333 -17.667 132 -53s46 -85.666 46 -150.999c0 -24 -1.16699 -48.5 -3.5 -73.5s-4.5 -42.167 -6.5 -51.5c-21.333 -112.667 -54.166 -197.5 -98.499 -254.5s-98.5 -85.5 -162.5 -85.5
c-28.667 0 -53.167 3.83301 -73.5 11.5s-35.833 16 -46.5 25s-16 14.167 -16 15.5l22 40c0 -1.33301 4.83301 -6 14.5 -14zM383.499 296.5c26.333 19 44.168 38.5 53.501 58.5c5.33301 30.667 8.66602 65.667 9.99902 105v16c0 46.667 -8.66699 81.5 -26 104.5
s-44.333 34.5 -81 34.5c-32.667 0 -61 -10.333 -85 -31s-42.333 -47.667 -55 -81s-19 -69 -19 -107c0 -36.667 9.16699 -67.167 27.5 -91.5s45.5 -36.5 81.5 -36.5s67.167 9.5 93.5 28.5z" />
    <glyph glyph-name="colon" unicode=":" horiz-adv-x="245" 
d="M184 462c12.667 0 23 -4 31 -12c6 -6.66699 9 -15.667 9 -27c0 -16 -6 -29.667 -18 -41c-10.667 -8 -22 -12 -34 -12c-13.333 0 -23.333 4 -30 12s-10 17 -10 27c0 16 6.33301 29.667 19 41c10 8 21 12 33 12zM131 83c12.667 0 23 -4 31 -12c6 -6.66699 9 -15.667 9 -27
c0 -16 -6 -29.667 -18 -41c-10.667 -8 -22 -12 -34 -12c-12.667 0 -22.667 4 -30 12c-6.66699 8 -10 17 -10 27c0 16 6.33301 29.667 19 41c10 8 21 12 33 12z" />
    <glyph glyph-name="semicolon" unicode=";" horiz-adv-x="243" 
d="M184 462c12.667 0 23 -4 31 -12c6 -6.66699 9 -15.667 9 -27c0 -16 -6 -29.667 -18 -41c-10.667 -8 -22 -12 -34 -12c-13.333 0 -23.333 4 -30 12s-10 17 -10 27c0 16 6.33301 29.667 19 41c10 8 21 12 33 12zM134 98c10.667 0 19.334 -3.33398 26.001 -10.001l4 -6
c4 -8 6 -18 6 -30c0 -20 -5.33301 -43.833 -16 -71.5s-25 -54.5 -43 -80.5s-37.333 -47 -58 -63l-18 23c24 19.333 44.5 44.333 61.5 75s26.5 58.334 28.5 83.001c-12.667 0 -22.334 3.33301 -29.001 10c-5.33301 6.66699 -8 14.667 -8 24c0 14 5.66699 26 17 36
c7.33301 6.66699 17 10 29 10z" />
    <glyph glyph-name="less" unicode="&#x3c;" horiz-adv-x="368" 
d="M318 118l-213 200l269 199l20 -29l-219 -171l173 -170z" />
    <glyph glyph-name="equal" unicode="=" horiz-adv-x="470" 
d="M485 349h-401l7 47h401zM458 159h-401l7 47h401z" />
    <glyph glyph-name="greater" unicode="&#x3e;" horiz-adv-x="368" 
d="M140 517l212 -199l-268 -200l-21 29l218 171l-170 170z" />
    <glyph glyph-name="question" unicode="?" horiz-adv-x="411" 
d="M157 722.5c14 9 32.502 17.3291 55.502 24.9961s48.833 11.5 77.5 11.5c51.333 0 90 -14.5 116 -43.5s39 -64.5 39 -106.5c0 -36 -5.16699 -65.5 -15.5 -88.5s-23.333 -41.333 -39 -55s-36.834 -29.167 -63.501 -46.5c-27.333 -17.333 -49.5 -33.5 -66.5 -48.5
s-32.333 -35.5 -46 -61.5s-22.5 -59 -26.5 -99l-36 -3c4 44.667 12.167 81.334 24.5 110.001s26.333 51 42 67s35.5 33 59.5 51c21.333 15.333 38.166 29.333 50.499 42s22.5 29.334 30.5 50.001s12 47 12 79s-8.66699 57.833 -26 77.5s-43 29.5 -77 29.5
c-23.333 0 -44.5 -3.66699 -63.5 -11s-34.333 -15.166 -46 -23.499s-17.5 -13.166 -17.5 -14.499l-5 43c0 1.33301 7 6.5 21 15.5zM157.002 82.9961c12.667 0 23 -4 31 -12c6 -6.66699 9 -15.667 9 -27c0 -16 -6 -29.667 -18 -41c-10.667 -8 -22 -12 -34 -12
c-12.667 0 -22.667 4 -30 12c-6.66699 8 -10 17 -10 27c0 16 6.33301 29.667 19 41c10 8 21 12 33 12z" />
    <glyph glyph-name="at" unicode="@" horiz-adv-x="831" 
d="M548 -1c-13.333 8 -21.001 21.6689 -23.001 41.002c-12 -14.667 -27.667 -27.334 -47 -38.001s-42.666 -16 -69.999 -16c-43.333 0 -77.5 13.5 -102.5 40.5s-37.5 67.167 -37.5 120.5c0 49.333 9 93.833 27 133.5s43 70.834 75 93.501s68 34 108 34
c40.667 0 72.334 -13.333 95.001 -40l17 26h32l-42 -304c-1.33301 -12 -2 -19.667 -2 -23c0 -16 3.33301 -27.333 10 -34s16.334 -10 29.001 -10c22.667 0 45.5 10.333 68.5 31s42.5 55.167 58.5 103.5s24 111.166 24 188.499c0 80.667 -20 142 -60 184s-99.667 63 -179 63
s-148.166 -18.833 -206.499 -56.5s-103.333 -92.5 -135 -164.5s-47.5 -158.333 -47.5 -259c0 -98 23.5 -172.167 70.5 -222.5s112.833 -75.5 197.5 -75.5c47.333 0 88.666 7.16699 123.999 21.5s63.5 29.666 84.5 45.999s31.5 25.833 31.5 28.5l14 -36
c0 -2.66699 -10.833 -13 -32.5 -31s-51.834 -34.833 -90.501 -50.5s-84.667 -23.5 -138 -23.5c-106 0 -186.833 29.167 -242.5 87.5s-83.5 141.5 -83.5 249.5c0 104.667 18 196.667 54 276s88.5 141 157.5 185s151.833 66 248.5 66c94.667 0 167 -25 217 -75
s75 -120.667 75 -212c0 -79.333 -10.333 -146 -31 -200s-47.834 -94.167 -81.501 -120.5s-69.834 -39.5 -108.501 -39.5c-25.333 0 -44.666 4 -57.999 12zM490.499 44.002c16.333 14 29.167 29.665 38.5 46.998l32 230c-4 12.667 -12 24.334 -24 35.001s-31 16 -57 16
c-46 0 -82.667 -20.667 -110 -62s-41 -96.666 -41 -165.999c0 -40 8.5 -70.167 25.5 -90.5s41.167 -30.5 72.5 -30.5c26 0 47.167 7 63.5 21z" />
    <glyph glyph-name="A" unicode="A" horiz-adv-x="568" 
d="M422 650l124 -650h-79l-40 200h-255l-96 -200h-53l310 650h89zM191 241h228l-63 351z" />
    <glyph glyph-name="B" unicode="B" horiz-adv-x="542" 
d="M349 650c60 0 105.666 -12.667 136.999 -38s47 -59.333 47 -102c0 -41.333 -11.167 -76 -33.5 -104s-49.833 -49.667 -82.5 -65c32.667 -9.33301 58.334 -25.333 77.001 -48s28 -51 28 -85c0 -64 -22 -114.667 -66 -152s-109.667 -56 -197 -56h-165l91 650h164z
M389.499 371.5c19 10.333 35.5 26.5 49.5 48.5s21 50 21 84s-10.667 59.5 -32 76.5s-50.333 25.5 -87 25.5h-87l-35 -250h119c15.333 0 32.5 5.16699 51.5 15.5zM174.999 44h88c60.667 0 106.5 14.5 137.5 43.5s46.5 70.167 46.5 123.5c0 34 -10 59.833 -30 77.5
s-47 26.5 -81 26.5h-123z" />
    <glyph glyph-name="C" unicode="C" horiz-adv-x="570" 
d="M561 570.5c-18 9.66699 -39.335 18.498 -64.002 26.498s-50 12 -76 12c-47.333 0 -90.166 -13.5 -128.499 -40.5s-68.833 -67 -91.5 -120s-34 -117.167 -34 -192.5c0 -69.333 17.167 -122.666 51.5 -159.999s80.5 -56 138.5 -56c35.333 0 66.833 7.16699 94.5 21.5
s49.667 30 66 47s24.5 26.5 24.5 28.5l23 -32c0 -3.33301 -9.33301 -14.833 -28 -34.5s-44.667 -38 -78 -55s-72.666 -25.5 -117.999 -25.5c-78.667 0 -140.667 23.833 -186 71.5s-68 113.167 -68 196.5c0 78 14.167 147.333 42.5 208s67.833 108 118.5 142s108 51 172 51
c30.667 0 59.5 -4.16699 86.5 -12.5s49.667 -17.5 68 -27.5s27.5 -15.667 27.5 -17l-14 -47c0 0.666992 -9 5.83398 -27 15.501z" />
    <glyph glyph-name="D" unicode="D" horiz-adv-x="634" 
d="M383 650c81.333 0 144 -22.666 188 -67.999s66 -111 66 -197c0 -80 -13.667 -148.833 -41 -206.5s-66.833 -101.834 -118.5 -132.501s-113.5 -46 -185.5 -46h-198l91 650h198zM176 48.001l124.001 -0.000976562c79.333 0 142 28.833 188 86.5s69 143.834 69 258.501
c0 68.667 -15.333 120.667 -46 156s-75.334 53 -134.001 53h-123z" />
    <glyph glyph-name="E" unicode="E" horiz-adv-x="507" 
d="M466 0h-372l91 650h350l-6 -48h-275l-35 -250h252l-7 -46h-251l-36 -258h296z" />
    <glyph glyph-name="F" unicode="F" horiz-adv-x="464" 
d="M453 297h-241l-42 -297h-76l91 650h357l-6 -48h-281l-37 -259h242z" />
    <glyph glyph-name="G" unicode="G" horiz-adv-x="620" 
d="M506 0l-9.00195 70.998c-46 -54 -107.333 -81 -184 -81c-72.667 0 -128.5 23.167 -167.5 69.5s-58.5 111.5 -58.5 195.5c0 81.333 13.833 152.5 41.5 213.5s67.334 108 119.001 141s112.834 49.5 183.501 49.5c30.667 0 59.667 -4.16699 87 -12.5s50.333 -17.5 69 -27.5
s28 -15.667 28 -17l-16 -47c0 0.666992 -9 5.83398 -27 15.501s-39.333 18.5 -64 26.5s-50 12 -76 12c-84.667 0 -150 -30.5 -196 -91.5s-69 -148.5 -69 -262.5c0 -70 14.333 -123.333 43 -160s69 -55 121 -55c50.667 0 89.167 12.333 115.5 37s43.833 48.334 52.5 71.001
l21 147h-133l7 43h196l-47 -338h-37z" />
    <glyph glyph-name="H" unicode="H" horiz-adv-x="638" 
d="M543 0h-76l43 312h-297l-43 -312h-76l91 650h76l-41 -292h297l41 292h76z" />
    <glyph glyph-name="I" unicode="I" horiz-adv-x="265" 
d="M170 0h-76l91 650h76z" />
    <glyph glyph-name="J" unicode="J" horiz-adv-x="362" 
d="M40.5 61.5c6.33301 -5.66699 15.333 -10.9971 27 -15.9971s25.834 -7.5 42.501 -7.5c28 0 52.333 10.833 73 32.5s35.334 61.834 44.001 120.501l64 459h76l-65 -459c-10.667 -74.667 -31.334 -126.834 -62.001 -156.501s-68.667 -44.5 -114 -44.5
c-24.667 0 -45.334 3.16699 -62.001 9.5s-29 13.166 -37 20.499s-12 11.666 -12 12.999l16 38c0 -0.666992 3.16699 -3.83398 9.5 -9.50098z" />
    <glyph glyph-name="K" unicode="K" horiz-adv-x="580" 
d="M185 650h76l-50 -354l89 70l259 284h61l-268 -290l208 -360h-95l-177 302l-85 -62l-33 -240h-76z" />
    <glyph glyph-name="L" unicode="L" horiz-adv-x="471" 
d="M459 0h-365l91 650h76l-85 -602h290z" />
    <glyph glyph-name="M" unicode="M" horiz-adv-x="835" 
d="M741 0h-74l75 557l-304 -557h-61l-148 557l-80 -557h-55l94 650h94l151 -557h1l307 557h88z" />
    <glyph glyph-name="N" unicode="N" horiz-adv-x="651" 
d="M557 0h-66l-268 554h-1l1 -31l-74 -523h-55l91 650h79l257 -536v24l72 512h55z" />
    <glyph glyph-name="O" unicode="O" horiz-adv-x="654" 
d="M612.5 180c-29.667 -61.333 -69.3311 -108.333 -118.998 -141s-104.167 -49 -163.5 -49c-76 0 -135.333 24 -178 72s-64 114 -64 198c0 78.667 13.167 148.167 39.5 208.5s64.166 107.166 113.499 140.499s107 50 173 50c81.333 0 142.166 -24.667 182.499 -74
s60.5 -112.666 60.5 -189.999c0 -82 -14.833 -153.667 -44.5 -215zM535.503 553c-27.667 38.667 -69.499 57.999 -125.499 57.999c-48.667 0 -91.334 -13.833 -128.001 -41.5s-65 -68.667 -85 -123s-30 -120.166 -30 -197.499c0 -66 14.667 -117.667 44 -155
s70.333 -56 123 -56c44 0 84.5 13.5 121.5 40.5s66.5 68 88.5 123s33 122.167 33 201.5c0 61.333 -13.833 111.333 -41.5 150z" />
    <glyph glyph-name="P" unicode="P" horiz-adv-x="496" 
d="M341 650c59.333 0 105.167 -14.167 137.5 -42.5s48.5 -70.5 48.5 -126.5c0 -59.333 -11.833 -107.833 -35.5 -145.5s-54 -65 -91 -82s-75.833 -25.5 -116.5 -25.5h-82l-32 -228h-76l91 650h156zM208.001 270h71c48.667 0 88.834 16.833 120.501 50.5
s47.5 87.5 47.5 161.5c0 41.333 -10.333 72.333 -31 93s-50.334 31 -89.001 31h-73z" />
    <glyph glyph-name="Q" unicode="Q" horiz-adv-x="654" 
d="M620 196.5c-24.667 -57.667 -58.166 -103.833 -100.499 -138.5s-89.833 -56 -142.5 -64c17.333 -32.667 37.333 -59.167 60 -79.5s47 -30.5 73 -30.5c12 0 24 2.33301 36 7l-1 -40c-17.333 -6.66699 -35.666 -10 -54.999 -10c-40 0 -77 13.833 -111 41.5
s-59.667 63.834 -77 108.501c-68 6 -120.667 32.5 -158 79.5s-56 110.167 -56 189.5c0 78.667 13.167 148.167 39.5 208.5s64.166 107.166 113.499 140.499s107 50 173 50c81.333 0 142.166 -24.667 182.499 -74s60.5 -112.666 60.5 -189.999
c0 -74.667 -12.333 -140.834 -37 -198.501zM535.501 553.001c-27.667 38.667 -69.499 57.999 -125.499 57.999c-48.667 0 -91.334 -13.833 -128.001 -41.5s-65 -68.667 -85 -123s-30 -120.166 -30 -197.499c0 -66 14.667 -117.667 44 -155s70.333 -56 123 -56
c44 0 84.5 13.5 121.5 40.5s66.5 68 88.5 123s33 122.167 33 201.5c0 61.333 -13.833 111.333 -41.5 150z" />
    <glyph glyph-name="R" unicode="R" horiz-adv-x="539" 
d="M342 650c59.333 0 105.333 -14.167 138 -42.5s49 -69.166 49 -122.499c0 -60.667 -14.167 -110.334 -42.5 -149.001s-64.5 -65.667 -108.5 -81l127 -255h-87l-116 241h-98l-34 -241h-76l91 650h157zM210 286l81 0.000976562c104.667 0 157 66.667 157 200
c0 39.333 -10.333 69.166 -31 89.499s-50.667 30.5 -90 30.5h-72z" />
    <glyph glyph-name="S" unicode="S" horiz-adv-x="490" 
d="M469 575c-12 9.33301 -27.665 18.0039 -46.998 26.0039s-41.666 12 -66.999 12c-42 0 -75.5 -11 -100.5 -33s-37.5 -52.333 -37.5 -91c0 -20.667 5.16699 -38.5 15.5 -53.5s23 -27.667 38 -38s35.833 -22.166 62.5 -35.499c30 -16 54.167 -30.333 72.5 -43
s33.833 -29.167 46.5 -49.5s19 -45.166 19 -74.499c0 -40 -9.83301 -75.5 -29.5 -106.5s-46.834 -55.167 -81.501 -72.5s-74 -26 -118 -26c-42.667 0 -77.834 6.66699 -105.501 20s-47.834 27.666 -60.501 42.999s-19 24.666 -19 27.999l30 39
c0 -2.66699 5.33301 -10.834 16 -24.501s27.334 -26.5 50.001 -38.5s51.334 -18 86.001 -18c48 0 85.5 13 112.5 39s40.5 58.333 40.5 97c0 20.667 -5.16699 38.5 -15.5 53.5s-23 27.667 -38 38s-35.833 22.166 -62.5 35.499c-29.333 15.333 -53 29.166 -71 41.499
s-33.333 28.5 -46 48.5s-19 44.333 -19 73c0 60 20 107.333 60 142s92.333 52 157 52c29.333 0 54.666 -4.16699 75.999 -12.5s38.166 -17.333 50.499 -27s18.5 -15.167 18.5 -16.5l-15 -44c0 1.33301 -6 6.66602 -18 15.999z" />
    <glyph glyph-name="T" unicode="T" horiz-adv-x="461" 
d="M539 602h-186l-85 -602h-76l85 602h-185l7 48h447z" />
    <glyph glyph-name="U" unicode="U" horiz-adv-x="620" 
d="M161.5 37.5c-33 31.667 -49.5 75.5 -49.5 131.5c0 14 1 28.333 3 43l62 438h75l-59 -421c-2 -16 -3 -31 -3 -45c0 -46.667 11.333 -82.167 34 -106.5s56 -36.5 100 -36.5c52.667 0 95 16.5 127 49.5s52 79.167 60 138.5l59 421h55l-62 -438
c-9.33301 -68 -35.333 -122 -78 -162s-101.667 -60 -177 -60c-64.667 0 -113.5 15.833 -146.5 47.5z" />
    <glyph glyph-name="V" unicode="V" horiz-adv-x="548" 
d="M227 0l-121 650h79l106 -594l275 594h56l-307 -650h-88z" />
    <glyph glyph-name="W" unicode="W" horiz-adv-x="848" 
d="M922 650l-266 -650h-70l-84 556l-238 -556h-70l-88 650h80l69 -563l238 563h67l83 -560l223 560h56z" />
    <glyph glyph-name="X" unicode="X" horiz-adv-x="541" 
d="M271 322l-154 328h92l122 -272h1l206 272h63l-243 -315l165 -335h-93l-131 279h-1l-213 -279h-67z" />
    <glyph glyph-name="Y" unicode="Y" horiz-adv-x="507" 
d="M178 650l134 -320l223 320h61l-266 -377l-37 -273h-76l37 269l-161 381h85z" />
    <glyph glyph-name="Z" unicode="Z" horiz-adv-x="527" 
d="M570 609l-431 -561h353l-7 -48h-445l6 40l430 562h-342l6 48h436z" />
    <glyph glyph-name="bracketleft" unicode="[" horiz-adv-x="334" 
d="M313 -76h-236l109 777h236l-6 -44h-172l-97 -688h172z" />
    <glyph glyph-name="backslash" unicode="\" horiz-adv-x="417" 
d="M146 750l234 -1000h-55l-234 1000h55z" />
    <glyph glyph-name="bracketright" unicode="]" horiz-adv-x="334" 
d="M236 -76h-236l7 45h170l97 688h-171l6 44h236z" />
    <glyph glyph-name="asciicircum" unicode="^" horiz-adv-x="336" 
d="M375 520l-28 -26l-92 129l-128 -129l-20 26l156 167z" />
    <glyph glyph-name="underscore" unicode="_" horiz-adv-x="624" 
d="M569 -146h-555l7 47h555z" />
    <glyph glyph-name="grave" unicode="`" horiz-adv-x="207" 
d="M154 724l63 -143l-42 -8l-85 135z" />
    <glyph glyph-name="a" unicode="a" 
d="M383 0l-4 58.0029c-10 -15.333 -26.5 -30.5 -49.5 -45.5s-54.167 -22.5 -93.5 -22.5c-52 0 -93.333 17.667 -124 53s-46 84.666 -46 147.999c0 59.333 10 113.166 30 161.499s49 86.666 87 114.999s83.333 42.5 136 42.5c36.667 0 64 -6.33301 82 -19s29.667 -24 35 -34
l17 43h58l-70 -500h-58zM337.5 62.0029c20.333 15.333 35.1689 30.002 44.502 44.002l44 303c-1.33301 4 -5.33301 10 -12 18s-17.167 15.833 -31.5 23.5s-32.5 11.5 -54.5 11.5c-60.667 0 -106.834 -24.833 -138.501 -74.5s-47.5 -116.834 -47.5 -201.501
c0 -48.667 10.333 -85.334 31 -110.001s49.667 -37 87 -37c31.333 0 57.166 7.66699 77.499 23z" />
    <glyph glyph-name="b" unicode="b" 
d="M252 752l-43.999 -311h2c0 2 5.66699 8.83301 17 20.5s27.5 22.667 48.5 33s46.5 15.5 76.5 15.5c51.333 0 92.166 -17.667 122.499 -53s45.5 -84.333 45.5 -147c0 -59.333 -9.66699 -113.333 -29 -162s-47.833 -87.167 -85.5 -115.5s-82.834 -42.5 -135.501 -42.5
c-34.667 0 -61.667 5.33301 -81 16s-33.666 21.667 -42.999 33l-19 -39h-53l105 748zM158.001 82c6 -9.33301 16.665 -19 31.998 -29s38 -15 68 -15c60.667 0 106.834 24.667 138.501 74s47.5 118 47.5 206c0 46.667 -10.333 82.167 -31 106.5s-50 36.5 -88 36.5
c-24.667 0 -46.167 -5.33301 -64.5 -16s-32.666 -22 -42.999 -34s-15.5 -19 -15.5 -21l-1 2z" />
    <glyph glyph-name="c" unicode="c" horiz-adv-x="423" 
d="M430 434.5c-12 7.66699 -26.668 14.833 -44.001 21.5s-35.666 10 -54.999 10c-124.667 0 -187 -93.667 -187 -281c0 -51.333 11.833 -89.333 35.5 -114s55.167 -37 94.5 -37c26 0 48 4.33301 66 13s32 18 42 28s15 15.667 15 17l29 -21
c0 -2.66699 -6.16699 -10.834 -18.5 -24.501s-30.666 -26.5 -54.999 -38.5s-54.5 -18 -90.5 -18c-60.667 0 -108.334 17.5 -143.001 52.5s-52 85.5 -52 151.5c0 97.333 22 174.333 66 231s108 85 192 85c24 0 46 -3.5 66 -10.5s36.667 -14.667 50 -23s20 -12.833 20 -13.5
l-13 -41c0 0.666992 -6 4.83398 -18 12.501z" />
    <glyph glyph-name="d" unicode="d" 
d="M379 0l0.00390625 57.999c-10.667 -15.333 -27.334 -30.5 -50.001 -45.5s-53.334 -22.5 -92.001 -22.5c-52.667 0 -94.334 18 -125.001 54s-46 85.667 -46 149c0 59.333 9.66699 113 29 161s47.666 86 84.999 114s81.333 42 132 42c27.333 0 50 -3.5 68 -10.5
s31.167 -14.667 39.5 -23s12.5 -13.166 12.5 -14.499h1l40 286l74 4l-106 -752h-62zM338.004 62.999c20.667 16 35.668 31.001 45.001 45.001l43 309c-7.33301 9.33301 -18.5 19.166 -33.5 29.499s-36.833 15.5 -65.5 15.5c-62.667 0 -109.334 -24.833 -140.001 -74.5
s-46 -117.167 -46 -202.5c0 -48.667 10.167 -85.167 30.5 -109.5s49.5 -36.5 87.5 -36.5c32 0 58.333 8 79 24z" />
    <glyph glyph-name="e" unicode="e" horiz-adv-x="453" 
d="M411.5 45.5c-13.667 -13.667 -33 -26.333 -58 -38s-55.5 -17.5 -91.5 -17.5c-58.667 0 -106 17.333 -142 52s-54 84.667 -54 150c0 62.667 10.5 118.167 31.5 166.5s50.333 85.666 88 111.999s81.167 39.5 130.5 39.5c46.667 0 83.5 -12.667 110.5 -38
s40.5 -56.666 40.5 -93.999c0 -62 -27.167 -102.833 -81.5 -122.5s-120.5 -29.5 -198.5 -29.5h-45c-0.666992 -9.33301 -1 -23.666 -1 -42.999c0 -50 12.167 -87.333 36.5 -112s56.833 -37 97.5 -37c26.667 0 49.667 4.33301 69 13s34.5 18.167 45.5 28.5
s16.5 16.166 16.5 17.499l26 -24c0 -2 -6.83301 -9.83301 -20.5 -23.5zM201 413.501c-28 -35.667 -46.332 -85.5 -54.999 -149.5h43c61.333 0 112.166 7.66699 152.499 23s60.5 47 60.5 95c0 24.667 -8.33301 45 -25 61s-40 24 -70 24c-42.667 0 -78 -17.833 -106 -53.5z
" />
    <glyph glyph-name="f" unicode="f" horiz-adv-x="312" 
d="M105 451l5.99609 42.0029l53 6l10 72c9.33301 64.667 26.166 112.167 50.499 142.5s60.166 45.5 107.499 45.5c16 0 30.667 -2.16699 44 -6.5s24 -8.83301 32 -13.5s13 -7.66699 15 -9l-16 -39c-1.33301 1.33301 -5.16602 3.83301 -11.499 7.5
s-14.666 7.16699 -24.999 10.5s-21.166 5 -32.499 5c-17.333 0 -31.666 -4.33301 -42.999 -13s-21 -24 -29 -46s-14.667 -52.667 -20 -92l-9 -63h144l-7 -49h-144l-69 -492c-20.667 -146 -78 -219 -172 -219c-16 0 -29.167 1.66699 -39.5 5s-18 6.66602 -23 9.99902
s-7.83301 5.66602 -8.5 6.99902l21 41c0.666992 -0.666992 2.83398 -2.33398 6.50098 -5.00098s9 -5.16699 16 -7.5s15.167 -3.5 24.5 -3.5c26 0 47.333 13.333 64 40s29.334 70.667 38.001 132l69 492h-52z" />
    <glyph glyph-name="g" unicode="g" horiz-adv-x="451" 
d="M367 500l130.998 -1l-4 -39l-67 -2c18.667 -24 28 -55 28 -93c0 -66.667 -18.333 -118.334 -55 -155.001s-86 -55 -148 -55c-21.333 0 -41.666 2.66699 -60.999 8c-26.667 -14 -40 -32 -40 -54c0 -30 27.667 -45 83 -45c134.667 0 202 -45.333 202 -136
c0 -58 -20 -103.833 -60 -137.5s-97 -50.5 -171 -50.5c-63.333 0 -112 12.5 -146 37.5s-51 61.167 -51 108.5c0 40 10.167 72.333 30.5 97s45.5 42.334 75.5 53.001c-10 13.333 -15 30 -15 50c0 38 18.667 69 56 93c-20.667 12 -36.5 28.667 -47.5 50s-16.5 46.333 -16.5 75
c0 70.667 19.833 122.667 59.5 156s89.834 50 150.501 50c24.667 0 46.667 -3.33301 66 -10zM292.998 467c-39.333 0 -71.167 -12.832 -95.5 -38.499s-36.5 -68.5 -36.5 -128.5c0 -34 8.16699 -60 24.5 -78s39.5 -27 69.5 -27c41.333 0 73.333 14.667 96 44
s34 72.666 34 129.999c0 65.333 -30.667 98 -92 98zM149.997 11.001c-25.333 -8.66699 -46.166 -22.833 -62.499 -42.5s-24.5 -45.5 -24.5 -77.5c0 -36 13 -62.667 39 -80s62.333 -26 109 -26c51.333 0 90.666 10.667 117.999 32s41 52 41 92
c0 32.667 -12.333 56.167 -37 70.5s-61.334 21.5 -110.001 21.5c-29.333 0 -53.666 3.33301 -72.999 10z" />
    <glyph glyph-name="h" unicode="h" horiz-adv-x="510" 
d="M252 752l-42.002 -296h2c0 1.33301 6.33301 6.66602 19 15.999s30 18 52 26s47.667 12 77 12c42.667 0 75.667 -10.333 99 -31s35 -51.667 35 -93c0 -11.333 -1 -23.666 -3 -36.999l-48 -349h-73l47 340c1.33301 7.33301 2 18 2 32c0 29.333 -7.33301 50.833 -22 64.5
s-36.667 20.5 -66 20.5c-33.333 0 -60.666 -6 -81.999 -18s-36.666 -22.667 -45.999 -32l-57 -407h-72l104 748z" />
    <glyph glyph-name="i" unicode="i" horiz-adv-x="221" 
d="M207 687c12 0 21.334 -3.33398 28.001 -10.001c5.33301 -6 8 -14.667 8 -26c0 -14.667 -5.66699 -27.667 -17 -39c-10.667 -7.33301 -21.334 -11 -32.001 -11c-12 0 -21 3.66699 -27 11s-9 16 -9 26c0 7.33301 1.5 14.333 4.5 21s7.5 12.334 13.5 17.001
c8 7.33301 18.333 11 31 11zM146.001 -0.000976562h-72l70 500h72z" />
    <glyph glyph-name="j" unicode="j" horiz-adv-x="238" 
d="M225 687c12 0 21.334 -3.33398 28.001 -10.001c5.33301 -6 8 -14.667 8 -26c0 -14.667 -5.66699 -27.667 -17 -39c-10.667 -7.33301 -21.334 -11 -32.001 -11c-12 0 -21 3.66699 -27 11s-9 16 -9 26c0 7.33301 1.5 14.333 4.5 21s7.5 12.334 13.5 17.001
c8 7.33301 18.333 11 31 11zM235.001 499.999l-76.001 -540.997c-20.667 -146 -78 -219 -172 -219c-16 0 -29.167 1.66699 -39.5 5s-18 6.66602 -23 9.99902s-7.83301 5.66602 -8.5 6.99902l21 41c0.666992 -0.666992 2.83398 -2.33398 6.50098 -5.00098s9 -5.16699 16 -7.5
s15.167 -3.5 24.5 -3.5c26.667 0 48.167 13.333 64.5 40s28.833 70.667 37.5 132l76 541h73z" />
    <glyph glyph-name="k" unicode="k" horiz-adv-x="455" 
d="M178 748l74 4l-68 -482l68 43l175 187h55l-194 -205l145 -295h-84l-123 252l-49 -28l-31 -224h-72z" />
    <glyph glyph-name="l" unicode="l" horiz-adv-x="221" 
d="M147 0h-73l105 748l73 4z" />
    <glyph glyph-name="m" unicode="m" horiz-adv-x="724" 
d="M204 500l2.00293 -51.999c13.333 13.333 32.5 27 57.5 41s55.167 21 90.5 21c27.333 0 49.166 -5 65.499 -15s27.166 -25.667 32.499 -47c13.333 13.333 32.666 27 57.999 41s57 21 95 21c36 0 62.5 -7.66699 79.5 -23s25.5 -41 25.5 -77c0 -12.667 -1 -27 -3 -43
l-51 -367h-73l51 359c2 13.333 3 24.666 3 33.999c0 24.667 -5.33301 41.667 -16 51s-27 14 -49 14c-27.333 0 -51.333 -6.66699 -72 -20s-35.334 -25.666 -44.001 -36.999l-3 -33l-52 -368h-72l50 359c2 13.333 3 25 3 35c0 24 -5.16699 40.667 -15.5 50
s-26.166 14 -47.499 14c-28 0 -52.167 -6.33301 -72.5 -19s-34.833 -24.334 -43.5 -35.001l-56 -404h-73l70 500h60z" />
    <glyph glyph-name="n" unicode="n" horiz-adv-x="511" 
d="M204 500l4 -46.001c37.333 37.333 88.333 56 153 56c42.667 0 75.5 -10.333 98.5 -31s34.5 -51.667 34.5 -93c0 -11.333 -1 -23.666 -3 -36.999l-48 -349h-73l48 340c1.33301 7.33301 2 17.333 2 30c0 58 -30.333 87 -91 87c-33.333 0 -60 -5.83301 -80 -17.5
s-35 -22.5 -45 -32.5l-57 -407h-73l70 500h60z" />
    <glyph glyph-name="o" unicode="o" horiz-adv-x="501" 
d="M472.5 139c-20.333 -47.333 -49.666 -84 -87.999 -110s-83.833 -39 -136.5 -39c-58 0 -102.667 18 -134 54s-47 86.667 -47 152c0 95.333 22.167 171.5 66.5 228.5s107.166 85.5 188.499 85.5c58 0 102.667 -18 134 -54s47 -86.667 47 -152
c0 -62.667 -10.167 -117.667 -30.5 -165zM186 392c-29.333 -49.333 -43.999 -119.333 -43.999 -210c0 -46.667 9.5 -83 28.5 -109s47.833 -39 86.5 -39c55.333 0 97.666 24.5 126.999 73.5s44 118.833 44 209.5c0 47.333 -9.5 84 -28.5 110s-47.5 39 -85.5 39
c-56 0 -98.667 -24.667 -128 -74z" />
    <glyph glyph-name="p" unicode="p" 
d="M204 500l0.999023 -60.999c10 14.667 27.167 30.167 51.5 46.5s56.833 24.5 97.5 24.5c51.333 0 91.833 -17.5 121.5 -52.5s44.5 -83.833 44.5 -146.5c0 -60 -9.66699 -114.333 -29 -163s-47.666 -87.167 -84.999 -115.5s-81.333 -42.5 -132 -42.5
c-27.333 0 -50 3.5 -68 10.5s-31.5 14.667 -40.5 23s-13.5 13.166 -13.5 14.499h-1l-40 -288l-72 -2l105 752h60zM246.999 438.001c-20 -15.333 -35.002 -29.999 -45.002 -43.999l-44 -312c6 -8.66699 16.833 -18.167 32.5 -28.5s37.834 -15.5 66.501 -15.5
c60.667 0 106.834 24.167 138.501 72.5s47.5 116.166 47.5 203.499c0 50 -10.333 87 -31 111s-50 36 -88 36c-31.333 0 -57 -7.66699 -77 -23z" />
    <glyph glyph-name="q" unicode="q" 
d="M333 -252l44 311.999h-2c0 -2 -5.5 -9 -16.5 -21s-26.833 -23.167 -47.5 -33.5s-46 -15.5 -76 -15.5c-52 0 -93.167 17.833 -123.5 53.5s-45.5 84.834 -45.5 147.501c0 59.333 10.167 113.333 30.5 162s49.5 87 87.5 115s82.333 42 133 42
c32.667 0 58.667 -5.16699 78 -15.5s33.333 -20.833 42 -31.5l22 37h52l-105 -750zM326 53.999c18 10 32 20.834 42 32.501s15 18.5 15 20.5l44 310c-6 9.33301 -16.833 19.166 -32.5 29.499s-37.167 15.5 -64.5 15.5c-61.333 0 -108 -24 -140 -72s-48 -115.667 -48 -203
c0 -98.667 40 -148 120 -148c24.667 0 46 5 64 15z" />
    <glyph glyph-name="r" unicode="r" horiz-adv-x="328" 
d="M341.5 448c-17 4 -32.167 6.00195 -45.5 6.00195c-18.667 0 -35.167 -6.33301 -49.5 -19s-25.666 -26.334 -33.999 -41.001s-13.5 -25.667 -15.5 -33v-1l-51 -360h-72l70 500h53l-3 -103c0 3.33301 4.66699 14.666 14 33.999s22.5 37.333 39.5 54s37.5 25 61.5 25
c12.667 0 27.667 -2.16699 45 -6.5s28.666 -7.5 33.999 -9.5l-13 -55c-5.33301 2 -16.5 5 -33.5 9z" />
    <glyph glyph-name="s" unicode="s" horiz-adv-x="408" 
d="M90.5 78c9 -10.667 22.001 -20.665 39.001 -29.998s37.833 -14 62.5 -14c41.333 0 72.833 10.667 94.5 32s32.5 46.666 32.5 75.999c0 16.667 -4.33301 30.5 -13 41.5s-19.167 19.667 -31.5 26s-29.5 14.166 -51.5 23.499c-24.667 10 -44.834 19.333 -60.501 28
s-28.834 20.667 -39.501 36s-16 35 -16 59c0 47.333 17.833 84.833 53.5 112.5s80.5 41.5 134.5 41.5c21.333 0 41.333 -3.16699 60 -9.5s34 -13.333 46 -21s18 -11.834 18 -12.501l-13 -43c-2.66699 2 -9.16699 6.5 -19.5 13.5s-23.666 13.833 -39.999 20.5
s-33.5 10 -51.5 10c-34.667 0 -62.667 -8.83301 -84 -26.5s-32 -39.834 -32 -66.501c0 -24 8.16699 -42.167 24.5 -54.5s41.166 -25.166 74.499 -38.499c26.667 -11.333 47.667 -21.333 63 -30s28.5 -20.667 39.5 -36s16.5 -35 16.5 -59c0 -30 -7.33301 -57.667 -22 -83
s-36.834 -45.666 -66.501 -60.999s-66.5 -23 -110.5 -23c-35.333 0 -64.166 5.33301 -86.499 16s-38.666 22 -48.999 34s-15.5 19.333 -15.5 22l30 35c0 -2 4.5 -8.33301 13.5 -19z" />
    <glyph glyph-name="t" unicode="t" horiz-adv-x="326" 
d="M228 451l-42 -299c-2.66699 -18.667 -4 -36.667 -4 -54c0 -22 3.5 -37.5 10.5 -46.5s18.167 -13.5 33.5 -13.5c16.667 0 32 1.66699 46 5s21 5.33301 21 6l-1 -40c-1.33301 -1.33301 -5.66602 -3.5 -12.999 -6.5s-18 -5.83301 -32 -8.5s-30.667 -4 -50 -4
c-30.667 0 -53.334 7.5 -68.001 22.5s-22 39.5 -22 73.5c0 16 1.33301 32 4 48l44 317h-52l7 42l52 6l50 159h45l-22 -158h128l-7 -49h-128z" />
    <glyph glyph-name="u" unicode="u" horiz-adv-x="510" 
d="M376 0l-3 48c-38.667 -38.667 -89.667 -58 -153 -58c-42.667 0 -75.667 10.667 -99 32s-35 52.666 -35 93.999c0 11.333 1 23 3 35l49 349h72l-46 -334c-2 -12 -3 -23 -3 -33c0 -60 29.667 -90 89 -90c24 0 45.333 3.83301 64 11.5s33.667 15.834 45 24.501
s17 13.667 17 15l58 406h73l-71 -500h-60z" />
    <glyph glyph-name="v" unicode="v" horiz-adv-x="437" 
d="M84 500h86l71 -421l197 421h56l-243 -500h-66z" />
    <glyph glyph-name="w" unicode="w" horiz-adv-x="661" 
d="M715 500l-204 -500h-64l-60 405l-175 -405h-65l-62 500h81l37 -408h1l176 408h57l67 -408l155 408h56z" />
    <glyph glyph-name="x" unicode="x" horiz-adv-x="443" 
d="M299 261l131 -261h-85l-104 216l-169 -216h-60l201 249l-123 251h86l95 -209l157 209h59z" />
    <glyph glyph-name="y" unicode="y" horiz-adv-x="452" 
d="M11 -206.5c7.33301 -2.33301 15.668 -3.50098 25.001 -3.50098c30.667 0 58.5 16.333 83.5 49s55.167 84 90.5 154l-124 507h86l89 -417l194 417h52l-244 -507c-38.667 -80.667 -75.334 -143 -110.001 -187s-72 -66 -112 -66c-12 0 -22.333 1 -31 3s-15.167 4 -19.5 6
s-6.83301 3.33301 -7.5 4l14 46c2 -1.33301 6.66699 -3.16602 14 -5.49902z" />
    <glyph glyph-name="z" unicode="z" horiz-adv-x="415" 
d="M440 460l-313 -415h252l-4 -45h-340l6 40l314 415h-234l3 45h321z" />
    <glyph glyph-name="braceleft" unicode="{" horiz-adv-x="375" 
d="M143 316c14 0 29.334 4.83594 46.001 14.5029s31 24 43 43s18 41.833 18 68.5c0 12 -0.666992 32 -2 60c-1.33301 29.333 -2 50.333 -2 63c0 39.333 5.16699 72 15.5 98s30 46.667 59 62s70.5 23 124.5 23l-6 -43c-51.333 0 -86 -12.167 -104 -36.5
s-27 -59.833 -27 -106.5c0 -12.667 0.666992 -34.334 2 -65.001c1.33301 -28 2 -48.333 2 -61c0 -35.333 -8.83301 -65.166 -26.5 -89.499s-40.834 -42.5 -69.501 -54.5c20 -8.66699 35.833 -21 47.5 -37s17.5 -34.333 17.5 -55c0 -16 -2.5 -32.833 -7.5 -50.5
s-12.167 -39.167 -21.5 -64.5c-10 -26.667 -17.5 -49.5 -22.5 -68.5s-7.5 -37.5 -7.5 -55.5c0 -26.667 8 -47 24 -61s41.667 -21 77 -21l-6 -43c-57.333 0 -98 9.66699 -122 29s-36 47.666 -36 84.999c0 22 2.83301 43.5 8.5 64.5s13.834 45.833 24.501 74.5
c8.66699 24 15 43.167 19 57.5s6 28.166 6 41.499c0 15.333 -4.33301 29.166 -13 41.499s-19.334 21.833 -32.001 28.5s-25 10 -37 10l6 38z" />
    <glyph glyph-name="bar" unicode="|" horiz-adv-x="292" 
d="M136 -250h-50l141 1000h50z" />
    <glyph glyph-name="braceright" unicode="}" horiz-adv-x="375" 
d="M146.5 -84.5c17.667 24.333 26.502 59.8291 26.502 106.496c0 12.667 -0.666992 34.334 -2 65.001c-1.33301 28 -2 48.333 -2 61c0 35.333 8.66699 65.333 26 90s40.666 42.667 69.999 54c-20 8.66699 -35.833 21 -47.5 37s-17.5 34.333 -17.5 55
c0 16 2.5 32.833 7.5 50.5s12.167 39.167 21.5 64.5c10 26.667 17.5 49.5 22.5 68.5s7.5 37.5 7.5 55.5c0 26.667 -7.83301 47 -23.5 61s-41.167 21 -76.5 21l6 43c57.333 0 98.166 -9.66699 122.499 -29s36.5 -47.666 36.5 -84.999c0 -22 -2.83301 -43.5 -8.5 -64.5
s-13.834 -45.833 -24.501 -74.5c-8.66699 -22 -15.167 -40.667 -19.5 -56s-6.5 -29.666 -6.5 -42.999c0 -15.333 4.33301 -29.166 13 -41.499s19.334 -21.833 32.001 -28.5s24.667 -10 36 -10l-2 -10h1l-5 -38c-14.667 0 -30.5 -4.66699 -47.5 -14s-31.5 -23.5 -43.5 -42.5
s-18 -41.5 -18 -67.5c0 -12.667 0.666992 -33.667 2 -63c2 -22 3 -43.333 3 -64c0 -38.667 -5.16699 -71 -15.5 -97s-30 -46.5 -59 -61.5s-70.5 -22.5 -124.5 -22.5l6 43c51.333 0 85.833 12.167 103.5 36.5z" />
    <glyph glyph-name="asciitilde" unicode="~" horiz-adv-x="573" 
d="M576.5 324.5c-11 -17 -26.999 -32.998 -47.999 -47.998s-46.833 -22.5 -77.5 -22.5c-27.333 0 -50 4.5 -68 13.5s-38.333 22.5 -61 40.5c-21.333 16.667 -40.333 29.167 -57 37.5s-36.667 12.5 -60 12.5c-21.333 0 -39.5 -4.16699 -54.5 -12.5s-26.667 -17.333 -35 -27
s-12.5 -15.167 -12.5 -16.5l-26 21c0 3.33301 6 14 18 32s29.5 34.833 52.5 50.5s51.5 23.5 85.5 23.5c29.333 0 53.833 -4.66699 73.5 -14s41.5 -23.333 65.5 -42c20 -16 37.667 -28 53 -36s33.666 -12 54.999 -12c19.333 0 35.5 3.66699 48.5 11s22.667 15.166 29 23.499
s9.5 13.166 9.5 14.499l26 -19c0 -3.33301 -5.5 -13.5 -16.5 -30.5z" />
    <glyph glyph-name="uni00A0" unicode="&#xa0;" horiz-adv-x="233" 
 />
    <glyph glyph-name="exclamdown" unicode="&#xa1;" horiz-adv-x="276" 
d="M207 508c12.667 0 23 -4 31 -12c6 -6.66699 9 -15.667 9 -27c0 -16 -6 -29.667 -18 -41c-10.667 -8 -22 -12 -34 -12c-12.667 0 -22.667 4 -30 12c-6.66699 8 -10 17 -10 27c0 16 6.33301 29.667 19 41c10 8 21 12 33 12zM73 -167l83 455h44l-46 -455l-12 -83h-81z" />
    <glyph glyph-name="cent" unicode="&#xa2;" horiz-adv-x="423" 
d="M439 501.5c-12 7.66699 -26.668 14.8311 -44.001 21.498s-35.666 10 -54.999 10c-124.667 0 -187 -93.667 -187 -281c0 -51.333 11.833 -89.333 35.5 -114s55.167 -37 94.5 -37c26 0 48 4.33301 66 13s32 18 42 28s15 15.667 15 17l29 -21
c0 -2 -5.83301 -9.66699 -17.5 -23s-29 -26 -52 -38s-51.167 -18.667 -84.5 -20l-19 -107h-42l9 110c-48 8 -85.5 29 -112.5 63s-40.5 80 -40.5 138c0 90.667 19 163.834 57 219.501s93.667 87.167 167 94.5l22 125h42l-10 -124c20.667 -2 39.5 -6.5 56.5 -13.5
s30.5 -13.667 40.5 -20s16.333 -10.5 19 -12.5l-13 -41c0 0.666992 -6 4.83398 -18 12.501z" />
    <glyph glyph-name="sterling" unicode="&#xa3;" horiz-adv-x="508" 
d="M245 281c-8 -50 -18 -92.4951 -30 -127.495s-29 -63.833 -51 -86.5h332l-10 -67h-440l10 67h37c30.667 19.333 52 46.666 64 81.999s19.333 79.666 22 132.999l-93 3l6 43h89c1.33301 59.333 4.33301 109.333 9 150c6.66699 58 27.334 102.667 62.001 134s81 47 139 47
c18 0 36 -2.66699 54 -8s33 -11 45 -17s19.667 -10 23 -12l-18 -43c-2.66699 1.33301 -8.83398 4.66602 -18.501 9.99902s-21.5 10.333 -35.5 15s-27.667 7 -41 7c-37.333 0 -66.5 -10.333 -87.5 -31s-34.833 -54.334 -41.5 -101.001s-11 -81.334 -13 -104.001l-6 -47h224
l-7 -47h-224z" />
    <glyph glyph-name="currency" unicode="&#xa4;" horiz-adv-x="540" 
d="M456.5 260.5c-9 -25.667 -21.834 -47.833 -38.501 -66.5l84 -105l-32 -37l-76 118c-30.667 -24.667 -65 -37 -103 -37c-38.667 0 -69.667 13.333 -93 40l-111 -120l-23 37l116 107c-13.333 24.667 -20 54 -20 88c0 58.667 16.667 108 50 148l-84 106l33 37l76 -119
c30.667 25.333 65.334 38 104.001 38c36.667 0 67 -13 91 -39l112 119l22 -37l-117 -106c15.333 -26 23 -55.667 23 -89c0 -29.333 -4.5 -56.833 -13.5 -82.5zM401.499 421.001c-17 20 -40.1689 30.001 -69.502 30.001c-37.333 0 -68.166 -14.833 -92.499 -44.5
s-36.5 -68.834 -36.5 -117.501c0 -34.667 8.5 -62 25.5 -82s39.833 -30 68.5 -30c24 0 45.833 6.66699 65.5 20s35.334 32.333 47.001 57s17.5 53 17.5 85c0 34.667 -8.5 62 -25.5 82z" />
    <glyph glyph-name="yen" unicode="&#xa5;" horiz-adv-x="563" 
d="M296 650l134 -320l223 320h61l-233 -330h121l-6 -40h-143l-5 -7l-12 -88h147l-6 -40h-147l-19 -145h-76l20 145h-137l6 40h136l12 84l-5 11h-130l6 40h107l-139 330h85z" />
    <glyph glyph-name="brokenbar" unicode="&#xa6;" horiz-adv-x="292" 
d="M220 350h-50l57 400h50zM136 -250h-50l56 400h50z" />
    <glyph glyph-name="section" unicode="&#xa7;" horiz-adv-x="486" 
d="M133 378.5c16.667 23 36.3311 39.8311 58.998 50.498c-13.333 17.333 -20 38.666 -20 63.999c0 29.333 7.33301 56.666 22 81.999s36.667 45.666 66 60.999s65 23 107 23c22 0 42.5 -3.5 61.5 -10.5s34.833 -14.667 47.5 -23s19 -12.833 19 -13.5l-14 -40
c-2.66699 2 -9.16699 6.5 -19.5 13.5s-23.666 13.667 -39.999 20s-33.5 9.5 -51.5 9.5c-43.333 0 -75.166 -11.167 -95.499 -33.5s-30.5 -47.166 -30.5 -74.499c0 -24.667 9 -43.5 27 -56.5s45.333 -26.833 82 -41.5c29.333 -11.333 52.5 -21.666 69.5 -30.999
s31.667 -22.166 44 -38.499s18.5 -37.166 18.5 -62.499c0 -37.333 -9 -67.666 -27 -90.999s-39 -41 -63 -53c12.667 -16.667 19 -37 19 -61c0 -46 -16.167 -84.333 -48.5 -115s-81.5 -46 -147.5 -46c-31.333 0 -57.5 4.83301 -78.5 14.5s-36.667 20.167 -47 31.5
s-15.5 18 -15.5 20l23 37c1.33301 -3.33301 6.33301 -9.83301 15 -19.5s21.5 -18.667 38.5 -27s37.5 -12.5 61.5 -12.5c47.333 0 80.333 10 99 30s28 44.333 28 73c0 23.333 -8.5 41.5 -25.5 54.5s-43.167 26.167 -78.5 39.5c-28 11.333 -50.667 21.833 -68 31.5
s-32 23 -44 40s-18 38.5 -18 64.5c0 37.333 8.33301 67.5 25 90.5zM177.997 262.498c10.667 -13 23.833 -23.5029 39.5 -31.5029s36.5 -17 62.5 -27c24 -9.33301 42.5 -17.166 55.5 -23.499s24.833 -13.833 35.5 -22.5c40.667 18.667 61 51.334 61 98.001
c0 24.667 -9.66699 44 -29 58s-49 28.333 -89 43c-4 1.33301 -13.5 5 -28.5 11s-28.333 12 -40 18s-21.5 12.333 -29.5 19c-36 -17.333 -54 -48.666 -54 -93.999c0 -19.333 5.33301 -35.5 16 -48.5z" />
    <glyph glyph-name="dieresis" unicode="&#xa8;" horiz-adv-x="375" 
d="M172 684c9.33301 0 17.333 -3.33398 24 -10.001c5.33301 -5.33301 8 -13 8 -23c0 -13.333 -5.33301 -25.333 -16 -36c-8.66699 -6.66699 -17.667 -10 -27 -10c-10 0 -18.333 3.33301 -25 10c-5.33301 6.66699 -8 14.334 -8 23.001c0 13.333 5.33301 25.333 16 36
c8.66699 6.66699 18 10 28 10zM325 683.999c10 0 18.333 -3.33301 25 -10c5.33301 -6.66699 8 -14.334 8 -23.001c0 -13.333 -5.33301 -25.333 -16 -36c-8.66699 -6.66699 -18 -10 -28 -10c-9.33301 0 -17.333 3.33301 -24 10c-5.33301 6.66699 -8 14.334 -8 23.001
c0 13.333 5.33301 25.333 16 36c8.66699 6.66699 17.667 10 27 10z" />
    <glyph glyph-name="copyright" unicode="&#xa9;" horiz-adv-x="729" 
d="M588.5 72c-59.667 -57.333 -135.501 -86 -227.501 -86c-78.667 0 -139.667 26 -183 78s-65 121.333 -65 208c0 78.667 14.167 147.5 42.5 206.5s68.333 104.5 120 136.5s111.834 48 180.501 48c78.667 0 139.834 -24.833 183.501 -74.5s65.5 -116.834 65.5 -201.501
c0 -27.333 -1.66699 -52 -5 -74c-14.667 -103.333 -51.834 -183.666 -111.501 -240.999zM665.999 381c0 76 -19 136 -57 180s-90.667 66 -158 66c-59.333 0 -111.5 -14.167 -156.5 -42.5s-79.833 -69 -104.5 -122s-37 -115.167 -37 -186.5
c0 -78 18.833 -139.833 56.5 -185.5s89.834 -68.5 156.501 -68.5c78.667 0 144.167 25 196.5 75s85.166 121.667 98.499 215c3.33301 26.667 5 49.667 5 69zM510.499 440.5c-6.33301 5 -15 10 -26 15s-23.167 7.5 -36.5 7.5c-40.667 0 -73.167 -14.333 -97.5 -43
s-36.5 -69.667 -36.5 -123c0 -35.333 10.167 -64.5 30.5 -87.5s44.833 -34.5 73.5 -34.5c18.667 0 34.167 3.66699 46.5 11s21.666 15.333 27.999 24s9.5 13.667 9.5 15l15 -20c0 -2.66699 -3.83301 -9.33398 -11.5 -20.001s-20 -20.834 -37 -30.501
s-39.167 -14.5 -66.5 -14.5c-25.333 0 -48.666 6.66699 -69.999 20s-38.5 31.833 -51.5 55.5s-19.5 50.834 -19.5 81.501c0 41.333 8 77 24 107s38.167 53 66.5 69s60.166 24 95.499 24c17.333 0 32.5 -2.66699 45.5 -8s23.333 -11.166 31 -17.499s11.5 -9.83301 11.5 -10.5
l-13 -31c-1.33301 2 -5.16602 5.5 -11.499 10.5z" />
    <glyph glyph-name="ordfeminine" unicode="&#xaa;" horiz-adv-x="389" 
d="M272.5 330.5c-19 -13.667 -45.1641 -20.5029 -78.4971 -20.5029c-34.667 0 -60.667 7.33301 -78 22s-26 35.667 -26 63c0 50.667 24.667 86.334 74 107.001s105.666 33.334 168.999 38.001l3 17c1.33301 12 2 20.667 2 26c0 22 -5.66699 38 -17 48s-29.333 15 -54 15
c-18.667 0 -35.834 -3 -51.501 -9s-28.334 -12.667 -38.001 -20s-14.5 -11.333 -14.5 -12l-13 24c0 1.33301 5.33301 6.33301 16 15s26 16.834 46 24.501s44 11.5 72 11.5c40 0 69.833 -8 89.5 -24s29.5 -41 29.5 -75c0 -6 -0.666992 -15.667 -2 -29l-33 -232h-51l-6 52
c-6.66699 -14 -19.5 -27.833 -38.5 -41.5zM276.003 360.497c13.333 9 23.167 18.667 29.5 29s9.5 16.5 9.5 18.5l14 103c-52.667 -5.33301 -95 -15.5 -127 -30.5s-48 -40.5 -48 -76.5c0 -38 23.667 -57 71 -57c20.667 0 37.667 4.5 51 13.5z" />
    <glyph glyph-name="guillemotleft" unicode="&#xab;" horiz-adv-x="484" 
d="M187 249l87 -148l-26 -27l-130 176l179 171l19 -26zM349 249l87 -148l-26 -27l-130 176l179 171l19 -26z" />
    <glyph glyph-name="logicalnot" unicode="&#xac;" horiz-adv-x="447" 
d="M410 128h-43l23 167h-295l6 46h339z" />
    <glyph glyph-name="uni00AD" unicode="&#xad;" horiz-adv-x="310" 
d="M305 254h-229l7 47h228z" />
    <glyph glyph-name="registered" unicode="&#xae;" horiz-adv-x="617" 
d="M530 227.5c-52.667 -51.667 -119.668 -77.5 -201.001 -77.5c-69.333 0 -123 23.667 -161 71s-57 109.666 -57 186.999c0 69.333 12.667 130.333 38 183s61 93.5 107 122.5s99 43.5 159 43.5c68.667 0 122.334 -22.667 161.001 -68s58 -105.666 58 -180.999
c0 -18 -1.66699 -39.667 -5 -65c-13.333 -92 -46.333 -163.833 -99 -215.5zM593.999 504c0 67.333 -16 120.667 -48 160s-77.333 59 -136 59c-52.667 0 -98.667 -13 -138 -39s-69.5 -62.667 -90.5 -110s-31.5 -102 -31.5 -164c0 -67.333 16.167 -121.5 48.5 -162.5
s77.5 -61.5 135.5 -61.5c69.333 0 126.5 22.167 171.5 66.5s73.167 107.5 84.5 189.5c2.66699 19.333 4 40 4 62zM394.999 611.001c68 0 102 -25.001 102 -75.001c0 -29.333 -7.33301 -53.166 -22 -71.499s-35 -30.833 -61 -37.5l47 -133h-44l-44 128h-48l-18 -128h-39
l44 317h83zM327.999 447h44.001c23.333 0 42.666 6.83301 57.999 20.5s23 36.167 23 67.5c0 32.667 -20.333 49 -61 49h-45z" />
    <glyph glyph-name="macron" unicode="&#xaf;" horiz-adv-x="395" 
d="M379 636h-185l5 36h185z" />
    <glyph glyph-name="degree" unicode="&#xb0;" horiz-adv-x="409" 
d="M423 492c-15.333 -33.333 -37.166 -59.5 -65.499 -78.5s-61.166 -28.5 -98.499 -28.5c-43.333 0 -76.5 13.667 -99.5 41s-34.5 64.666 -34.5 111.999c0 43.333 7.66699 82 23 116s37.166 60.5 65.499 79.5s61.166 28.5 98.499 28.5c41.333 0 74 -14.167 98 -42.5
s36 -66.166 36 -113.499c0 -42.667 -7.66699 -80.667 -23 -114zM366 692c-14 18.667 -34 28 -60 28c-36.667 0 -66.167 -15.833 -88.5 -47.5s-33.5 -78.167 -33.5 -139.5c0 -33.333 6.83301 -59.333 20.5 -78s33.5 -28 59.5 -28c36 0 65.5 16.167 88.5 48.5
s34.5 78.5 34.5 138.5c0 33.333 -7 59.333 -21 78z" />
    <glyph glyph-name="plusminus" unicode="&#xb1;" horiz-adv-x="470" 
d="M336 549h147l-7 -47h-146l-24 -174h-45l24 174h-148l7 47h147l25 174h45zM457 151h-401l7 47h401z" />
    <glyph glyph-name="uni00B2" unicode="&#xb2;" horiz-adv-x="377" 
d="M65 230l7.99902 55c14.667 5.33301 43.5 27.333 86.5 66s82.167 83.5 117.5 134.5s53 100.167 53 147.5c0 27.333 -6.33301 47.833 -19 61.5s-33 20.5 -61 20.5c-12.667 0 -26.167 -3.16699 -40.5 -9.5s-26.666 -12.833 -36.999 -19.5s-16.833 -11 -19.5 -13l-5 38
c3.33301 2.66699 11 7.66699 23 15s27.167 14.5 45.5 21.5s36.5 10.5 54.5 10.5c44 0 76.833 -11.333 98.5 -34s32.5 -52.667 32.5 -90c0 -60 -26.333 -120 -79 -180s-111.667 -113.667 -177 -161h220l-9 -63h-292z" />
    <glyph glyph-name="uni00B3" unicode="&#xb3;" horiz-adv-x="376" 
d="M350 687l-190 0.00195312l11 63h249l-6 -43l-159 -182c8 1.33301 14.333 2 19 2c33.333 0 60.333 -11.333 81 -34s31 -52.667 31 -90c0 -36.667 -8.66699 -68.667 -26 -96s-40.333 -48.5 -69 -63.5s-59.667 -22.5 -93 -22.5c-28 0 -50.833 2.66699 -68.5 8
s-30.5 11.166 -38.5 17.499s-12 10.166 -12 11.499l21 36c0 -0.666992 3.5 -3.66699 10.5 -9s17.333 -10.166 31 -14.499s30.167 -6.5 49.5 -6.5c38.667 0 70 13 94 39s36 61.667 36 107c0 24 -5.83301 43.167 -17.5 57.5s-28.5 21.5 -50.5 21.5
c-8 0 -15.167 -1.16699 -21.5 -3.5s-11.5 -4.83301 -15.5 -7.5s-6.33301 -4.33398 -7 -5.00098l-20 27z" />
    <glyph glyph-name="acute" unicode="&#xb4;" horiz-adv-x="207" 
d="M295 706l-120 -135l-37 5l96 145z" />
    <glyph glyph-name="uni00B5" unicode="&#xb5;" horiz-adv-x="517" 
d="M382 0l-3 47.999c-38.667 -38.667 -89.667 -58 -153 -58c-34 0 -61.333 6.33301 -82 19l-8 -68c-9.33301 -85.333 -17 -149 -23 -191h-74l53 378c0 7.33301 1 15 3 23l49 349h72l-46 -334c-2 -12 -3 -23 -3 -33c0 -60 29.667 -90 89 -90c24 0 45.333 3.83301 64 11.5
s33.667 15.834 45 24.501s17 13.667 17 15l58 406h73l-71 -500h-60z" />
    <glyph glyph-name="paragraph" unicode="&#xb6;" horiz-adv-x="597" 
d="M575 595l-83 -595.001h-61l83 595h-95l-83 -595h-60l34 244c-66.667 0 -117.167 13.333 -151.5 40s-51.5 69.334 -51.5 128.001c0 78.667 22 138 66 178s113.667 60 209 60h259l-8 -55h-58z" />
    <glyph glyph-name="periodcentered" unicode="&#xb7;" horiz-adv-x="243" 
d="M173 383c12.667 0 23 -4 31 -12c6 -6.66699 9 -15.667 9 -27c0 -16 -6 -29.667 -18 -41c-10.667 -8 -22 -12 -34 -12c-13.333 0 -23.333 4 -30 12s-10 17 -10 27c0 16 6.33301 29.667 19 41c10 8 21 12 33 12z" />
    <glyph glyph-name="cedilla" unicode="&#xb8;" horiz-adv-x="234" 
d="M115 -69c0 -0.666992 7.66699 -3.00098 23 -7.00098s29.5 -11.5 42.5 -22.5s19.5 -26.5 19.5 -46.5c0 -31.333 -10.167 -56.833 -30.5 -76.5s-49.5 -29.5 -87.5 -29.5c-20 0 -36.333 3.16699 -49 9.5s-22 13 -28 20s-9 11.167 -9 12.5l20 20
c0.666992 -1.33301 3.33398 -4.66602 8.00098 -9.99902s11.5 -10.333 20.5 -15s20.167 -7 33.5 -7c25.333 0 44.5 6.5 57.5 19.5s19.5 31.5 19.5 55.5c0 17.333 -6.33301 29.333 -19 36s-25.334 11.167 -38.001 13.5s-19 3.83301 -19 4.5l24 89h29z" />
    <glyph glyph-name="uni00B9" unicode="&#xb9;" horiz-adv-x="376" 
d="M347 750l-73 -520h-66l64 460l-96 -58l-11 42l128 76h54z" />
    <glyph glyph-name="ordmasculine" unicode="&#xba;" horiz-adv-x="419" 
d="M401.5 369.5c-35 -39.667 -84.501 -59.498 -148.501 -59.498c-49.333 0 -86.666 13.167 -111.999 39.5s-38 63.166 -38 110.499c0 67.333 17.333 120.833 52 160.5s84.667 59.5 150 59.5c49.333 0 86.5 -13.167 111.5 -39.5s37.5 -63.5 37.5 -111.5
c0 -66.667 -17.5 -119.834 -52.5 -159.501zM203.499 596.002c-22.333 -32.667 -33.502 -80.999 -33.502 -144.999c0 -34.667 7.33301 -61.334 22 -80.001s36.334 -28 65.001 -28c42 0 74.167 16.5 96.5 49.5s33.5 81.833 33.5 146.5c0 34 -7.33301 60.167 -22 78.5
s-36.667 27.5 -66 27.5c-41.333 0 -73.166 -16.333 -95.499 -49z" />
    <glyph glyph-name="guillemotright" unicode="&#xbb;" horiz-adv-x="484" 
d="M143 421l130 -177l-178 -170l-20 26l129 144l-87 150zM305 421l130 -177l-178 -170l-20 26l129 144l-87 150z" />
    <glyph glyph-name="onequarter" unicode="&#xbc;" horiz-adv-x="727" 
d="M347 750l-73 -520h-66l64 460l-96 -58l-11 42l128 76h54zM255 0l-33 20l382 562l32 -21zM484.5 85.5c-30.333 -61.667 -59.833 -115.833 -88.5 -162.5h149l24 163l31 108h52l-39 -271h50l-5 -36l-51 -6l-18 -131h-68l18 131h-194v35c24 40.667 50.167 94 78.5 160
s54.5 133.333 78.5 202l62 -8c-22.667 -61.333 -49.167 -122.833 -79.5 -184.5z" />
    <glyph glyph-name="onehalf" unicode="&#xbd;" horiz-adv-x="786" 
d="M347 750l-73 -520h-66l64 460l-96 -58l-11 42l128 76h54zM255 0l-33 20l382 562l32 -21zM388 -250l8.00098 55c14.667 5.33301 43.5 27.333 86.5 66s82.167 83.5 117.5 134.5s53 100.167 53 147.5c0 27.333 -6.33301 47.833 -19 61.5s-33 20.5 -61 20.5
c-12.667 0 -26.167 -3.16699 -40.5 -9.5s-26.666 -12.833 -36.999 -19.5s-16.833 -11 -19.5 -13l-5 38c3.33301 2.66699 11.166 7.66699 23.499 15s27.666 14.5 45.999 21.5s36.5 10.5 54.5 10.5c44 0 76.667 -11.333 98 -34s32 -52.667 32 -90
c0 -60 -26.167 -119.667 -78.5 -179s-111.5 -113.333 -177.5 -162h220l-9 -63h-292z" />
    <glyph glyph-name="threequarters" unicode="&#xbe;" horiz-adv-x="775" 
d="M351 687l-190 0.00195312l11 63h249l-6 -43l-159 -182c8 1.33301 14.333 2 19 2c33.333 0 60.333 -11.333 81 -34s31 -52.667 31 -90c0 -36.667 -8.66699 -68.667 -26 -96s-40.333 -48.5 -69 -63.5s-59.667 -22.5 -93 -22.5c-28 0 -50.833 2.66699 -68.5 8
s-30.5 11.166 -38.5 17.499s-12 10.166 -12 11.499l21 36c0 -0.666992 3.5 -3.66699 10.5 -9s17.333 -10.166 31 -14.499s30.167 -6.5 49.5 -6.5c38.667 0 70 13 94 39s36 61.667 36 107c0 24 -5.83301 43.167 -17.5 57.5s-28.5 21.5 -50.5 21.5
c-8 0 -15.167 -1.16699 -21.5 -3.5s-11.5 -4.83301 -15.5 -7.5s-6.33301 -4.33398 -7 -5.00098l-20 27zM302 0.00195312l-33 20l382 562l32 -21zM532.5 85.502c-30.333 -61.667 -59.833 -115.833 -88.5 -162.5h149l24 163l31 108h52l-39 -271h50l-5 -36l-51 -6l-18 -131h-68
l18 131h-194v35c24 40.667 50.167 94 78.5 160s54.5 133.333 78.5 202l62 -8c-22.667 -61.333 -49.167 -122.833 -79.5 -184.5z" />
    <glyph glyph-name="questiondown" unicode="&#xbf;" horiz-adv-x="411" 
d="M335 508c12.667 0 23 -4 31 -12c6 -6.66699 9 -15.667 9 -27c0 -16 -6 -29.667 -18 -41c-10.667 -8 -22 -12 -34 -12c-12.667 0 -22.667 4 -30 12c-6.66699 8 -10 17 -10 27c0 16 6.33301 29.667 19 41c10 8 21 12 33 12zM310.5 -222.5
c-9 -9 -21.999 -17.5039 -38.999 -25.5039s-37.833 -12 -62.5 -12c-58 0 -102.833 13.667 -134.5 41s-47.5 64.666 -47.5 111.999c0 36.667 5.5 66.834 16.5 90.501s24.667 42.334 41 56.001s38.166 28.834 65.499 45.501c28.667 18 51.5 34 68.5 48s32.167 33.5 45.5 58.5
s22 56.167 26 93.5l35 3c-4.66699 -44.667 -13.167 -81 -25.5 -109s-26 -49.5 -41 -64.5s-34.5 -30.5 -58.5 -46.5c-22 -15.333 -39.333 -29 -52 -41s-23.167 -28.833 -31.5 -50.5s-12.5 -50.167 -12.5 -85.5c0 -31.333 9.83301 -56.666 29.5 -75.999s49.167 -29 88.5 -29
c16.667 0 31 2.66699 43 8s21.5 11.333 28.5 18s10.5 10.334 10.5 11.001l20 -30c0 -1.33301 -4.5 -6.5 -13.5 -15.5z" />
    <glyph glyph-name="Agrave" unicode="&#xc0;" horiz-adv-x="568" 
d="M349 859l63 -143l-42 -8l-85 135zM422 650l124 -650h-79l-40 200h-255l-96 -200h-53l310 650h89zM191 241h228l-63 351z" />
    <glyph glyph-name="Aacute" unicode="&#xc1;" horiz-adv-x="568" 
d="M503 841l-120 -135l-37 5l96 145zM422 650l124 -650h-79l-40 200h-255l-96 -200h-53l310 650h89zM191 241h228l-63 351z" />
    <glyph glyph-name="Acircumflex" unicode="&#xc2;" horiz-adv-x="568" 
d="M509 764l-23 -32l-96 97l-123 -97l-15 32l125 114h40zM422 650l124 -650h-79l-40 200h-255l-96 -200h-53l310 650h89zM191 241h228l-63 351z" />
    <glyph glyph-name="Atilde" unicode="&#xc3;" horiz-adv-x="568" 
d="M539 766c-8 -8.66699 -18.834 -16.8311 -32.501 -24.498s-29.5 -11.5 -47.5 -11.5c-13.333 0 -25.833 2 -37.5 6s-24.834 10 -39.501 18c-16 7.33301 -29 12.833 -39 16.5s-20.667 5.5 -32 5.5s-21.833 -2.83301 -31.5 -8.5s-17.334 -11.667 -23.001 -18
s-9.16699 -10.5 -10.5 -12.5l-20 25c0 1.33301 4.83301 7.5 14.5 18.5s22.334 21.167 38.001 30.5s33.167 14 52.5 14c14.667 0 28 -2.16699 40 -6.5s25.667 -10.5 41 -18.5c13.333 -6.66699 24.833 -11.834 34.5 -15.501s19.834 -5.5 30.501 -5.5s20 2 28 6
s14.333 8.16699 19 12.5s7.33398 7.16602 8.00098 8.49902l19 -25c0 -1.33301 -4 -6.33301 -12 -15zM421.999 650.003l124 -650h-79l-40 200h-255l-96 -200h-53l310 650h89zM190.999 241.003h228l-63 351z" />
    <glyph glyph-name="Adieresis" unicode="&#xc4;" horiz-adv-x="568" 
d="M314 819c10 0 18.333 -3.33398 25 -10.001c5.33301 -5.33301 8 -13 8 -23c0 -13.333 -5.33301 -25.333 -16 -36c-8.66699 -6.66699 -17.667 -10 -27 -10c-10 0 -18.333 3.33301 -25 10c-5.33301 6.66699 -8 14.334 -8 23.001c0 13.333 5.33301 25.333 16 36
c8.66699 6.66699 17.667 10 27 10zM468 818.999c10 0 18.333 -3.33301 25 -10c5.33301 -6.66699 8 -14.334 8 -23.001c0 -13.333 -5.33301 -25.333 -16 -36c-8.66699 -6.66699 -18 -10 -28 -10c-9.33301 0 -17.333 3.33301 -24 10c-5.33301 6.66699 -8 14.334 -8 23.001
c0 13.333 5.33301 25.333 16 36c8.66699 6.66699 17.667 10 27 10zM422 649.999l124 -650h-79l-40 200h-255l-96 -200h-53l310 650h89zM191 240.999h228l-63 351z" />
    <glyph glyph-name="Aring" unicode="&#xc5;" horiz-adv-x="568" 
d="M444 714.5c-19.333 -19 -43.667 -28.499 -73 -28.499c-24 0 -43 6.66699 -57 20s-21 32.666 -21 57.999c0 34 9.83301 60.667 29.5 80s44.167 29 73.5 29c22.667 0 41.167 -7 55.5 -21s21.5 -33.667 21.5 -59c0 -33.333 -9.66699 -59.5 -29 -78.5zM430.499 832.001
c-9.66699 9.33301 -22.167 14 -37.5 14c-20.667 0 -37.667 -6.66699 -51 -20s-20 -33 -20 -59c0 -18 4.83301 -31.667 14.5 -41s22.5 -14 38.5 -14c20.667 0 37.5 6.66699 50.5 20s19.5 33 19.5 59c0 18 -4.83301 31.667 -14.5 41zM421.999 650.001l124 -650h-79l-40 200
h-255l-96 -200h-53l310 650h89zM190.999 241.001h228l-63 351z" />
    <glyph glyph-name="AE" unicode="&#xc6;" horiz-adv-x="789" 
d="M823 650l-6 -48h-276l-35 -250h252l-7 -46h-251l-36 -258h296l-7 -48h-372l28 205h-220l-144 -205h-57l462 650h373zM415 246l50 356h-4l-243 -356h197z" />
    <glyph glyph-name="Ccedilla" unicode="&#xc7;" horiz-adv-x="570" 
d="M561 570.5c-18 9.66699 -39.335 18.4961 -64.002 26.4961s-50 12 -76 12c-47.333 0 -90.166 -13.5 -128.499 -40.5s-68.833 -67 -91.5 -120s-34 -117.167 -34 -192.5c0 -69.333 17.167 -122.666 51.5 -159.999s80.5 -56 138.5 -56c35.333 0 66.833 7.16699 94.5 21.5
s49.667 30 66 47s24.5 26.5 24.5 28.5l23 -32c0 -3.33301 -9.33301 -14.833 -28 -34.5s-44.667 -38 -78 -55s-72.666 -25.5 -117.999 -25.5h-5l-15 -59c0 -0.666992 7.66699 -3 23 -7s29.5 -11.5 42.5 -22.5s19.5 -26.5 19.5 -46.5c0 -31.333 -10.167 -56.833 -30.5 -76.5
s-49.5 -29.5 -87.5 -29.5c-20 0 -36.333 3.16699 -49 9.5s-22 13 -28 20s-9 11.167 -9 12.5l20 20c0.666992 -1.33301 3.33398 -4.66602 8.00098 -9.99902s11.5 -10.333 20.5 -15s20.167 -7 33.5 -7c25.333 0 44.5 6.5 57.5 19.5s19.5 31.5 19.5 55.5
c0 17.333 -6.33301 29.333 -19 36s-25.334 11.167 -38.001 13.5s-19 3.83301 -19 4.5l22 84c-68.667 6.66699 -122.5 33.334 -161.5 80.001s-58.5 108.667 -58.5 186c0 78 14.167 147.333 42.5 208s67.833 108 118.5 142s108 51 172 51c30.667 0 59.5 -4.16699 86.5 -12.5
s49.667 -17.5 68 -27.5s27.5 -15.667 27.5 -17l-14 -47c0 0.666992 -9 5.83398 -27 15.501z" />
    <glyph glyph-name="Egrave" unicode="&#xc8;" horiz-adv-x="507" 
d="M342 859l63 -143l-42 -8l-85 135zM466 0h-372l91 650h350l-6 -48h-275l-35 -250h252l-7 -46h-251l-36 -258h296z" />
    <glyph glyph-name="Eacute" unicode="&#xc9;" horiz-adv-x="507" 
d="M496 841l-120 -135l-37 5l96 145zM466 0h-372l91 650h350l-6 -48h-275l-35 -250h252l-7 -46h-251l-36 -258h296z" />
    <glyph glyph-name="Ecircumflex" unicode="&#xca;" horiz-adv-x="507" 
d="M505 764l-23 -32l-96 97l-123 -97l-15 32l125 114h40zM466 0h-372l91 650h350l-6 -48h-275l-35 -250h252l-7 -46h-251l-36 -258h296z" />
    <glyph glyph-name="Edieresis" unicode="&#xcb;" horiz-adv-x="507" 
d="M296 819c10 0 18.333 -3.33398 25 -10.001c5.33301 -5.33301 8 -13 8 -23c0 -13.333 -5.33301 -25.333 -16 -36c-8.66699 -6.66699 -17.667 -10 -27 -10c-10 0 -18.333 3.33301 -25 10c-5.33301 6.66699 -8 14.334 -8 23.001c0 13.333 5.33301 25.333 16 36
c8.66699 6.66699 17.667 10 27 10zM450 818.999c10 0 18.333 -3.33301 25 -10c5.33301 -6.66699 8 -14.334 8 -23.001c0 -13.333 -5.33301 -25.333 -16 -36c-8.66699 -6.66699 -18 -10 -28 -10c-9.33301 0 -17.333 3.33301 -24 10c-5.33301 6.66699 -8 14.334 -8 23.001
c0 13.333 5.33301 25.333 16 36c8.66699 6.66699 17.667 10 27 10zM466 -0.000976562h-372l91 650h350l-6 -48h-275l-35 -250h252l-7 -46h-251l-36 -258h296z" />
    <glyph glyph-name="Igrave" unicode="&#xcc;" horiz-adv-x="265" 
d="M192 859l63 -143l-42 -8l-85 135zM170 0h-76l91 650h76z" />
    <glyph glyph-name="Iacute" unicode="&#xcd;" horiz-adv-x="265" 
d="M347 841l-120 -135l-37 5l96 145zM170 0h-76l91 650h76z" />
    <glyph glyph-name="Icircumflex" unicode="&#xce;" horiz-adv-x="265" 
d="M356 764l-23 -32l-96 97l-123 -97l-15 32l125 114h40zM170 0h-76l91 650h76z" />
    <glyph glyph-name="Idieresis" unicode="&#xcf;" horiz-adv-x="265" 
d="M158 819c10 0 18.333 -3.33398 25 -10.001c5.33301 -5.33301 8 -13 8 -23c0 -13.333 -5.33301 -25.333 -16 -36c-8.66699 -6.66699 -17.667 -10 -27 -10c-10 0 -18.333 3.33301 -25 10c-5.33301 6.66699 -8 14.334 -8 23.001c0 13.333 5.33301 25.333 16 36
c8.66699 6.66699 17.667 10 27 10zM312 818.999c10 0 18.333 -3.33301 25 -10c5.33301 -6.66699 8 -14.334 8 -23.001c0 -13.333 -5.33301 -25.333 -16 -36c-8.66699 -6.66699 -18 -10 -28 -10c-9.33301 0 -17.333 3.33301 -24 10c-5.33301 6.66699 -8 14.334 -8 23.001
c0 13.333 5.33301 25.333 16 36c8.66699 6.66699 17.667 10 27 10zM170 -0.000976562h-76l91 650h76z" />
    <glyph glyph-name="Eth" unicode="&#xd0;" horiz-adv-x="638" 
d="M67 302l7 42.001h68l43 306h198c81.333 0 144 -22.667 188 -68s66 -111 66 -197c0 -80 -13.667 -148.833 -41 -206.5s-66.833 -101.834 -118.5 -132.501s-113.5 -46 -185.5 -46h-198l42 302h-69zM218 344.001l189.001 -0.000976562l-6 -42h-189l-36 -254h124
c79.333 0 142 28.833 188 86.5s69 143.834 69 258.501c0 68.667 -15.333 120.667 -46 156s-75.334 53 -134.001 53h-123z" />
    <glyph glyph-name="Ntilde" unicode="&#xd1;" horiz-adv-x="651" 
d="M583 766c-8 -8.66699 -18.834 -16.8311 -32.501 -24.498s-29.5 -11.5 -47.5 -11.5c-13.333 0 -25.833 2 -37.5 6s-24.834 10 -39.501 18c-16 7.33301 -29 12.833 -39 16.5s-20.667 5.5 -32 5.5s-21.833 -2.83301 -31.5 -8.5s-17.334 -11.667 -23.001 -18
s-9.16699 -10.5 -10.5 -12.5l-20 25c0 1.33301 4.83301 7.5 14.5 18.5s22.334 21.167 38.001 30.5s33.167 14 52.5 14c14.667 0 28 -2.16699 40 -6.5s25.667 -10.5 41 -18.5c13.333 -6.66699 24.833 -11.834 34.5 -15.501s19.834 -5.5 30.501 -5.5s20 2 28 6
s14.333 8.16699 19 12.5s7.33398 7.16602 8.00098 8.49902l19 -25c0 -1.33301 -4 -6.33301 -12 -15zM556.999 0.00292969h-66l-268 554h-1l1 -31l-74 -523h-55l91 650h79l257 -536v24l72 512h55z" />
    <glyph glyph-name="Ograve" unicode="&#xd2;" horiz-adv-x="654" 
d="M387 859l63 -143l-42 -8l-85 135zM612.5 180c-29.667 -61.333 -69.3311 -108.333 -118.998 -141s-104.167 -49 -163.5 -49c-76 0 -135.333 24 -178 72s-64 114 -64 198c0 78.667 13.167 148.167 39.5 208.5s64.166 107.166 113.499 140.499s107 50 173 50
c81.333 0 142.166 -24.667 182.499 -74s60.5 -112.666 60.5 -189.999c0 -82 -14.833 -153.667 -44.5 -215zM535.503 553c-27.667 38.667 -69.499 57.999 -125.499 57.999c-48.667 0 -91.334 -13.833 -128.001 -41.5s-65 -68.667 -85 -123s-30 -120.166 -30 -197.499
c0 -66 14.667 -117.667 44 -155s70.333 -56 123 -56c44 0 84.5 13.5 121.5 40.5s66.5 68 88.5 123s33 122.167 33 201.5c0 61.333 -13.833 111.333 -41.5 150z" />
    <glyph glyph-name="Oacute" unicode="&#xd3;" horiz-adv-x="654" 
d="M541 841l-120 -135l-37 5l96 145zM612.5 180c-29.667 -61.333 -69.3311 -108.333 -118.998 -141s-104.167 -49 -163.5 -49c-76 0 -135.333 24 -178 72s-64 114 -64 198c0 78.667 13.167 148.167 39.5 208.5s64.166 107.166 113.499 140.499s107 50 173 50
c81.333 0 142.166 -24.667 182.499 -74s60.5 -112.666 60.5 -189.999c0 -82 -14.833 -153.667 -44.5 -215zM535.503 553c-27.667 38.667 -69.499 57.999 -125.499 57.999c-48.667 0 -91.334 -13.833 -128.001 -41.5s-65 -68.667 -85 -123s-30 -120.166 -30 -197.499
c0 -66 14.667 -117.667 44 -155s70.333 -56 123 -56c44 0 84.5 13.5 121.5 40.5s66.5 68 88.5 123s33 122.167 33 201.5c0 61.333 -13.833 111.333 -41.5 150z" />
    <glyph glyph-name="Ocircumflex" unicode="&#xd4;" horiz-adv-x="654" 
d="M551 764l-23 -32l-96 97l-123 -97l-15 32l125 114h40zM612.5 180c-29.667 -61.333 -69.3311 -108.333 -118.998 -141s-104.167 -49 -163.5 -49c-76 0 -135.333 24 -178 72s-64 114 -64 198c0 78.667 13.167 148.167 39.5 208.5s64.166 107.166 113.499 140.499
s107 50 173 50c81.333 0 142.166 -24.667 182.499 -74s60.5 -112.666 60.5 -189.999c0 -82 -14.833 -153.667 -44.5 -215zM535.503 553c-27.667 38.667 -69.499 57.999 -125.499 57.999c-48.667 0 -91.334 -13.833 -128.001 -41.5s-65 -68.667 -85 -123
s-30 -120.166 -30 -197.499c0 -66 14.667 -117.667 44 -155s70.333 -56 123 -56c44 0 84.5 13.5 121.5 40.5s66.5 68 88.5 123s33 122.167 33 201.5c0 61.333 -13.833 111.333 -41.5 150z" />
    <glyph glyph-name="Otilde" unicode="&#xd5;" horiz-adv-x="654" 
d="M578 766c-8 -8.66699 -18.834 -16.8311 -32.501 -24.498s-29.5 -11.5 -47.5 -11.5c-13.333 0 -25.833 2 -37.5 6s-24.834 10 -39.501 18c-16 7.33301 -29 12.833 -39 16.5s-20.667 5.5 -32 5.5s-21.833 -2.83301 -31.5 -8.5s-17.334 -11.667 -23.001 -18
s-9.16699 -10.5 -10.5 -12.5l-20 25c0 1.33301 4.83301 7.5 14.5 18.5s22.334 21.167 38.001 30.5s33.167 14 52.5 14c14.667 0 28 -2.16699 40 -6.5s25.667 -10.5 41 -18.5c13.333 -6.66699 24.833 -11.834 34.5 -15.501s19.834 -5.5 30.501 -5.5s20 2 28 6
s14.333 8.16699 19 12.5s7.33398 7.16602 8.00098 8.49902l19 -25c0 -1.33301 -4 -6.33301 -12 -15zM612.499 180.003c-29.667 -61.333 -69.3311 -108.333 -118.998 -141s-104.167 -49 -163.5 -49c-76 0 -135.333 24 -178 72s-64 114 -64 198
c0 78.667 13.167 148.167 39.5 208.5s64.166 107.166 113.499 140.499s107 50 173 50c81.333 0 142.166 -24.667 182.499 -74s60.5 -112.666 60.5 -189.999c0 -82 -14.833 -153.667 -44.5 -215zM535.502 553.003c-27.667 38.667 -69.499 57.999 -125.499 57.999
c-48.667 0 -91.334 -13.833 -128.001 -41.5s-65 -68.667 -85 -123s-30 -120.166 -30 -197.499c0 -66 14.667 -117.667 44 -155s70.333 -56 123 -56c44 0 84.5 13.5 121.5 40.5s66.5 68 88.5 123s33 122.167 33 201.5c0 61.333 -13.833 111.333 -41.5 150z" />
    <glyph glyph-name="Odieresis" unicode="&#xd6;" horiz-adv-x="654" 
d="M354 819c9.33301 0 17.333 -3.33398 24 -10.001c5.33301 -5.33301 8 -13 8 -23c0 -13.333 -5.33301 -25.333 -16 -36c-8.66699 -6.66699 -17.667 -10 -27 -10c-10 0 -18.333 3.33301 -25 10c-5.33301 6.66699 -8 14.334 -8 23.001c0 13.333 5.33301 25.333 16 36
c8.66699 6.66699 18 10 28 10zM507 818.999c10 0 18.333 -3.33301 25 -10c5.33301 -6.66699 8 -14.334 8 -23.001c0 -13.333 -5.33301 -25.333 -16 -36c-8.66699 -6.66699 -18 -10 -28 -10c-9.33301 0 -17.333 3.33301 -24 10c-5.33301 6.66699 -8 14.334 -8 23.001
c0 13.333 5.33301 25.333 16 36c8.66699 6.66699 17.667 10 27 10zM612.5 179.999c-29.667 -61.333 -69.3311 -108.333 -118.998 -141s-104.167 -49 -163.5 -49c-76 0 -135.333 24 -178 72s-64 114 -64 198c0 78.667 13.167 148.167 39.5 208.5
s64.166 107.166 113.499 140.499s107 50 173 50c81.333 0 142.166 -24.667 182.499 -74s60.5 -112.666 60.5 -189.999c0 -82 -14.833 -153.667 -44.5 -215zM535.503 552.999c-27.667 38.667 -69.499 57.999 -125.499 57.999c-48.667 0 -91.334 -13.833 -128.001 -41.5
s-65 -68.667 -85 -123s-30 -120.166 -30 -197.499c0 -66 14.667 -117.667 44 -155s70.333 -56 123 -56c44 0 84.5 13.5 121.5 40.5s66.5 68 88.5 123s33 122.167 33 201.5c0 61.333 -13.833 111.333 -41.5 150z" />
    <glyph glyph-name="multiply" unicode="&#xd7;" horiz-adv-x="353" 
d="M253 320l87 -122l-35 -37l-88 122l-122 -122l-27 37l122 122l-87 122l36 38l88 -123l123 123l25 -38z" />
    <glyph glyph-name="Oslash" unicode="&#xd8;" horiz-adv-x="654" 
d="M612.5 180c-29.667 -61.333 -69.333 -108.331 -119 -140.998s-104.167 -49 -163.5 -49c-38 0 -71.667 6 -101 18l-59 -109l-26 6l61 114c-37.333 20.667 -66.166 51.667 -86.499 93s-30.5 90.666 -30.5 147.999c0 78.667 13.167 148.167 39.5 208.5
s64.166 107.166 113.499 140.499s107 50 173 50c46 0 87 -9 123 -27l52 96l26 -6l-56 -103c32.667 -22.667 57.167 -53.5 73.5 -92.5s24.5 -82.833 24.5 -131.5c0 -82 -14.833 -153.667 -44.5 -215zM184.001 142.502c11.333 -30.333 27.668 -54.168 49.001 -71.501l276 509
c-27.333 20.667 -60.333 31 -99 31c-48.667 0 -91.334 -13.833 -128.001 -41.5s-65 -68.667 -85 -123s-30 -120.166 -30 -197.499c0 -40.667 5.66699 -76.167 17 -106.5zM528.003 562l-273 -506c22 -12 48.333 -18 79 -18c44 0 84.5 13.5 121.5 40.5s66.5 68 88.5 123
s33 122.167 33 201.5c0 68.667 -16.333 121.667 -49 159z" />
    <glyph glyph-name="Ugrave" unicode="&#xd9;" horiz-adv-x="620" 
d="M387 859l63 -143l-42 -8l-85 135zM161.5 37.5c-33 31.667 -49.5 75.5 -49.5 131.5c0 14 1 28.333 3 43l62 438h75l-59 -421c-2 -16 -3 -31 -3 -45c0 -46.667 11.333 -82.167 34 -106.5s56 -36.5 100 -36.5c52.667 0 95 16.5 127 49.5s52 79.167 60 138.5l59 421h55
l-62 -438c-9.33301 -68 -35.333 -122 -78 -162s-101.667 -60 -177 -60c-64.667 0 -113.5 15.833 -146.5 47.5z" />
    <glyph glyph-name="Uacute" unicode="&#xda;" horiz-adv-x="620" 
d="M522 841l-120 -135l-37 5l96 145zM161.5 37.5c-33 31.667 -49.5 75.5 -49.5 131.5c0 14 1 28.333 3 43l62 438h75l-59 -421c-2 -16 -3 -31 -3 -45c0 -46.667 11.333 -82.167 34 -106.5s56 -36.5 100 -36.5c52.667 0 95 16.5 127 49.5s52 79.167 60 138.5l59 421h55
l-62 -438c-9.33301 -68 -35.333 -122 -78 -162s-101.667 -60 -177 -60c-64.667 0 -113.5 15.833 -146.5 47.5z" />
    <glyph glyph-name="Ucircumflex" unicode="&#xdb;" horiz-adv-x="620" 
d="M544 764l-23 -32l-96 97l-123 -97l-15 32l125 114h40zM161.5 37.5c-33 31.667 -49.5 75.5 -49.5 131.5c0 14 1 28.333 3 43l62 438h75l-59 -421c-2 -16 -3 -31 -3 -45c0 -46.667 11.333 -82.167 34 -106.5s56 -36.5 100 -36.5c52.667 0 95 16.5 127 49.5
s52 79.167 60 138.5l59 421h55l-62 -438c-9.33301 -68 -35.333 -122 -78 -162s-101.667 -60 -177 -60c-64.667 0 -113.5 15.833 -146.5 47.5z" />
    <glyph glyph-name="Udieresis" unicode="&#xdc;" horiz-adv-x="620" 
d="M348 819c10 0 18.333 -3.33398 25 -10.001c5.33301 -5.33301 8 -13 8 -23c0 -13.333 -5.33301 -25.333 -16 -36c-8.66699 -6.66699 -17.667 -10 -27 -10c-10 0 -18.333 3.33301 -25 10c-5.33301 6.66699 -8 14.334 -8 23.001c0 13.333 5.33301 25.333 16 36
c8.66699 6.66699 17.667 10 27 10zM502 818.999c10 0 18.333 -3.33301 25 -10c5.33301 -6.66699 8 -14.334 8 -23.001c0 -13.333 -5.33301 -25.333 -16 -36c-8.66699 -6.66699 -18 -10 -28 -10c-9.33301 0 -17.333 3.33301 -24 10c-5.33301 6.66699 -8 14.334 -8 23.001
c0 13.333 5.33301 25.333 16 36c8.66699 6.66699 17.667 10 27 10zM161.5 37.499c-33 31.667 -49.5 75.5 -49.5 131.5c0 14 1 28.333 3 43l62 438h75l-59 -421c-2 -16 -3 -31 -3 -45c0 -46.667 11.333 -82.167 34 -106.5s56 -36.5 100 -36.5c52.667 0 95 16.5 127 49.5
s52 79.167 60 138.5l59 421h55l-62 -438c-9.33301 -68 -35.333 -122 -78 -162s-101.667 -60 -177 -60c-64.667 0 -113.5 15.833 -146.5 47.5z" />
    <glyph glyph-name="Yacute" unicode="&#xdd;" horiz-adv-x="507" 
d="M485 841l-120 -135l-37 5l96 145zM178 650l134 -320l223 320h61l-266 -377l-37 -273h-76l37 269l-161 381h85z" />
    <glyph glyph-name="Thorn" unicode="&#xde;" horiz-adv-x="514" 
d="M341 541c58.667 0 104 -14.332 136 -42.999s48 -71.334 48 -128.001c0 -60.667 -12 -110.5 -36 -149.5s-54.5 -67.333 -91.5 -85s-75.833 -26.5 -116.5 -26.5h-85l-15 -109h-75l91 650h75l-15 -109h84zM203 154.001l77.999 -0.000976562
c48.667 0 88.834 16.833 120.501 50.5s47.5 88.5 47.5 164.5c0 42.667 -10.167 74.334 -30.5 95.001s-49.833 31 -88.5 31h-80z" />
    <glyph glyph-name="germandbls" unicode="&#xdf;" horiz-adv-x="547" 
d="M238 706c36.667 35.333 84.002 52.999 142.002 52.999c46.667 0 83 -10.667 109 -32s39 -50.666 39 -87.999c0 -40.667 -11.5 -73.5 -34.5 -98.5s-51.167 -43.5 -84.5 -55.5c93.333 -22 140 -87 140 -195c0 -98 -20.5 -172.5 -61.5 -223.5s-98.167 -76.5 -171.5 -76.5
c-24.667 0 -44.834 2 -60.501 6s-27.167 8.16699 -34.5 12.5s-11 6.83301 -11 7.5l17 42c0.666992 -1.33301 3.66699 -3.66602 9 -6.99902s13.666 -6.66602 24.999 -9.99902s25.666 -5 42.999 -5c52 0 93.167 22 123.5 66s45.5 108.667 45.5 194
c0 54.667 -12.833 94.334 -38.5 119.001s-66.5 37 -122.5 37l2 8l4 40c0 -2 12.667 0.833008 38 8.5s48.166 21.5 68.499 41.5s30.5 48 30.5 84c0 25.333 -7.33301 45 -22 59s-35.667 21 -63 21c-36 0 -64.5 -13.667 -85.5 -41s-35.5 -69.333 -43.5 -126l-82 -588
c-20.667 -146 -78 -219 -172 -219c-16 0 -29.167 1.66699 -39.5 5s-18 6.66602 -23 9.99902s-7.83301 5.66602 -8.5 6.99902l21 41c0.666992 -0.666992 2.83398 -2.33398 6.50098 -5.00098s9 -5.16699 16 -7.5s15.167 -3.5 24.5 -3.5c26 0 47.333 13.333 64 40
s29.334 70.667 38.001 132l82 588c10 70.667 33.333 123.667 70 159z" />
    <glyph glyph-name="agrave" unicode="&#xe0;" 
d="M324 724l63 -143l-42 -8l-85 135zM383 0l-4 58.0029c-10 -15.333 -26.5 -30.5 -49.5 -45.5s-54.167 -22.5 -93.5 -22.5c-52 0 -93.333 17.667 -124 53s-46 84.666 -46 147.999c0 59.333 10 113.166 30 161.499s49 86.666 87 114.999s83.333 42.5 136 42.5
c36.667 0 64 -6.33301 82 -19s29.667 -24 35 -34l17 43h58l-70 -500h-58zM337.5 62.0029c20.333 15.333 35.1689 30.002 44.502 44.002l44 303c-1.33301 4 -5.33301 10 -12 18s-17.167 15.833 -31.5 23.5s-32.5 11.5 -54.5 11.5c-60.667 0 -106.834 -24.833 -138.501 -74.5
s-47.5 -116.834 -47.5 -201.501c0 -48.667 10.333 -85.334 31 -110.001s49.667 -37 87 -37c31.333 0 57.166 7.66699 77.499 23z" />
    <glyph glyph-name="aacute" unicode="&#xe1;" 
d="M479 706l-120 -135l-37 5l96 145zM383 0l-4 58.0029c-10 -15.333 -26.5 -30.5 -49.5 -45.5s-54.167 -22.5 -93.5 -22.5c-52 0 -93.333 17.667 -124 53s-46 84.666 -46 147.999c0 59.333 10 113.166 30 161.499s49 86.666 87 114.999s83.333 42.5 136 42.5
c36.667 0 64 -6.33301 82 -19s29.667 -24 35 -34l17 43h58l-70 -500h-58zM337.5 62.0029c20.333 15.333 35.1689 30.002 44.502 44.002l44 303c-1.33301 4 -5.33301 10 -12 18s-17.167 15.833 -31.5 23.5s-32.5 11.5 -54.5 11.5c-60.667 0 -106.834 -24.833 -138.501 -74.5
s-47.5 -116.834 -47.5 -201.501c0 -48.667 10.333 -85.334 31 -110.001s49.667 -37 87 -37c31.333 0 57.166 7.66699 77.499 23z" />
    <glyph glyph-name="acircumflex" unicode="&#xe2;" 
d="M489 629l-23 -32l-96 97l-123 -97l-15 32l125 114h40zM383 0l-4 58.0029c-10 -15.333 -26.5 -30.5 -49.5 -45.5s-54.167 -22.5 -93.5 -22.5c-52 0 -93.333 17.667 -124 53s-46 84.666 -46 147.999c0 59.333 10 113.166 30 161.499s49 86.666 87 114.999
s83.333 42.5 136 42.5c36.667 0 64 -6.33301 82 -19s29.667 -24 35 -34l17 43h58l-70 -500h-58zM337.5 62.0029c20.333 15.333 35.1689 30.002 44.502 44.002l44 303c-1.33301 4 -5.33301 10 -12 18s-17.167 15.833 -31.5 23.5s-32.5 11.5 -54.5 11.5
c-60.667 0 -106.834 -24.833 -138.501 -74.5s-47.5 -116.834 -47.5 -201.501c0 -48.667 10.333 -85.334 31 -110.001s49.667 -37 87 -37c31.333 0 57.166 7.66699 77.499 23z" />
    <glyph glyph-name="atilde" unicode="&#xe3;" 
d="M516 631c-8 -8.66699 -18.834 -16.8311 -32.501 -24.498s-29.5 -11.5 -47.5 -11.5c-13.333 0 -25.833 2 -37.5 6s-24.834 10 -39.501 18c-16 7.33301 -29 12.833 -39 16.5s-20.667 5.5 -32 5.5s-21.833 -2.83301 -31.5 -8.5s-17.334 -11.667 -23.001 -18
s-9.16699 -10.5 -10.5 -12.5l-20 25c0 1.33301 4.83301 7.5 14.5 18.5s22.334 21.167 38.001 30.5s33.167 14 52.5 14c14.667 0 28 -2.16699 40 -6.5s25.667 -10.5 41 -18.5c13.333 -6.66699 24.833 -11.834 34.5 -15.501s19.834 -5.5 30.501 -5.5s20 2 28 6
s14.333 8.16699 19 12.5s7.33398 7.16602 8.00098 8.49902l19 -25c0 -1.33301 -4 -6.33301 -12 -15zM382.999 0.00292969l-4 58.0029c-10 -15.333 -26.5 -30.5 -49.5 -45.5s-54.167 -22.5 -93.5 -22.5c-52 0 -93.333 17.667 -124 53s-46 84.666 -46 147.999
c0 59.333 10 113.166 30 161.499s49 86.666 87 114.999s83.333 42.5 136 42.5c36.667 0 64 -6.33301 82 -19s29.667 -24 35 -34l17 43h58l-70 -500h-58zM337.499 62.0059c20.333 15.333 35.1689 30.002 44.502 44.002l44 303c-1.33301 4 -5.33301 10 -12 18
s-17.167 15.833 -31.5 23.5s-32.5 11.5 -54.5 11.5c-60.667 0 -106.834 -24.833 -138.501 -74.5s-47.5 -116.834 -47.5 -201.501c0 -48.667 10.333 -85.334 31 -110.001s49.667 -37 87 -37c31.333 0 57.166 7.66699 77.499 23z" />
    <glyph glyph-name="adieresis" unicode="&#xe4;" 
d="M292 684c9.33301 0 17.333 -3.33398 24 -10.001c5.33301 -5.33301 8 -13 8 -23c0 -13.333 -5.33301 -25.333 -16 -36c-8.66699 -6.66699 -17.667 -10 -27 -10c-10 0 -18.333 3.33301 -25 10c-5.33301 6.66699 -8 14.334 -8 23.001c0 13.333 5.33301 25.333 16 36
c8.66699 6.66699 18 10 28 10zM445 683.999c10 0 18.333 -3.33301 25 -10c5.33301 -6.66699 8 -14.334 8 -23.001c0 -13.333 -5.33301 -25.333 -16 -36c-8.66699 -6.66699 -18 -10 -28 -10c-9.33301 0 -17.333 3.33301 -24 10c-5.33301 6.66699 -8 14.334 -8 23.001
c0 13.333 5.33301 25.333 16 36c8.66699 6.66699 17.667 10 27 10zM383 -0.000976562l-4 58.0029c-10 -15.333 -26.5 -30.5 -49.5 -45.5s-54.167 -22.5 -93.5 -22.5c-52 0 -93.333 17.667 -124 53s-46 84.666 -46 147.999c0 59.333 10 113.166 30 161.499
s49 86.666 87 114.999s83.333 42.5 136 42.5c36.667 0 64 -6.33301 82 -19s29.667 -24 35 -34l17 43h58l-70 -500h-58zM337.5 62.002c20.333 15.333 35.1689 30.002 44.502 44.002l44 303c-1.33301 4 -5.33301 10 -12 18s-17.167 15.833 -31.5 23.5s-32.5 11.5 -54.5 11.5
c-60.667 0 -106.834 -24.833 -138.501 -74.5s-47.5 -116.834 -47.5 -201.501c0 -48.667 10.333 -85.334 31 -110.001s49.667 -37 87 -37c31.333 0 57.166 7.66699 77.499 23z" />
    <glyph glyph-name="aring" unicode="&#xe5;" 
d="M424 579.5c-19.333 -19 -43.667 -28.499 -73 -28.499c-24 0 -43 6.66699 -57 20s-21 32.666 -21 57.999c0 34 9.83301 60.667 29.5 80s44.167 29 73.5 29c22.667 0 41.167 -7 55.5 -21s21.5 -33.667 21.5 -59c0 -33.333 -9.66699 -59.5 -29 -78.5zM410.499 697.001
c-9.66699 9.33301 -22.167 14 -37.5 14c-20.667 0 -37.667 -6.66699 -51 -20s-20 -33 -20 -59c0 -18 4.83301 -31.667 14.5 -41s22.5 -14 38.5 -14c20.667 0 37.5 6.66699 50.5 20s19.5 33 19.5 59c0 18 -4.83301 31.667 -14.5 41zM382.999 0.000976562l-4 58.0029
c-10 -15.333 -26.5 -30.5 -49.5 -45.5s-54.167 -22.5 -93.5 -22.5c-52 0 -93.333 17.667 -124 53s-46 84.666 -46 147.999c0 59.333 10 113.166 30 161.499s49 86.666 87 114.999s83.333 42.5 136 42.5c36.667 0 64 -6.33301 82 -19s29.667 -24 35 -34l17 43h58l-70 -500
h-58zM337.499 62.0039c20.333 15.333 35.1689 30.002 44.502 44.002l44 303c-1.33301 4 -5.33301 10 -12 18s-17.167 15.833 -31.5 23.5s-32.5 11.5 -54.5 11.5c-60.667 0 -106.834 -24.833 -138.501 -74.5s-47.5 -116.834 -47.5 -201.501
c0 -48.667 10.333 -85.334 31 -110.001s49.667 -37 87 -37c31.333 0 57.166 7.66699 77.499 23z" />
    <glyph glyph-name="ae" unicode="&#xe6;" horiz-adv-x="742" 
d="M700.5 45.5c-13.667 -13.667 -32.999 -26.335 -57.999 -38.002s-55.5 -17.5 -91.5 -17.5c-34.667 0 -66 6.33301 -94 19s-50.667 31.334 -68 56.001c-8.66699 -14.667 -24.334 -30.834 -47.001 -48.501s-55.334 -26.5 -98.001 -26.5c-56 0 -99.667 17.5 -131 52.5
s-47 84.5 -47 148.5c0 60 10.167 114.167 30.5 162.5s50.333 86.5 90 114.5s87.5 42 143.5 42c38 0 66.333 -6.66699 85 -20s31.334 -25.666 38.001 -36.999c42 38 92.667 57 152 57c46.667 0 83.5 -12.667 110.5 -38s40.5 -56.666 40.5 -93.999
c0 -62 -27.167 -102.833 -81.5 -122.5s-120.5 -29.5 -198.5 -29.5h-45c-0.666992 -9.33301 -1 -23.666 -1 -42.999c0 -50 12.167 -87.333 36.5 -112s56.833 -37 97.5 -37c26.667 0 49.667 4.33301 69 13s34.5 18.167 45.5 28.5s16.5 16.166 16.5 17.499l26 -24
c0 -2 -6.83301 -9.83301 -20.5 -23.5zM490.001 413.499c-28 -35.667 -46.332 -85.5 -54.999 -149.5h43c61.333 0 112.166 7.66699 152.499 23s60.5 47 60.5 95c0 24.667 -8.33301 45 -25 61s-40 24 -70 24c-42.667 0 -78 -17.833 -106 -53.5zM330.002 55.499
c18.667 11 33.334 23.502 44.001 37.502c-12.667 26 -19 59 -19 99c0 46 5.66699 88.167 17 126.5s27.666 71.5 48.999 99.5c-8 11.333 -19.5 21.5 -34.5 30.5s-34.5 13.5 -58.5 13.5c-60.667 0 -106.834 -24.833 -138.501 -74.5s-47.5 -116.834 -47.5 -201.501
c0 -48.667 10.5 -85.334 31.5 -110.001s50.5 -37 88.5 -37c26.667 0 49.334 5.5 68.001 16.5z" />
    <glyph glyph-name="ccedilla" unicode="&#xe7;" horiz-adv-x="423" 
d="M430 434.5c-12 7.66699 -26.6689 14.832 -44.002 21.499s-35.666 10 -54.999 10c-124.667 0 -187 -93.667 -187 -281c0 -51.333 11.833 -89.333 35.5 -114s55.167 -37 94.5 -37c26 0 48 4.33301 66 13s32 18 42 28s15 15.667 15 17l29 -21
c0 -2.66699 -6.16699 -10.834 -18.5 -24.501s-30.666 -26.5 -54.999 -38.5s-54.5 -18 -90.5 -18h-3l-15 -59c0 -0.666992 7.66699 -3 23 -7s29.5 -11.5 42.5 -22.5s19.5 -26.5 19.5 -46.5c0 -31.333 -10.167 -56.833 -30.5 -76.5s-49.5 -29.5 -87.5 -29.5
c-20 0 -36.333 3.16699 -49 9.5s-22 13 -28 20s-9 11.167 -9 12.5l20 20c0.666992 -1.33301 3.33398 -4.66602 8.00098 -9.99902s11.5 -10.333 20.5 -15s20.167 -7 33.5 -7c25.333 0 44.5 6.5 57.5 19.5s19.5 31.5 19.5 55.5c0 17.333 -6.33301 29.333 -19 36
s-25.334 11.167 -38.001 13.5s-19 3.83301 -19 4.5l22 84c-51.333 5.33301 -91.333 25.333 -120 60s-43 82 -43 142c0 97.333 22 174.333 66 231s108 85 192 85c24 0 46 -3.5 66 -10.5s36.667 -14.667 50 -23s20 -12.833 20 -13.5l-13 -41c0 0.666992 -6 4.83398 -18 12.501
z" />
    <glyph glyph-name="egrave" unicode="&#xe8;" horiz-adv-x="453" 
d="M294 724l63 -143l-42 -8l-85 135zM411.5 45.5c-13.667 -13.667 -33 -26.333 -58 -38s-55.5 -17.5 -91.5 -17.5c-58.667 0 -106 17.333 -142 52s-54 84.667 -54 150c0 62.667 10.5 118.167 31.5 166.5s50.333 85.666 88 111.999s81.167 39.5 130.5 39.5
c46.667 0 83.5 -12.667 110.5 -38s40.5 -56.666 40.5 -93.999c0 -62 -27.167 -102.833 -81.5 -122.5s-120.5 -29.5 -198.5 -29.5h-45c-0.666992 -9.33301 -1 -23.666 -1 -42.999c0 -50 12.167 -87.333 36.5 -112s56.833 -37 97.5 -37c26.667 0 49.667 4.33301 69 13
s34.5 18.167 45.5 28.5s16.5 16.166 16.5 17.499l26 -24c0 -2 -6.83301 -9.83301 -20.5 -23.5zM201 413.501c-28 -35.667 -46.332 -85.5 -54.999 -149.5h43c61.333 0 112.166 7.66699 152.499 23s60.5 47 60.5 95c0 24.667 -8.33301 45 -25 61s-40 24 -70 24
c-42.667 0 -78 -17.833 -106 -53.5z" />
    <glyph glyph-name="eacute" unicode="&#xe9;" horiz-adv-x="453" 
d="M449 706l-120 -135l-37 5l96 145zM411.5 45.5c-13.667 -13.667 -33 -26.333 -58 -38s-55.5 -17.5 -91.5 -17.5c-58.667 0 -106 17.333 -142 52s-54 84.667 -54 150c0 62.667 10.5 118.167 31.5 166.5s50.333 85.666 88 111.999s81.167 39.5 130.5 39.5
c46.667 0 83.5 -12.667 110.5 -38s40.5 -56.666 40.5 -93.999c0 -62 -27.167 -102.833 -81.5 -122.5s-120.5 -29.5 -198.5 -29.5h-45c-0.666992 -9.33301 -1 -23.666 -1 -42.999c0 -50 12.167 -87.333 36.5 -112s56.833 -37 97.5 -37c26.667 0 49.667 4.33301 69 13
s34.5 18.167 45.5 28.5s16.5 16.166 16.5 17.499l26 -24c0 -2 -6.83301 -9.83301 -20.5 -23.5zM201 413.501c-28 -35.667 -46.332 -85.5 -54.999 -149.5h43c61.333 0 112.166 7.66699 152.499 23s60.5 47 60.5 95c0 24.667 -8.33301 45 -25 61s-40 24 -70 24
c-42.667 0 -78 -17.833 -106 -53.5z" />
    <glyph glyph-name="ecircumflex" unicode="&#xea;" horiz-adv-x="453" 
d="M459 629l-23 -32l-96 97l-123 -97l-15 32l125 114h40zM411.5 45.5c-13.667 -13.667 -33 -26.333 -58 -38s-55.5 -17.5 -91.5 -17.5c-58.667 0 -106 17.333 -142 52s-54 84.667 -54 150c0 62.667 10.5 118.167 31.5 166.5s50.333 85.666 88 111.999
s81.167 39.5 130.5 39.5c46.667 0 83.5 -12.667 110.5 -38s40.5 -56.666 40.5 -93.999c0 -62 -27.167 -102.833 -81.5 -122.5s-120.5 -29.5 -198.5 -29.5h-45c-0.666992 -9.33301 -1 -23.666 -1 -42.999c0 -50 12.167 -87.333 36.5 -112s56.833 -37 97.5 -37
c26.667 0 49.667 4.33301 69 13s34.5 18.167 45.5 28.5s16.5 16.166 16.5 17.499l26 -24c0 -2 -6.83301 -9.83301 -20.5 -23.5zM201 413.501c-28 -35.667 -46.332 -85.5 -54.999 -149.5h43c61.333 0 112.166 7.66699 152.499 23s60.5 47 60.5 95
c0 24.667 -8.33301 45 -25 61s-40 24 -70 24c-42.667 0 -78 -17.833 -106 -53.5z" />
    <glyph glyph-name="edieresis" unicode="&#xeb;" horiz-adv-x="453" 
d="M260 684c10 0 18.333 -3.33398 25 -10.001c5.33301 -5.33301 8 -13 8 -23c0 -13.333 -5.33301 -25.333 -16 -36c-8.66699 -6.66699 -17.667 -10 -27 -10c-10 0 -18.333 3.33301 -25 10c-5.33301 6.66699 -8 14.334 -8 23.001c0 13.333 5.33301 25.333 16 36
c8.66699 6.66699 17.667 10 27 10zM414 683.999c10 0 18.333 -3.33301 25 -10c5.33301 -6.66699 8 -14.334 8 -23.001c0 -13.333 -5.33301 -25.333 -16 -36c-8.66699 -6.66699 -18 -10 -28 -10c-9.33301 0 -17.333 3.33301 -24 10c-5.33301 6.66699 -8 14.334 -8 23.001
c0 13.333 5.33301 25.333 16 36c8.66699 6.66699 17.667 10 27 10zM411.5 45.499c-13.667 -13.667 -33 -26.333 -58 -38s-55.5 -17.5 -91.5 -17.5c-58.667 0 -106 17.333 -142 52s-54 84.667 -54 150c0 62.667 10.5 118.167 31.5 166.5s50.333 85.666 88 111.999
s81.167 39.5 130.5 39.5c46.667 0 83.5 -12.667 110.5 -38s40.5 -56.666 40.5 -93.999c0 -62 -27.167 -102.833 -81.5 -122.5s-120.5 -29.5 -198.5 -29.5h-45c-0.666992 -9.33301 -1 -23.666 -1 -42.999c0 -50 12.167 -87.333 36.5 -112s56.833 -37 97.5 -37
c26.667 0 49.667 4.33301 69 13s34.5 18.167 45.5 28.5s16.5 16.166 16.5 17.499l26 -24c0 -2 -6.83301 -9.83301 -20.5 -23.5zM201 413.5c-28 -35.667 -46.332 -85.5 -54.999 -149.5h43c61.333 0 112.166 7.66699 152.499 23s60.5 47 60.5 95c0 24.667 -8.33301 45 -25 61
s-40 24 -70 24c-42.667 0 -78 -17.833 -106 -53.5z" />
    <glyph glyph-name="igrave" unicode="&#xec;" horiz-adv-x="221" 
d="M160 724l63 -143l-42 -8l-85 135zM146 0h-72l70 500h72z" />
    <glyph glyph-name="iacute" unicode="&#xed;" horiz-adv-x="221" 
d="M315 706l-120 -135l-37 5l96 145zM146 0h-72l70 500h72z" />
    <glyph glyph-name="icircumflex" unicode="&#xee;" horiz-adv-x="221" 
d="M327 629l-23 -32l-96 97l-123 -97l-15 32l125 114h40zM146 0h-72l70 500h72z" />
    <glyph glyph-name="idieresis" unicode="&#xef;" horiz-adv-x="221" 
d="M128 684c10 0 18.333 -3.33398 25 -10.001c5.33301 -5.33301 8 -13 8 -23c0 -13.333 -5.33301 -25.333 -16 -36c-8.66699 -6.66699 -17.667 -10 -27 -10c-10 0 -18.333 3.33301 -25 10c-5.33301 6.66699 -8 14.334 -8 23.001c0 13.333 5.33301 25.333 16 36
c8.66699 6.66699 17.667 10 27 10zM282 683.999c10 0 18.333 -3.33301 25 -10c5.33301 -6.66699 8 -14.334 8 -23.001c0 -13.333 -5.33301 -25.333 -16 -36c-8.66699 -6.66699 -18 -10 -28 -10c-9.33301 0 -17.333 3.33301 -24 10c-5.33301 6.66699 -8 14.334 -8 23.001
c0 13.333 5.33301 25.333 16 36c8.66699 6.66699 17.667 10 27 10zM146 -0.000976562h-72l70 500h72z" />
    <glyph glyph-name="eth" unicode="&#xf0;" horiz-adv-x="508" 
d="M98.5 365c20.333 47.333 49.001 83.332 86.001 107.999s80.5 37 130.5 37c46 0 84.333 -15.333 115 -46c-10.667 75.333 -38.334 138 -83.001 188l-122 -64l-9 26l111 59c-16.667 16 -34.667 31 -54 45l41 22c22.667 -14 42.667 -28.333 60 -43l86 46l9 -26l-74 -39
c35.333 -36 62.333 -81.167 81 -135.5s28 -121.5 28 -201.5c0 -21.333 -0.333008 -37.666 -1 -48.999c-5.33301 -94 -30 -167.833 -74 -221.5s-104 -80.5 -180 -80.5c-60 0 -105.167 18.5 -135.5 55.5s-45.5 86.5 -45.5 148.5c0 66.667 10.167 123.667 30.5 171z
M187.001 393.999c-29.333 -48.667 -44.002 -118.999 -44.002 -210.999c0 -48.667 9.33301 -85.834 28 -111.501s47 -38.5 85 -38.5c55.333 0 97.833 24 127.5 72s44.5 117 44.5 207c0 47.333 -9.66699 85 -29 113s-47.666 42 -84.999 42
c-55.333 0 -97.666 -24.333 -126.999 -73z" />
    <glyph glyph-name="ntilde" unicode="&#xf1;" horiz-adv-x="511" 
d="M486 631c-8 -8.66699 -18.834 -16.8311 -32.501 -24.498s-29.5 -11.5 -47.5 -11.5c-13.333 0 -25.833 2 -37.5 6s-24.834 10 -39.501 18c-16 7.33301 -29 12.833 -39 16.5s-20.667 5.5 -32 5.5s-21.833 -2.83301 -31.5 -8.5s-17.334 -11.667 -23.001 -18
s-9.16699 -10.5 -10.5 -12.5l-20 25c0 1.33301 4.83301 7.5 14.5 18.5s22.334 21.167 38.001 30.5s33.167 14 52.5 14c14.667 0 28 -2.16699 40 -6.5s25.667 -10.5 41 -18.5c13.333 -6.66699 24.833 -11.834 34.5 -15.501s19.834 -5.5 30.501 -5.5s20 2 28 6
s14.333 8.16699 19 12.5s7.33398 7.16602 8.00098 8.49902l19 -25c0 -1.33301 -4 -6.33301 -12 -15zM203.999 500.003l4 -46.001c37.333 37.333 88.333 56 153 56c42.667 0 75.5 -10.333 98.5 -31s34.5 -51.667 34.5 -93c0 -11.333 -1 -23.666 -3 -36.999l-48 -349h-73
l48 340c1.33301 7.33301 2 17.333 2 30c0 58 -30.333 87 -91 87c-33.333 0 -60 -5.83301 -80 -17.5s-35 -22.5 -45 -32.5l-57 -407h-73l70 500h60z" />
    <glyph glyph-name="ograve" unicode="&#xf2;" horiz-adv-x="501" 
d="M296 724l63 -143l-42 -8l-85 135zM472.5 139c-20.333 -47.333 -49.666 -84 -87.999 -110s-83.833 -39 -136.5 -39c-58 0 -102.667 18 -134 54s-47 86.667 -47 152c0 95.333 22.167 171.5 66.5 228.5s107.166 85.5 188.499 85.5c58 0 102.667 -18 134 -54
s47 -86.667 47 -152c0 -62.667 -10.167 -117.667 -30.5 -165zM186 392c-29.333 -49.333 -43.999 -119.333 -43.999 -210c0 -46.667 9.5 -83 28.5 -109s47.833 -39 86.5 -39c55.333 0 97.666 24.5 126.999 73.5s44 118.833 44 209.5c0 47.333 -9.5 84 -28.5 110
s-47.5 39 -85.5 39c-56 0 -98.667 -24.667 -128 -74z" />
    <glyph glyph-name="oacute" unicode="&#xf3;" horiz-adv-x="501" 
d="M451 706l-120 -135l-37 5l96 145zM472.5 139c-20.333 -47.333 -49.666 -84 -87.999 -110s-83.833 -39 -136.5 -39c-58 0 -102.667 18 -134 54s-47 86.667 -47 152c0 95.333 22.167 171.5 66.5 228.5s107.166 85.5 188.499 85.5c58 0 102.667 -18 134 -54
s47 -86.667 47 -152c0 -62.667 -10.167 -117.667 -30.5 -165zM186 392c-29.333 -49.333 -43.999 -119.333 -43.999 -210c0 -46.667 9.5 -83 28.5 -109s47.833 -39 86.5 -39c55.333 0 97.666 24.5 126.999 73.5s44 118.833 44 209.5c0 47.333 -9.5 84 -28.5 110
s-47.5 39 -85.5 39c-56 0 -98.667 -24.667 -128 -74z" />
    <glyph glyph-name="ocircumflex" unicode="&#xf4;" horiz-adv-x="501" 
d="M461 629l-23 -32l-96 97l-123 -97l-15 32l125 114h40zM472.5 139c-20.333 -47.333 -49.666 -84 -87.999 -110s-83.833 -39 -136.5 -39c-58 0 -102.667 18 -134 54s-47 86.667 -47 152c0 95.333 22.167 171.5 66.5 228.5s107.166 85.5 188.499 85.5
c58 0 102.667 -18 134 -54s47 -86.667 47 -152c0 -62.667 -10.167 -117.667 -30.5 -165zM186 392c-29.333 -49.333 -43.999 -119.333 -43.999 -210c0 -46.667 9.5 -83 28.5 -109s47.833 -39 86.5 -39c55.333 0 97.666 24.5 126.999 73.5s44 118.833 44 209.5
c0 47.333 -9.5 84 -28.5 110s-47.5 39 -85.5 39c-56 0 -98.667 -24.667 -128 -74z" />
    <glyph glyph-name="otilde" unicode="&#xf5;" horiz-adv-x="501" 
d="M488 631c-8 -8.66699 -18.834 -16.8311 -32.501 -24.498s-29.5 -11.5 -47.5 -11.5c-13.333 0 -25.833 2 -37.5 6s-24.834 10 -39.501 18c-16 7.33301 -29 12.833 -39 16.5s-20.667 5.5 -32 5.5s-21.833 -2.83301 -31.5 -8.5s-17.334 -11.667 -23.001 -18
s-9.16699 -10.5 -10.5 -12.5l-20 25c0 1.33301 4.83301 7.5 14.5 18.5s22.334 21.167 38.001 30.5s33.167 14 52.5 14c14.667 0 28 -2.16699 40 -6.5s25.667 -10.5 41 -18.5c13.333 -6.66699 24.833 -11.834 34.5 -15.501s19.834 -5.5 30.501 -5.5s20 2 28 6
s14.333 8.16699 19 12.5s7.33398 7.16602 8.00098 8.49902l19 -25c0 -1.33301 -4 -6.33301 -12 -15zM472.499 139.003c-20.333 -47.333 -49.666 -84 -87.999 -110s-83.833 -39 -136.5 -39c-58 0 -102.667 18 -134 54s-47 86.667 -47 152c0 95.333 22.167 171.5 66.5 228.5
s107.166 85.5 188.499 85.5c58 0 102.667 -18 134 -54s47 -86.667 47 -152c0 -62.667 -10.167 -117.667 -30.5 -165zM185.999 392.003c-29.333 -49.333 -43.999 -119.333 -43.999 -210c0 -46.667 9.5 -83 28.5 -109s47.833 -39 86.5 -39c55.333 0 97.666 24.5 126.999 73.5
s44 118.833 44 209.5c0 47.333 -9.5 84 -28.5 110s-47.5 39 -85.5 39c-56 0 -98.667 -24.667 -128 -74z" />
    <glyph glyph-name="odieresis" unicode="&#xf6;" horiz-adv-x="501" 
d="M262 684c10 0 18.333 -3.33398 25 -10.001c5.33301 -5.33301 8 -13 8 -23c0 -13.333 -5.33301 -25.333 -16 -36c-8.66699 -6.66699 -17.667 -10 -27 -10c-10 0 -18.333 3.33301 -25 10c-5.33301 6.66699 -8 14.334 -8 23.001c0 13.333 5.33301 25.333 16 36
c8.66699 6.66699 17.667 10 27 10zM416 683.999c10 0 18.333 -3.33301 25 -10c5.33301 -6.66699 8 -14.334 8 -23.001c0 -13.333 -5.33301 -25.333 -16 -36c-8.66699 -6.66699 -18 -10 -28 -10c-9.33301 0 -17.333 3.33301 -24 10c-5.33301 6.66699 -8 14.334 -8 23.001
c0 13.333 5.33301 25.333 16 36c8.66699 6.66699 17.667 10 27 10zM472.5 138.999c-20.333 -47.333 -49.666 -84 -87.999 -110s-83.833 -39 -136.5 -39c-58 0 -102.667 18 -134 54s-47 86.667 -47 152c0 95.333 22.167 171.5 66.5 228.5s107.166 85.5 188.499 85.5
c58 0 102.667 -18 134 -54s47 -86.667 47 -152c0 -62.667 -10.167 -117.667 -30.5 -165zM186 391.999c-29.333 -49.333 -43.999 -119.333 -43.999 -210c0 -46.667 9.5 -83 28.5 -109s47.833 -39 86.5 -39c55.333 0 97.666 24.5 126.999 73.5s44 118.833 44 209.5
c0 47.333 -9.5 84 -28.5 110s-47.5 39 -85.5 39c-56 0 -98.667 -24.667 -128 -74z" />
    <glyph glyph-name="divide" unicode="&#xf7;" horiz-adv-x="469" 
d="M303 487c12.667 0 23 -4 31 -12c6 -6.66699 9 -15.667 9 -27c0 -16 -6 -29.667 -18 -41c-10.667 -8 -22 -12 -34 -12c-13.333 0 -23.333 4 -30 12s-10 17 -10 27c0 16 6.33301 29.667 19 41c10 8 21 12 33 12zM468 230h-401l7 47h401zM248 112c12.667 0 23 -4 31 -12
c6 -6.66699 9 -15.667 9 -27c0 -16 -6 -29.667 -18 -41c-10.667 -8 -22 -12 -34 -12c-12.667 0 -22.667 4 -30 12c-6.66699 8 -10 17 -10 27c0 16 6.33301 29.667 19 41c10 8 21 12 33 12z" />
    <glyph glyph-name="oslash" unicode="&#xf8;" horiz-adv-x="510" 
d="M472.5 139c-20.333 -47.333 -49.666 -83.999 -87.999 -109.999s-83.833 -39 -136.5 -39c-23.333 0 -46 3.33301 -68 10l-94 -179l-35 6l98 187c-26.667 16 -47 39.5 -61 70.5s-21 68.167 -21 111.5c0 95.333 22.167 171.5 66.5 228.5s107.166 85.5 188.499 85.5
c30 0 56.667 -5 80 -15l82 155l37 -6l-88 -167c22.667 -16.667 40 -39.834 52 -69.501s18 -64.167 18 -103.5c0 -62.667 -10.167 -117.667 -30.5 -165zM186 392.001c-29.333 -49.333 -44 -119.332 -44 -209.999c0 -52.667 11.333 -91.334 34 -116.001l201 382
c-18.667 12 -39.667 18 -63 18c-56 0 -98.667 -24.667 -128 -74zM403 421.002l-198.999 -376.001c16 -7.33301 33.667 -11 53 -11c55.333 0 97.666 24.5 126.999 73.5s44 118.833 44 209.5c0 44.667 -8.33301 79.334 -25 104.001z" />
    <glyph glyph-name="ugrave" unicode="&#xf9;" horiz-adv-x="510" 
d="M304 724l63 -143l-42 -8l-85 135zM376 0l-3 48c-38.667 -38.667 -89.667 -58 -153 -58c-42.667 0 -75.667 10.667 -99 32s-35 52.666 -35 93.999c0 11.333 1 23 3 35l49 349h72l-46 -334c-2 -12 -3 -23 -3 -33c0 -60 29.667 -90 89 -90c24 0 45.333 3.83301 64 11.5
s33.667 15.834 45 24.501s17 13.667 17 15l58 406h73l-71 -500h-60z" />
    <glyph glyph-name="uacute" unicode="&#xfa;" horiz-adv-x="510" 
d="M459 706l-120 -135l-37 5l96 145zM376 0l-3 48c-38.667 -38.667 -89.667 -58 -153 -58c-42.667 0 -75.667 10.667 -99 32s-35 52.666 -35 93.999c0 11.333 1 23 3 35l49 349h72l-46 -334c-2 -12 -3 -23 -3 -33c0 -60 29.667 -90 89 -90c24 0 45.333 3.83301 64 11.5
s33.667 15.834 45 24.501s17 13.667 17 15l58 406h73l-71 -500h-60z" />
    <glyph glyph-name="ucircumflex" unicode="&#xfb;" horiz-adv-x="510" 
d="M469 629l-23 -32l-96 97l-123 -97l-15 32l125 114h40zM376 0l-3 48c-38.667 -38.667 -89.667 -58 -153 -58c-42.667 0 -75.667 10.667 -99 32s-35 52.666 -35 93.999c0 11.333 1 23 3 35l49 349h72l-46 -334c-2 -12 -3 -23 -3 -33c0 -60 29.667 -90 89 -90
c24 0 45.333 3.83301 64 11.5s33.667 15.834 45 24.501s17 13.667 17 15l58 406h73l-71 -500h-60z" />
    <glyph glyph-name="udieresis" unicode="&#xfc;" horiz-adv-x="510" 
d="M270 684c10 0 18.333 -3.33398 25 -10.001c5.33301 -5.33301 8 -13 8 -23c0 -13.333 -5.33301 -25.333 -16 -36c-8.66699 -6.66699 -17.667 -10 -27 -10c-10 0 -18.333 3.33301 -25 10c-5.33301 6.66699 -8 14.334 -8 23.001c0 13.333 5.33301 25.333 16 36
c8.66699 6.66699 17.667 10 27 10zM424 683.999c10 0 18.333 -3.33301 25 -10c5.33301 -6.66699 8 -14.334 8 -23.001c0 -13.333 -5.33301 -25.333 -16 -36c-8.66699 -6.66699 -18 -10 -28 -10c-9.33301 0 -17.333 3.33301 -24 10c-5.33301 6.66699 -8 14.334 -8 23.001
c0 13.333 5.33301 25.333 16 36c8.66699 6.66699 17.667 10 27 10zM376 -0.000976562l-3 48c-38.667 -38.667 -89.667 -58 -153 -58c-42.667 0 -75.667 10.667 -99 32s-35 52.666 -35 93.999c0 11.333 1 23 3 35l49 349h72l-46 -334c-2 -12 -3 -23 -3 -33
c0 -60 29.667 -90 89 -90c24 0 45.333 3.83301 64 11.5s33.667 15.834 45 24.501s17 13.667 17 15l58 406h73l-71 -500h-60z" />
    <glyph glyph-name="yacute" unicode="&#xfd;" horiz-adv-x="452" 
d="M444 706l-120 -135l-37 5l96 145zM11 -206.5c7.33301 -2.33301 15.668 -3.50098 25.001 -3.50098c30.667 0 58.5 16.333 83.5 49s55.167 84 90.5 154l-124 507h86l89 -417l194 417h52l-244 -507c-38.667 -80.667 -75.334 -143 -110.001 -187s-72 -66 -112 -66
c-12 0 -22.333 1 -31 3s-15.167 4 -19.5 6s-6.83301 3.33301 -7.5 4l14 46c2 -1.33301 6.66699 -3.16602 14 -5.49902z" />
    <glyph glyph-name="thorn" unicode="&#xfe;" horiz-adv-x="514" 
d="M251 752l-43.998 -311h2c0 2 5.66699 8.83301 17 20.5s27.5 22.667 48.5 33s46.5 15.5 76.5 15.5c51.333 0 92.166 -17.667 122.499 -53s45.5 -84.333 45.5 -147c0 -59.333 -9.66699 -113.333 -29 -162s-47.833 -87.167 -85.5 -115.5s-82.834 -42.5 -135.501 -42.5
c-30.667 0 -55.667 4.5 -75 13.5s-34 18.833 -44 29.5l-40 -283l-73 -2l141 1000zM157.002 82c6 -9.33301 16.665 -19 31.998 -29s38 -15 68 -15c60.667 0 106.834 24.667 138.501 74s47.5 118 47.5 206c0 46.667 -10.333 82.167 -31 106.5s-50 36.5 -88 36.5
c-24.667 0 -46.167 -5.33301 -64.5 -16s-32.666 -22 -42.999 -34s-15.5 -19 -15.5 -21h-1z" />
    <glyph glyph-name="ydieresis" unicode="&#xff;" horiz-adv-x="452" 
d="M256 684c9.33301 0 17.333 -3.33398 24 -10.001c5.33301 -5.33301 8 -13 8 -23c0 -13.333 -5.33301 -25.333 -16 -36c-8.66699 -6.66699 -17.667 -10 -27 -10c-10 0 -18.333 3.33301 -25 10c-5.33301 6.66699 -8 14.334 -8 23.001c0 13.333 5.33301 25.333 16 36
c8.66699 6.66699 18 10 28 10zM409 683.999c10 0 18.333 -3.33301 25 -10c5.33301 -6.66699 8 -14.334 8 -23.001c0 -13.333 -5.33301 -25.333 -16 -36c-8.66699 -6.66699 -18 -10 -28 -10c-9.33301 0 -17.333 3.33301 -24 10c-5.33301 6.66699 -8 14.334 -8 23.001
c0 13.333 5.33301 25.333 16 36c8.66699 6.66699 17.667 10 27 10zM11 -206.501c7.33301 -2.33301 15.668 -3.50098 25.001 -3.50098c30.667 0 58.5 16.333 83.5 49s55.167 84 90.5 154l-124 507h86l89 -417l194 417h52l-244 -507
c-38.667 -80.667 -75.334 -143 -110.001 -187s-72 -66 -112 -66c-12 0 -22.333 1 -31 3s-15.167 4 -19.5 6s-6.83301 3.33301 -7.5 4l14 46c2 -1.33301 6.66699 -3.16602 14 -5.49902z" />
    <glyph glyph-name="Amacron" unicode="&#x100;" horiz-adv-x="568" 
d="M478 771h-185l5 36h185zM422 650l124 -650h-79l-40 200h-255l-96 -200h-53l310 650h89zM191 241h228l-63 351z" />
    <glyph glyph-name="amacron" unicode="&#x101;" 
d="M456 636h-185l5 36h185zM383 0l-4 58.0029c-10 -15.333 -26.5 -30.5 -49.5 -45.5s-54.167 -22.5 -93.5 -22.5c-52 0 -93.333 17.667 -124 53s-46 84.666 -46 147.999c0 59.333 10 113.166 30 161.499s49 86.666 87 114.999s83.333 42.5 136 42.5
c36.667 0 64 -6.33301 82 -19s29.667 -24 35 -34l17 43h58l-70 -500h-58zM337.5 62.0029c20.333 15.333 35.1689 30.002 44.502 44.002l44 303c-1.33301 4 -5.33301 10 -12 18s-17.167 15.833 -31.5 23.5s-32.5 11.5 -54.5 11.5c-60.667 0 -106.834 -24.833 -138.501 -74.5
s-47.5 -116.834 -47.5 -201.501c0 -48.667 10.333 -85.334 31 -110.001s49.667 -37 87 -37c31.333 0 57.166 7.66699 77.499 23z" />
    <glyph glyph-name="Abreve" unicode="&#x102;" horiz-adv-x="568" 
d="M442.5 768c15 8.66699 26.001 18 33.001 28s10.5 16 10.5 18v2l45 -6c0 -4 -4.83301 -14.167 -14.5 -30.5s-25.834 -31.833 -48.501 -46.5s-52.667 -22 -90 -22c-52.667 0 -86.5 12.167 -101.5 36.5s-22.5 45.166 -22.5 62.499l46 6v-2
c0 -3.33301 1.83301 -9.66602 5.5 -18.999s11.667 -18.333 24 -27s30.5 -13 54.5 -13s43.5 4.33301 58.5 13zM422.001 650l124 -650h-79l-40 200h-255l-96 -200h-53l310 650h89zM191.001 241h228l-63 351z" />
    <glyph glyph-name="abreve" unicode="&#x103;" 
d="M418.5 633c15 8.66699 26.001 18 33.001 28s10.5 16 10.5 18v2l45 -6c0 -4 -4.83301 -14.167 -14.5 -30.5s-25.834 -31.833 -48.501 -46.5s-52.667 -22 -90 -22c-52.667 0 -86.5 12.167 -101.5 36.5s-22.5 45.166 -22.5 62.499l46 6v-2
c0 -3.33301 1.83301 -9.66602 5.5 -18.999s11.667 -18.333 24 -27s30.5 -13 54.5 -13s43.5 4.33301 58.5 13zM383.001 0l-4 58.0029c-10 -15.333 -26.5 -30.5 -49.5 -45.5s-54.167 -22.5 -93.5 -22.5c-52 0 -93.333 17.667 -124 53s-46 84.666 -46 147.999
c0 59.333 10 113.166 30 161.499s49 86.666 87 114.999s83.333 42.5 136 42.5c36.667 0 64 -6.33301 82 -19s29.667 -24 35 -34l17 43h58l-70 -500h-58zM337.501 62.0029c20.333 15.333 35.1689 30.002 44.502 44.002l44 303c-1.33301 4 -5.33301 10 -12 18
s-17.167 15.833 -31.5 23.5s-32.5 11.5 -54.5 11.5c-60.667 0 -106.834 -24.833 -138.501 -74.5s-47.5 -116.834 -47.5 -201.501c0 -48.667 10.333 -85.334 31 -110.001s49.667 -37 87 -37c31.333 0 57.166 7.66699 77.499 23z" />
    <glyph glyph-name="Aogonek" unicode="&#x104;" horiz-adv-x="568" 
d="M546 0h-38.002c-22 -12 -44.333 -30.833 -67 -56.5s-34 -57.5 -34 -95.5c0 -25.333 8.83301 -42.666 26.5 -51.999s40.834 -14 69.501 -14l-5 -32c-41.333 0 -75.166 6.66699 -101.499 20s-39.5 38 -39.5 74c0 33.333 11 63.166 33 89.499s47.667 48.5 77 66.5l-40 200
h-255l-96 -200h-53l310 650h89zM190.998 241h228l-63 351z" />
    <glyph glyph-name="aogonek" unicode="&#x105;" 
d="M425 0c-22 -12 -44.335 -30.8311 -67.002 -56.498s-34 -57.5 -34 -95.5c0 -25.333 8.83301 -42.666 26.5 -51.999s40.834 -14 69.501 -14l-5 -32c-41.333 0 -75.166 6.66699 -101.499 20s-39.5 38 -39.5 74c0 33.333 10.833 63 32.5 89s47.167 48.333 76.5 67l-4 58
c-10 -15.333 -26.5 -30.5 -49.5 -45.5s-54.167 -22.5 -93.5 -22.5c-52 0 -93.333 17.667 -124 53s-46 84.666 -46 147.999c0 59.333 10 113.166 30 161.499s49 86.666 87 114.999s83.333 42.5 136 42.5c36.667 0 64 -6.33301 82 -19s29.667 -24 35 -34l17 43h58l-70 -500
h-16zM337.498 62.002c20.333 15.333 35.1689 30.002 44.502 44.002l44 303c-1.33301 4 -5.33301 10 -12 18s-17.167 15.833 -31.5 23.5s-32.5 11.5 -54.5 11.5c-60.667 0 -106.834 -24.833 -138.501 -74.5s-47.5 -116.834 -47.5 -201.501
c0 -48.667 10.333 -85.334 31 -110.001s49.667 -37 87 -37c31.333 0 57.166 7.66699 77.499 23z" />
    <glyph glyph-name="Cacute" unicode="&#x106;" horiz-adv-x="570" 
d="M543 841l-120 -135l-37 5l96 145zM561 570.5c-18 9.66699 -39.335 18.498 -64.002 26.498s-50 12 -76 12c-47.333 0 -90.166 -13.5 -128.499 -40.5s-68.833 -67 -91.5 -120s-34 -117.167 -34 -192.5c0 -69.333 17.167 -122.666 51.5 -159.999s80.5 -56 138.5 -56
c35.333 0 66.833 7.16699 94.5 21.5s49.667 30 66 47s24.5 26.5 24.5 28.5l23 -32c0 -3.33301 -9.33301 -14.833 -28 -34.5s-44.667 -38 -78 -55s-72.666 -25.5 -117.999 -25.5c-78.667 0 -140.667 23.833 -186 71.5s-68 113.167 -68 196.5c0 78 14.167 147.333 42.5 208
s67.833 108 118.5 142s108 51 172 51c30.667 0 59.5 -4.16699 86.5 -12.5s49.667 -17.5 68 -27.5s27.5 -15.667 27.5 -17l-14 -47c0 0.666992 -9 5.83398 -27 15.501z" />
    <glyph glyph-name="cacute" unicode="&#x107;" horiz-adv-x="423" 
d="M446 706l-120 -135l-37 5l96 145zM430 434.5c-12 7.66699 -26.668 14.833 -44.001 21.5s-35.666 10 -54.999 10c-124.667 0 -187 -93.667 -187 -281c0 -51.333 11.833 -89.333 35.5 -114s55.167 -37 94.5 -37c26 0 48 4.33301 66 13s32 18 42 28s15 15.667 15 17l29 -21
c0 -2.66699 -6.16699 -10.834 -18.5 -24.501s-30.666 -26.5 -54.999 -38.5s-54.5 -18 -90.5 -18c-60.667 0 -108.334 17.5 -143.001 52.5s-52 85.5 -52 151.5c0 97.333 22 174.333 66 231s108 85 192 85c24 0 46 -3.5 66 -10.5s36.667 -14.667 50 -23s20 -12.833 20 -13.5
l-13 -41c0 0.666992 -6 4.83398 -18 12.501z" />
    <glyph glyph-name="Ccaron" unicode="&#x10c;" horiz-adv-x="570" 
d="M297 831l31 24l96 -101l124 101l25 -26l-136 -121h-40zM561 570.5c-18 9.66699 -39.335 18.498 -64.002 26.498s-50 12 -76 12c-47.333 0 -90.166 -13.5 -128.499 -40.5s-68.833 -67 -91.5 -120s-34 -117.167 -34 -192.5c0 -69.333 17.167 -122.666 51.5 -159.999
s80.5 -56 138.5 -56c35.333 0 66.833 7.16699 94.5 21.5s49.667 30 66 47s24.5 26.5 24.5 28.5l23 -32c0 -3.33301 -9.33301 -14.833 -28 -34.5s-44.667 -38 -78 -55s-72.666 -25.5 -117.999 -25.5c-78.667 0 -140.667 23.833 -186 71.5s-68 113.167 -68 196.5
c0 78 14.167 147.333 42.5 208s67.833 108 118.5 142s108 51 172 51c30.667 0 59.5 -4.16699 86.5 -12.5s49.667 -17.5 68 -27.5s27.5 -15.667 27.5 -17l-14 -47c0 0.666992 -9 5.83398 -27 15.501z" />
    <glyph glyph-name="ccaron" unicode="&#x10d;" horiz-adv-x="423" 
d="M213 696l31 24l96 -101l124 101l25 -26l-136 -121h-40zM430 434.5c-12 7.66699 -26.668 14.833 -44.001 21.5s-35.666 10 -54.999 10c-124.667 0 -187 -93.667 -187 -281c0 -51.333 11.833 -89.333 35.5 -114s55.167 -37 94.5 -37c26 0 48 4.33301 66 13s32 18 42 28
s15 15.667 15 17l29 -21c0 -2.66699 -6.16699 -10.834 -18.5 -24.501s-30.666 -26.5 -54.999 -38.5s-54.5 -18 -90.5 -18c-60.667 0 -108.334 17.5 -143.001 52.5s-52 85.5 -52 151.5c0 97.333 22 174.333 66 231s108 85 192 85c24 0 46 -3.5 66 -10.5
s36.667 -14.667 50 -23s20 -12.833 20 -13.5l-13 -41c0 0.666992 -6 4.83398 -18 12.501z" />
    <glyph glyph-name="Dcaron" unicode="&#x10e;" horiz-adv-x="638" 
d="M254 831l31 24l96 -101l124 101l25 -26l-136 -121h-40zM383 650c81.333 0 144 -22.666 188 -67.999s66 -111 66 -197c0 -80 -13.667 -148.833 -41 -206.5s-66.833 -101.834 -118.5 -132.501s-113.5 -46 -185.5 -46h-198l91 650h198zM176 48.001l124.001 -0.000976562
c79.333 0 142 28.833 188 86.5s69 143.834 69 258.501c0 68.667 -15.333 120.667 -46 156s-75.334 53 -134.001 53h-123z" />
    <glyph glyph-name="dcaron" unicode="&#x10f;" 
d="M688 762l-82 -212l-31 3l64 216zM379 0l0.00390625 57.999c-10.667 -15.333 -27.334 -30.5 -50.001 -45.5s-53.334 -22.5 -92.001 -22.5c-52.667 0 -94.334 18 -125.001 54s-46 85.667 -46 149c0 59.333 9.66699 113 29 161s47.666 86 84.999 114s81.333 42 132 42
c27.333 0 50 -3.5 68 -10.5s31.167 -14.667 39.5 -23s12.5 -13.166 12.5 -14.499h1l40 286l74 4l-106 -752h-62zM338.004 62.999c20.667 16 35.668 31.001 45.001 45.001l43 309c-7.33301 9.33301 -18.5 19.166 -33.5 29.499s-36.833 15.5 -65.5 15.5
c-62.667 0 -109.334 -24.833 -140.001 -74.5s-46 -117.167 -46 -202.5c0 -48.667 10.167 -85.167 30.5 -109.5s49.5 -36.5 87.5 -36.5c32 0 58.333 8 79 24z" />
    <glyph glyph-name="Dcroat" unicode="&#x110;" horiz-adv-x="638" 
d="M67 302l7 42.001h68l43 306h198c81.333 0 144 -22.667 188 -68s66 -111 66 -197c0 -80 -13.667 -148.833 -41 -206.5s-66.833 -101.834 -118.5 -132.501s-113.5 -46 -185.5 -46h-198l42 302h-69zM218 344.001l189.001 -0.000976562l-6 -42h-189l-36 -254h124
c79.333 0 142 28.833 188 86.5s69 143.834 69 258.501c0 68.667 -15.333 120.667 -46 156s-75.334 53 -134.001 53h-123z" />
    <glyph glyph-name="dcroat" unicode="&#x111;" horiz-adv-x="519" 
d="M593 667l-5 -35.999l-61 -7h-2l-88 -624h-64l1 57c-11.333 -16 -29.166 -31.833 -53.499 -47.5s-55.833 -23.5 -94.5 -23.5c-51.333 0 -91.5 18 -120.5 54s-43.5 85.333 -43.5 148c0 60 9.5 114.667 28.5 164s46.833 88.666 83.5 117.999s80.334 44 131.001 44
c27.333 0 50.166 -3.83301 68.499 -11.5s32.166 -16 41.499 -25s14 -14.167 14 -15.5l23 162h-119l6 43h119l12 83h73l-12 -83h62zM334 59.001c20 16 35.335 32.333 46.002 49l43 308c-20.667 33.333 -53.334 50 -98.001 50c-62.667 0 -109.5 -25.5 -140.5 -76.5
s-46.5 -120.5 -46.5 -208.5c0 -48.667 10.167 -85.167 30.5 -109.5s49.166 -36.5 86.499 -36.5c32.667 0 59 8 79 24z" />
    <glyph glyph-name="Emacron" unicode="&#x112;" horiz-adv-x="507" 
d="M473 771h-185l5 36h185zM466 0h-372l91 650h350l-6 -48h-275l-35 -250h252l-7 -46h-251l-36 -258h296z" />
    <glyph glyph-name="emacron" unicode="&#x113;" horiz-adv-x="453" 
d="M425 636h-185l5 36h185zM411.5 45.5c-13.667 -13.667 -33 -26.333 -58 -38s-55.5 -17.5 -91.5 -17.5c-58.667 0 -106 17.333 -142 52s-54 84.667 -54 150c0 62.667 10.5 118.167 31.5 166.5s50.333 85.666 88 111.999s81.167 39.5 130.5 39.5
c46.667 0 83.5 -12.667 110.5 -38s40.5 -56.666 40.5 -93.999c0 -62 -27.167 -102.833 -81.5 -122.5s-120.5 -29.5 -198.5 -29.5h-45c-0.666992 -9.33301 -1 -23.666 -1 -42.999c0 -50 12.167 -87.333 36.5 -112s56.833 -37 97.5 -37c26.667 0 49.667 4.33301 69 13
s34.5 18.167 45.5 28.5s16.5 16.166 16.5 17.499l26 -24c0 -2 -6.83301 -9.83301 -20.5 -23.5zM201 413.501c-28 -35.667 -46.332 -85.5 -54.999 -149.5h43c61.333 0 112.166 7.66699 152.499 23s60.5 47 60.5 95c0 24.667 -8.33301 45 -25 61s-40 24 -70 24
c-42.667 0 -78 -17.833 -106 -53.5z" />
    <glyph glyph-name="Edotaccent" unicode="&#x116;" horiz-adv-x="507" 
d="M383 822c12 0 21.334 -3.33398 28.001 -10.001c5.33301 -6 8 -14.667 8 -26c0 -14.667 -5.66699 -27.667 -17 -39c-10.667 -7.33301 -21.334 -11 -32.001 -11c-12 0 -21 3.66699 -27 11s-9 16 -9 26c0 7.33301 1.5 14.333 4.5 21s7.5 12.334 13.5 17.001
c8 7.33301 18.333 11 31 11zM466.001 -0.000976562h-372l91 650h350l-6 -48h-275l-35 -250h252l-7 -46h-251l-36 -258h296z" />
    <glyph glyph-name="edotaccent" unicode="&#x117;" horiz-adv-x="453" 
d="M340 687c12 0 21.334 -3.33398 28.001 -10.001c5.33301 -6 8 -14.667 8 -26c0 -14.667 -5.66699 -27.667 -17 -39c-10.667 -7.33301 -21.334 -11 -32.001 -11c-12 0 -21 3.66699 -27 11s-9 16 -9 26c0 7.33301 1.5 14.333 4.5 21s7.5 12.334 13.5 17.001
c8 7.33301 18.333 11 31 11zM411.501 45.499c-13.667 -13.667 -33 -26.333 -58 -38s-55.5 -17.5 -91.5 -17.5c-58.667 0 -106 17.333 -142 52s-54 84.667 -54 150c0 62.667 10.5 118.167 31.5 166.5s50.333 85.666 88 111.999s81.167 39.5 130.5 39.5
c46.667 0 83.5 -12.667 110.5 -38s40.5 -56.666 40.5 -93.999c0 -62 -27.167 -102.833 -81.5 -122.5s-120.5 -29.5 -198.5 -29.5h-45c-0.666992 -9.33301 -1 -23.666 -1 -42.999c0 -50 12.167 -87.333 36.5 -112s56.833 -37 97.5 -37c26.667 0 49.667 4.33301 69 13
s34.5 18.167 45.5 28.5s16.5 16.166 16.5 17.499l26 -24c0 -2 -6.83301 -9.83301 -20.5 -23.5zM201.001 413.5c-28 -35.667 -46.332 -85.5 -54.999 -149.5h43c61.333 0 112.166 7.66699 152.499 23s60.5 47 60.5 95c0 24.667 -8.33301 45 -25 61s-40 24 -70 24
c-42.667 0 -78 -17.833 -106 -53.5z" />
    <glyph glyph-name="Eogonek" unicode="&#x118;" horiz-adv-x="507" 
d="M457 0c-22 -12 -44.334 -30.834 -67.001 -56.501s-34 -57.5 -34 -95.5c0 -25.333 8.83301 -42.666 26.5 -51.999s40.834 -14 69.501 -14l-5 -32c-41.333 0 -75.166 6.66699 -101.499 20s-39.5 38 -39.5 74c0 33.333 10.667 63 32 89s46.666 48.333 75.999 67h-320l91 650
h350l-6 -48h-275l-35 -250h252l-7 -46h-251l-36 -258h296l-7 -48h-9z" />
    <glyph glyph-name="eogonek" unicode="&#x119;" horiz-adv-x="453" 
d="M416 50.5c-10.667 -11 -25.334 -22 -44.001 -33s-41.334 -18.833 -68.001 -23.5c-22.667 -14.667 -43.5 -34 -62.5 -58s-28.5 -53.333 -28.5 -88c0 -25.333 8.83301 -42.666 26.5 -51.999s40.834 -14 69.501 -14l-5 -32c-41.333 0 -75.166 6.66699 -101.499 20
s-39.5 38 -39.5 74c0 53.333 31 102 93 146c-57.333 1.33301 -103.333 19.166 -138 53.499s-52 83.833 -52 148.5c0 62.667 10.5 118.167 31.5 166.5s50.333 85.666 88 111.999s81.167 39.5 130.5 39.5c46.667 0 83.5 -12.667 110.5 -38s40.5 -56.666 40.5 -93.999
c0 -62 -27.167 -102.833 -81.5 -122.5s-120.5 -29.5 -198.5 -29.5h-45c-0.666992 -9.33301 -1 -23.666 -1 -42.999c0 -50 12.167 -87.333 36.5 -112s56.833 -37 97.5 -37c26.667 0 49.667 4.33301 69 13s34.5 18.167 45.5 28.5s16.5 16.166 16.5 17.499l26 -24
c0 -1.33301 -5.33301 -7.5 -16 -18.5zM201 413.5c-28 -35.667 -46.332 -85.5 -54.999 -149.5h43c61.333 0 112.166 7.66699 152.499 23s60.5 47 60.5 95c0 24.667 -8.33301 45 -25 61s-40 24 -70 24c-42.667 0 -78 -17.833 -106 -53.5z" />
    <glyph glyph-name="Ecaron" unicode="&#x11a;" horiz-adv-x="507" 
d="M248 831l31 24l96 -101l124 101l25 -26l-136 -121h-40zM466 0h-372l91 650h350l-6 -48h-275l-35 -250h252l-7 -46h-251l-36 -258h296z" />
    <glyph glyph-name="ecaron" unicode="&#x11b;" horiz-adv-x="453" 
d="M203 696l31 24l96 -101l124 101l25 -26l-136 -121h-40zM411.5 45.5c-13.667 -13.667 -33 -26.333 -58 -38s-55.5 -17.5 -91.5 -17.5c-58.667 0 -106 17.333 -142 52s-54 84.667 -54 150c0 62.667 10.5 118.167 31.5 166.5s50.333 85.666 88 111.999
s81.167 39.5 130.5 39.5c46.667 0 83.5 -12.667 110.5 -38s40.5 -56.666 40.5 -93.999c0 -62 -27.167 -102.833 -81.5 -122.5s-120.5 -29.5 -198.5 -29.5h-45c-0.666992 -9.33301 -1 -23.666 -1 -42.999c0 -50 12.167 -87.333 36.5 -112s56.833 -37 97.5 -37
c26.667 0 49.667 4.33301 69 13s34.5 18.167 45.5 28.5s16.5 16.166 16.5 17.499l26 -24c0 -2 -6.83301 -9.83301 -20.5 -23.5zM201 413.501c-28 -35.667 -46.332 -85.5 -54.999 -149.5h43c61.333 0 112.166 7.66699 152.499 23s60.5 47 60.5 95
c0 24.667 -8.33301 45 -25 61s-40 24 -70 24c-42.667 0 -78 -17.833 -106 -53.5z" />
    <glyph glyph-name="Gbreve" unicode="&#x11e;" horiz-adv-x="620" 
d="M493.5 768c15 8.66699 26.001 18 33.001 28s10.5 16 10.5 18v2l45 -6c0 -4 -4.83301 -14.167 -14.5 -30.5s-25.834 -31.833 -48.501 -46.5s-52.667 -22 -90 -22c-52.667 0 -86.5 12.167 -101.5 36.5s-22.5 45.166 -22.5 62.499l46 6v-2
c0 -3.33301 1.83301 -9.66602 5.5 -18.999s11.667 -18.333 24 -27s30.5 -13 54.5 -13s43.5 4.33301 58.5 13zM506.001 0l-9.00195 70.998c-46 -54 -107.333 -81 -184 -81c-72.667 0 -128.5 23.167 -167.5 69.5s-58.5 111.5 -58.5 195.5c0 81.333 13.833 152.5 41.5 213.5
s67.334 108 119.001 141s112.834 49.5 183.501 49.5c30.667 0 59.667 -4.16699 87 -12.5s50.333 -17.5 69 -27.5s28 -15.667 28 -17l-16 -47c0 0.666992 -9 5.83398 -27 15.501s-39.333 18.5 -64 26.5s-50 12 -76 12c-84.667 0 -150 -30.5 -196 -91.5s-69 -148.5 -69 -262.5
c0 -70 14.333 -123.333 43 -160s69 -55 121 -55c50.667 0 89.167 12.333 115.5 37s43.833 48.334 52.5 71.001l21 147h-133l7 43h196l-47 -338h-37z" />
    <glyph glyph-name="gbreve" unicode="&#x11f;" horiz-adv-x="451" 
d="M372.5 633c15 8.66699 26.001 18 33.001 28s10.5 16 10.5 18v2l45 -6c0 -4 -4.83301 -14.167 -14.5 -30.5s-25.834 -31.833 -48.501 -46.5s-52.667 -22 -90 -22c-52.667 0 -86.5 12.167 -101.5 36.5s-22.5 45.166 -22.5 62.499l46 6v-2
c0 -3.33301 1.83301 -9.66602 5.5 -18.999s11.667 -18.333 24 -27s30.5 -13 54.5 -13s43.5 4.33301 58.5 13zM367.001 500l130.998 -1l-4 -39l-67 -2c18.667 -24 28 -55 28 -93c0 -66.667 -18.333 -118.334 -55 -155.001s-86 -55 -148 -55
c-21.333 0 -41.666 2.66699 -60.999 8c-26.667 -14 -40 -32 -40 -54c0 -30 27.667 -45 83 -45c134.667 0 202 -45.333 202 -136c0 -58 -20 -103.833 -60 -137.5s-97 -50.5 -171 -50.5c-63.333 0 -112 12.5 -146 37.5s-51 61.167 -51 108.5c0 40 10.167 72.333 30.5 97
s45.5 42.334 75.5 53.001c-10 13.333 -15 30 -15 50c0 38 18.667 69 56 93c-20.667 12 -36.5 28.667 -47.5 50s-16.5 46.333 -16.5 75c0 70.667 19.833 122.667 59.5 156s89.834 50 150.501 50c24.667 0 46.667 -3.33301 66 -10zM292.999 467
c-39.333 0 -71.167 -12.832 -95.5 -38.499s-36.5 -68.5 -36.5 -128.5c0 -34 8.16699 -60 24.5 -78s39.5 -27 69.5 -27c41.333 0 73.333 14.667 96 44s34 72.666 34 129.999c0 65.333 -30.667 98 -92 98zM149.998 11.001c-25.333 -8.66699 -46.166 -22.833 -62.499 -42.5
s-24.5 -45.5 -24.5 -77.5c0 -36 13 -62.667 39 -80s62.333 -26 109 -26c51.333 0 90.666 10.667 117.999 32s41 52 41 92c0 32.667 -12.333 56.167 -37 70.5s-61.334 21.5 -110.001 21.5c-29.333 0 -53.666 3.33301 -72.999 10z" />
    <glyph glyph-name="Gcommaaccent" unicode="&#x122;" horiz-adv-x="620" 
d="M506 0l-9.00195 70.998c-46 -54 -107.333 -81 -184 -81c-72.667 0 -128.5 23.167 -167.5 69.5s-58.5 111.5 -58.5 195.5c0 81.333 13.833 152.5 41.5 213.5s67.334 108 119.001 141s112.834 49.5 183.501 49.5c30.667 0 59.667 -4.16699 87 -12.5s50.333 -17.5 69 -27.5
s28 -15.667 28 -17l-16 -47c0 0.666992 -9 5.83398 -27 15.501s-39.333 18.5 -64 26.5s-50 12 -76 12c-84.667 0 -150 -30.5 -196 -91.5s-69 -148.5 -69 -262.5c0 -70 14.333 -123.333 43 -160s69 -55 121 -55c50.667 0 89.167 12.333 115.5 37s43.833 48.334 52.5 71.001
l21 147h-133l7 43h196l-47 -338h-37zM328.998 -45.002c9.33301 0 17 -3 23 -9l4 -6c5.33301 -9.33301 8 -20.333 8 -33c0 -29.333 -10.667 -63.5 -32 -102.5s-47 -69.833 -77 -92.5l-16 19c24.667 20 44.5 44.5 59.5 73.5s22.167 55.167 21.5 78.5c-10.667 0 -19 3 -25 9
c-4.66699 5.33301 -7 12.333 -7 21c0 14 5 25 15 33c8 6 16.667 9 26 9z" />
    <glyph glyph-name="gcommaaccent" unicode="&#x123;" horiz-adv-x="451" 
d="M307 570c-9.33301 0 -17 3 -23 9l-4 6c-5.33301 9.33301 -8 20.333 -8 33c0 29.333 10.667 63.5 32 102.5s47 69.833 77 92.5l16 -19c-24.667 -20 -44.5 -44.5 -59.5 -73.5s-22.167 -55.167 -21.5 -78.5c10.667 0 19 -3 25 -9c4.66699 -5.33301 7 -12.333 7 -21
c0 -14 -5 -25 -15 -33c-8 -6 -16.667 -9 -26 -9zM367 500l130.998 -1l-4 -39l-67 -2c18.667 -24 28 -55 28 -93c0 -66.667 -18.333 -118.334 -55 -155.001s-86 -55 -148 -55c-21.333 0 -41.666 2.66699 -60.999 8c-26.667 -14 -40 -32 -40 -54c0 -30 27.667 -45 83 -45
c134.667 0 202 -45.333 202 -136c0 -58 -20 -103.833 -60 -137.5s-97 -50.5 -171 -50.5c-63.333 0 -112 12.5 -146 37.5s-51 61.167 -51 108.5c0 40 10.167 72.333 30.5 97s45.5 42.334 75.5 53.001c-10 13.333 -15 30 -15 50c0 38 18.667 69 56 93
c-20.667 12 -36.5 28.667 -47.5 50s-16.5 46.333 -16.5 75c0 70.667 19.833 122.667 59.5 156s89.834 50 150.501 50c24.667 0 46.667 -3.33301 66 -10zM292.998 467c-39.333 0 -71.167 -12.832 -95.5 -38.499s-36.5 -68.5 -36.5 -128.5c0 -34 8.16699 -60 24.5 -78
s39.5 -27 69.5 -27c41.333 0 73.333 14.667 96 44s34 72.666 34 129.999c0 65.333 -30.667 98 -92 98zM149.997 11.001c-25.333 -8.66699 -46.166 -22.833 -62.499 -42.5s-24.5 -45.5 -24.5 -77.5c0 -36 13 -62.667 39 -80s62.333 -26 109 -26
c51.333 0 90.666 10.667 117.999 32s41 52 41 92c0 32.667 -12.333 56.167 -37 70.5s-61.334 21.5 -110.001 21.5c-29.333 0 -53.666 3.33301 -72.999 10z" />
    <glyph glyph-name="Itilde" unicode="&#x128;" horiz-adv-x="265" 
d="M170 0h-76l91 650h76zM396 781c-8 -8.66699 -18.834 -16.8311 -32.501 -24.498s-29.5 -11.5 -47.5 -11.5c-13.333 0 -25.833 2 -37.5 6s-24.834 10 -39.501 18c-16 7.33301 -29 12.833 -39 16.5s-20.667 5.5 -32 5.5s-21.833 -2.83301 -31.5 -8.5
s-17.334 -11.667 -23.001 -18s-9.16699 -10.5 -10.5 -12.5l-20 25c0 1.33301 4.83301 7.5 14.5 18.5s22.334 21.167 38.001 30.5s33.167 14 52.5 14c14.667 0 28 -2.16699 40 -6.5s25.667 -10.5 41 -18.5c13.333 -6.66699 24.833 -11.834 34.5 -15.501
s19.834 -5.5 30.501 -5.5s20 2 28 6s14.333 8.16699 19 12.5s7.33398 7.16602 8.00098 8.49902l19 -25c0 -1.33301 -4 -6.33301 -12 -15z" />
    <glyph glyph-name="itilde" unicode="&#x129;" horiz-adv-x="221" 
d="M146 0h-72l70 500h72zM354 631c-8 -8.66699 -18.834 -16.8311 -32.501 -24.498s-29.5 -11.5 -47.5 -11.5c-13.333 0 -25.833 2 -37.5 6s-24.834 10 -39.501 18c-16 7.33301 -29 12.833 -39 16.5s-20.667 5.5 -32 5.5s-21.833 -2.83301 -31.5 -8.5
s-17.334 -11.667 -23.001 -18s-9.16699 -10.5 -10.5 -12.5l-20 25c0 1.33301 4.83301 7.5 14.5 18.5s22.334 21.167 38.001 30.5s33.167 14 52.5 14c14.667 0 28 -2.16699 40 -6.5s25.667 -10.5 41 -18.5c13.333 -6.66699 24.833 -11.834 34.5 -15.501
s19.834 -5.5 30.501 -5.5s20 2 28 6s14.333 8.16699 19 12.5s7.33398 7.16602 8.00098 8.49902l19 -25c0 -1.33301 -4 -6.33301 -12 -15z" />
    <glyph glyph-name="Imacron" unicode="&#x12a;" horiz-adv-x="265" 
d="M325 771h-185l5 36h185zM170 0h-76l91 650h76z" />
    <glyph glyph-name="imacron" unicode="&#x12b;" horiz-adv-x="221" 
d="M292 636h-185l5 36h185zM146 0h-72l70 500h72z" />
    <glyph glyph-name="Iogonek" unicode="&#x12e;" horiz-adv-x="265" 
d="M133 0c-22 -12 -44.335 -30.834 -67.002 -56.501s-34 -57.5 -34 -95.5c0 -25.333 8.83301 -42.666 26.5 -51.999s40.834 -14 69.501 -14l-5 -32c-41.333 0 -75.166 6.66699 -101.499 20s-39.5 38 -39.5 74c0 34 11.167 64.333 33.5 91s48.5 49 78.5 67l91 648h76
l-91 -650h-37z" />
    <glyph glyph-name="iogonek" unicode="&#x12f;" horiz-adv-x="221" 
d="M206 687c12 0 21.334 -3.33398 28.001 -10.001c5.33301 -6 8 -14.667 8 -26c0 -14.667 -5.66699 -27.667 -17 -39c-10.667 -7.33301 -21.334 -11 -32.001 -11c-12 0 -21 3.66699 -27 11s-9 16 -9 26c0 7.33301 1.5 14.333 4.5 21s7.5 12.334 13.5 17.001
c8 7.33301 18.333 11 31 11zM110.001 -0.000976562c-22 -12 -44.335 -30.833 -67.002 -56.5s-34 -57.5 -34 -95.5c0 -25.333 8.83301 -42.666 26.5 -51.999s40.834 -14 69.501 -14l-5 -32c-41.333 0 -75.166 6.66699 -101.499 20s-39.5 38 -39.5 74
c0 34.667 11.667 65.667 35 93s50 49.666 80 66.999l70 496h72l-70 -500h-36z" />
    <glyph glyph-name="Idotaccent" unicode="&#x130;" horiz-adv-x="265" 
d="M238 822c12 0 21.334 -3.33398 28.001 -10.001c5.33301 -6 8 -14.667 8 -26c0 -14.667 -5.66699 -27.667 -17 -39c-10.667 -7.33301 -21.334 -11 -32.001 -11c-12 0 -21 3.66699 -27 11s-9 16 -9 26c0 7.33301 1.5 14.333 4.5 21s7.5 12.334 13.5 17.001
c8 7.33301 18.333 11 31 11zM170.001 -0.000976562h-76l91 650h76z" />
    <glyph glyph-name="dotlessi" unicode="&#x131;" horiz-adv-x="221" 
d="M146 0h-72l70 500h72z" />
    <glyph glyph-name="Kcommaaccent" unicode="&#x136;" horiz-adv-x="600" 
d="M185 650h76l-50 -354l89 70l259 284h61l-268 -290l208 -360h-95l-177 302l-85 -62l-33 -240h-76zM299 -45c9.33301 0 17 -3 23 -9l4 -6c5.33301 -9.33301 8 -20.333 8 -33c0 -29.333 -10.667 -63.5 -32 -102.5s-47 -69.833 -77 -92.5l-16 19
c24.667 20 44.5 44.5 59.5 73.5s22.167 55.167 21.5 78.5c-10.667 0 -19 3 -25 9c-4.66699 5.33301 -7 12.333 -7 21c0 14 5 25 15 33c8 6 16.667 9 26 9z" />
    <glyph glyph-name="kcommaaccent" unicode="&#x137;" horiz-adv-x="455" 
d="M178 748l74 4l-68 -482l68 43l175 187h55l-194 -205l145 -295h-84l-123 252l-49 -28l-31 -224h-72zM238 -45c9.33301 0 17 -3 23 -9l4 -6c5.33301 -9.33301 8 -20.333 8 -33c0 -29.333 -10.667 -63.5 -32 -102.5s-47 -69.833 -77 -92.5l-16 19
c24.667 20 44.5 44.5 59.5 73.5s22.167 55.167 21.5 78.5c-10.667 0 -19 3 -25 9c-4.66699 5.33301 -7 12.333 -7 21c0 14 5 25 15 33c8 6 16.667 9 26 9z" />
    <glyph glyph-name="Lacute" unicode="&#x139;" horiz-adv-x="475" 
d="M355 841l-120 -135l-37 5l96 145zM459 0h-365l91 650h76l-85 -602h290z" />
    <glyph glyph-name="lacute" unicode="&#x13a;" horiz-adv-x="221" 
d="M361 931l-120 -135l-37 5l96 145zM147 0h-73l105 748l73 4z" />
    <glyph glyph-name="Lcommaaccent" unicode="&#x13b;" horiz-adv-x="475" 
d="M459 0h-365l91 650h76l-85 -602h290zM266 -45c9.33301 0 17 -3 23 -9l4 -6c5.33301 -9.33301 8 -20.333 8 -33c0 -29.333 -10.667 -63.5 -32 -102.5s-47 -69.833 -77 -92.5l-16 19c24.667 20 44.5 44.5 59.5 73.5s22.167 55.167 21.5 78.5c-10.667 0 -19 3 -25 9
c-4.66699 5.33301 -7 12.333 -7 21c0 14 5 25 15 33c8 6 16.667 9 26 9z" />
    <glyph glyph-name="lcommaaccent" unicode="&#x13c;" horiz-adv-x="221" 
d="M147 0h-73l105 748l73 4zM105 -45c9.33301 0 17 -3 23 -9l4 -6c5.33301 -9.33301 8 -20.333 8 -33c0 -29.333 -10.667 -63.5 -32 -102.5s-47 -69.833 -77 -92.5l-16 19c24.667 20 44.5 44.5 59.5 73.5s22.167 55.167 21.5 78.5c-10.667 0 -19 3 -25 9
c-4.66699 5.33301 -7 12.333 -7 21c0 14 5 25 15 33c8 6 16.667 9 26 9z" />
    <glyph glyph-name="Lcaron" unicode="&#x13d;" horiz-adv-x="475" 
d="M110 831l31 24l96 -101l124 101l25 -26l-136 -121h-40zM459 0h-365l91 650h76l-85 -602h290z" />
    <glyph glyph-name="lcaron" unicode="&#x13e;" horiz-adv-x="221" 
d="M395 762l-82 -212l-31 3l64 216zM147 0h-73l105 748l73 4z" />
    <glyph glyph-name="Lslash" unicode="&#x141;" horiz-adv-x="496" 
d="M485 0h-365l36 257l-73 -48l-16 27l95 63l49 351h76l-42 -296l135 90l17 -27l-158 -105l-37 -264h290z" />
    <glyph glyph-name="lslash" unicode="&#x142;" horiz-adv-x="259" 
d="M225 421l107 75l16 -24l-129 -91l-53 -381h-73l45 325l-75 -53l-16 24l97 68l54 384l73 4z" />
    <glyph glyph-name="Nacute" unicode="&#x143;" horiz-adv-x="651" 
d="M561 841l-120 -135l-37 5l96 145zM557 0h-66l-268 554h-1l1 -31l-74 -523h-55l91 650h79l257 -536v24l72 512h55z" />
    <glyph glyph-name="nacute" unicode="&#x144;" horiz-adv-x="511" 
d="M448 706l-120 -135l-37 5l96 145zM204 500l4 -46.001c37.333 37.333 88.333 56 153 56c42.667 0 75.5 -10.333 98.5 -31s34.5 -51.667 34.5 -93c0 -11.333 -1 -23.666 -3 -36.999l-48 -349h-73l48 340c1.33301 7.33301 2 17.333 2 30c0 58 -30.333 87 -91 87
c-33.333 0 -60 -5.83301 -80 -17.5s-35 -22.5 -45 -32.5l-57 -407h-73l70 500h60z" />
    <glyph glyph-name="Ncommaaccent" unicode="&#x145;" horiz-adv-x="651" 
d="M557 0h-66l-268 554h-1l1 -31l-74 -523h-55l91 650h79l257 -536v24l72 512h55zM325 -45c9.33301 0 17 -3 23 -9l4 -6c5.33301 -9.33301 8 -20.333 8 -33c0 -29.333 -10.667 -63.5 -32 -102.5s-47 -69.833 -77 -92.5l-16 19c24.667 20 44.5 44.5 59.5 73.5
s22.167 55.167 21.5 78.5c-10.667 0 -19 3 -25 9c-4.66699 5.33301 -7 12.333 -7 21c0 14 5 25 15 33c8 6 16.667 9 26 9z" />
    <glyph glyph-name="ncommaaccent" unicode="&#x146;" horiz-adv-x="511" 
d="M204 500l4 -46.001c37.333 37.333 88.333 56 153 56c42.667 0 75.5 -10.333 98.5 -31s34.5 -51.667 34.5 -93c0 -11.333 -1 -23.666 -3 -36.999l-48 -349h-73l48 340c1.33301 7.33301 2 17.333 2 30c0 58 -30.333 87 -91 87c-33.333 0 -60 -5.83301 -80 -17.5
s-35 -22.5 -45 -32.5l-57 -407h-73l70 500h60zM256 -45.001c9.33301 0 17 -3 23 -9l4 -6c5.33301 -9.33301 8 -20.333 8 -33c0 -29.333 -10.667 -63.5 -32 -102.5s-47 -69.833 -77 -92.5l-16 19c24.667 20 44.5 44.5 59.5 73.5s22.167 55.167 21.5 78.5
c-10.667 0 -19 3 -25 9c-4.66699 5.33301 -7 12.333 -7 21c0 14 5 25 15 33c8 6 16.667 9 26 9z" />
    <glyph glyph-name="Ncaron" unicode="&#x147;" horiz-adv-x="651" 
d="M327 831l31 24l96 -101l124 101l25 -26l-136 -121h-40zM557 0h-66l-268 554h-1l1 -31l-74 -523h-55l91 650h79l257 -536v24l72 512h55z" />
    <glyph glyph-name="ncaron" unicode="&#x148;" horiz-adv-x="511" 
d="M220 696l31 24l96 -101l124 101l25 -26l-136 -121h-40zM204 500l4 -46.001c37.333 37.333 88.333 56 153 56c42.667 0 75.5 -10.333 98.5 -31s34.5 -51.667 34.5 -93c0 -11.333 -1 -23.666 -3 -36.999l-48 -349h-73l48 340c1.33301 7.33301 2 17.333 2 30
c0 58 -30.333 87 -91 87c-33.333 0 -60 -5.83301 -80 -17.5s-35 -22.5 -45 -32.5l-57 -407h-73l70 500h60z" />
    <glyph glyph-name="Omacron" unicode="&#x14c;" horiz-adv-x="654" 
d="M518 771h-185l5 36h185zM612.5 180c-29.667 -61.333 -69.3311 -108.333 -118.998 -141s-104.167 -49 -163.5 -49c-76 0 -135.333 24 -178 72s-64 114 -64 198c0 78.667 13.167 148.167 39.5 208.5s64.166 107.166 113.499 140.499s107 50 173 50
c81.333 0 142.166 -24.667 182.499 -74s60.5 -112.666 60.5 -189.999c0 -82 -14.833 -153.667 -44.5 -215zM535.503 553c-27.667 38.667 -69.499 57.999 -125.499 57.999c-48.667 0 -91.334 -13.833 -128.001 -41.5s-65 -68.667 -85 -123s-30 -120.166 -30 -197.499
c0 -66 14.667 -117.667 44 -155s70.333 -56 123 -56c44 0 84.5 13.5 121.5 40.5s66.5 68 88.5 123s33 122.167 33 201.5c0 61.333 -13.833 111.333 -41.5 150z" />
    <glyph glyph-name="omacron" unicode="&#x14d;" horiz-adv-x="501" 
d="M432 636h-185l5 36h185zM472.5 139c-20.333 -47.333 -49.666 -84 -87.999 -110s-83.833 -39 -136.5 -39c-58 0 -102.667 18 -134 54s-47 86.667 -47 152c0 95.333 22.167 171.5 66.5 228.5s107.166 85.5 188.499 85.5c58 0 102.667 -18 134 -54s47 -86.667 47 -152
c0 -62.667 -10.167 -117.667 -30.5 -165zM186 392c-29.333 -49.333 -43.999 -119.333 -43.999 -210c0 -46.667 9.5 -83 28.5 -109s47.833 -39 86.5 -39c55.333 0 97.666 24.5 126.999 73.5s44 118.833 44 209.5c0 47.333 -9.5 84 -28.5 110s-47.5 39 -85.5 39
c-56 0 -98.667 -24.667 -128 -74z" />
    <glyph glyph-name="Ohungarumlaut" unicode="&#x150;" horiz-adv-x="654" 
d="M387 853l50 -13l-82 -129l-31 14zM516 853l50 -13l-82 -129l-31 14zM612.5 180c-29.667 -61.333 -69.3311 -108.333 -118.998 -141s-104.167 -49 -163.5 -49c-76 0 -135.333 24 -178 72s-64 114 -64 198c0 78.667 13.167 148.167 39.5 208.5
s64.166 107.166 113.499 140.499s107 50 173 50c81.333 0 142.166 -24.667 182.499 -74s60.5 -112.666 60.5 -189.999c0 -82 -14.833 -153.667 -44.5 -215zM535.503 553c-27.667 38.667 -69.499 57.999 -125.499 57.999c-48.667 0 -91.334 -13.833 -128.001 -41.5
s-65 -68.667 -85 -123s-30 -120.166 -30 -197.499c0 -66 14.667 -117.667 44 -155s70.333 -56 123 -56c44 0 84.5 13.5 121.5 40.5s66.5 68 88.5 123s33 122.167 33 201.5c0 61.333 -13.833 111.333 -41.5 150z" />
    <glyph glyph-name="ohungarumlaut" unicode="&#x151;" horiz-adv-x="501" 
d="M297 718l50 -13l-82 -129l-31 14zM426 718l50 -13l-82 -129l-31 14zM472.5 139c-20.333 -47.333 -49.666 -84 -87.999 -110s-83.833 -39 -136.5 -39c-58 0 -102.667 18 -134 54s-47 86.667 -47 152c0 95.333 22.167 171.5 66.5 228.5s107.166 85.5 188.499 85.5
c58 0 102.667 -18 134 -54s47 -86.667 47 -152c0 -62.667 -10.167 -117.667 -30.5 -165zM186 392c-29.333 -49.333 -43.999 -119.333 -43.999 -210c0 -46.667 9.5 -83 28.5 -109s47.833 -39 86.5 -39c55.333 0 97.666 24.5 126.999 73.5s44 118.833 44 209.5
c0 47.333 -9.5 84 -28.5 110s-47.5 39 -85.5 39c-56 0 -98.667 -24.667 -128 -74z" />
    <glyph glyph-name="OE" unicode="&#x152;" horiz-adv-x="940" 
d="M527 0l10.001 73.999c-28.667 -27.333 -60.667 -48.166 -96 -62.499s-72.333 -21.5 -111 -21.5c-76 0 -135.333 24 -178 72s-64 114 -64 198c0 78.667 13.167 148.167 39.5 208.5s64.166 107.166 113.499 140.499s107 50 173 50c86 0 150.333 -29.333 193 -88l11 79h351
l-6 -48h-276l-30 -216c0 -8 -0.666992 -19.333 -2 -34h249l-7 -46h-247c-3.33301 -21.333 -7.33301 -40.666 -12 -57.999l-28 -200h297l-7 -48h-373zM535.501 552.999c-27.667 38.667 -69.5 57.999 -125.5 57.999c-48.667 0 -91.334 -13.833 -128.001 -41.5
s-65 -68.667 -85 -123s-30 -120.166 -30 -197.499c0 -66 14.667 -117.667 44 -155s70.333 -56 123 -56c55.333 0 104.333 21.167 147 63.5s71.334 103.5 86.001 183.5l6 44v5c2.66699 29.333 4 52.333 4 69c0 61.333 -13.833 111.333 -41.5 150z" />
    <glyph glyph-name="oe" unicode="&#x153;" horiz-adv-x="809" 
d="M767.5 45.5c-13.667 -13.667 -32.998 -26.334 -57.998 -38.001s-55.5 -17.5 -91.5 -17.5c-40 0 -75 8.16699 -105 24.5s-53 40.5 -69 72.5c-22.667 -31.333 -50.5 -55.333 -83.5 -72s-70.5 -25 -112.5 -25c-58 0 -102.667 18 -134 54s-47 86.667 -47 152
c0 95.333 22.167 171.5 66.5 228.5s107.166 85.5 188.499 85.5c38.667 0 71.667 -8.5 99 -25.5s48 -41.167 62 -72.5c22 31.333 49.167 55.5 81.5 72.5s68.166 25.5 107.499 25.5c46.667 0 83.5 -12.667 110.5 -38s40.5 -56.666 40.5 -93.999
c0 -62 -27.167 -102.833 -81.5 -122.5s-120.5 -29.5 -198.5 -29.5h-45c-0.666992 -9.33301 -1 -23.666 -1 -42.999c0 -50 12.167 -87.333 36.5 -112s56.833 -37 97.5 -37c26.667 0 49.667 4.33301 69 13s34.5 18.167 45.5 28.5s16.5 16.166 16.5 17.499l26 -24
c0 -2 -6.83301 -9.83301 -20.5 -23.5zM557.002 413.5c-28 -35.667 -46.332 -85.5 -54.999 -149.5h43c61.333 0 112.166 7.66699 152.499 23s60.5 47 60.5 95c0 24.667 -8.33301 45 -25 61s-40 24 -70 24c-42.667 0 -78 -17.833 -106 -53.5zM186.003 392
c-29.333 -49.333 -43.999 -119.333 -43.999 -210c0 -46.667 9.5 -83 28.5 -109s47.833 -39 86.5 -39c55.333 0 97.666 24.5 126.999 73.5s44 118.833 44 209.5c0 47.333 -9.5 84 -28.5 110s-47.5 39 -85.5 39c-56 0 -98.667 -24.667 -128 -74z" />
    <glyph glyph-name="Racute" unicode="&#x154;" horiz-adv-x="539" 
d="M470 841l-120 -135l-37 5l96 145zM342 650c59.333 0 105.333 -14.167 138 -42.5s49 -69.166 49 -122.499c0 -60.667 -14.167 -110.334 -42.5 -149.001s-64.5 -65.667 -108.5 -81l127 -255h-87l-116 241h-98l-34 -241h-76l91 650h157zM210 286l81 0.000976562
c104.667 0 157 66.667 157 200c0 39.333 -10.333 69.166 -31 89.499s-50.667 30.5 -90 30.5h-72z" />
    <glyph glyph-name="racute" unicode="&#x155;" horiz-adv-x="328" 
d="M392 706l-120 -135l-37 5l96 145zM341.5 448c-17 4 -32.167 6.00195 -45.5 6.00195c-18.667 0 -35.167 -6.33301 -49.5 -19s-25.666 -26.334 -33.999 -41.001s-13.5 -25.667 -15.5 -33v-1l-51 -360h-72l70 500h53l-3 -103c0 3.33301 4.66699 14.666 14 33.999
s22.5 37.333 39.5 54s37.5 25 61.5 25c12.667 0 27.667 -2.16699 45 -6.5s28.666 -7.5 33.999 -9.5l-13 -55c-5.33301 2 -16.5 5 -33.5 9z" />
    <glyph glyph-name="Rcommaaccent" unicode="&#x156;" horiz-adv-x="539" 
d="M342 650c59.333 0 105.333 -14.167 138 -42.5s49 -69.166 49 -122.499c0 -60.667 -14.167 -110.334 -42.5 -149.001s-64.5 -65.667 -108.5 -81l127 -255h-87l-116 241h-98l-34 -241h-76l91 650h157zM210 286l81 0.000976562c104.667 0 157 66.667 157 200
c0 39.333 -10.333 69.166 -31 89.499s-50.667 30.5 -90 30.5h-72zM274 -44.999c9.33301 0 17 -3 23 -9l4 -6c5.33301 -9.33301 8 -20.333 8 -33c0 -29.333 -10.667 -63.5 -32 -102.5s-47 -69.833 -77 -92.5l-16 19c24.667 20 44.5 44.5 59.5 73.5s22.167 55.167 21.5 78.5
c-10.667 0 -19 3 -25 9c-4.66699 5.33301 -7 12.333 -7 21c0 14 5 25 15 33c8 6 16.667 9 26 9z" />
    <glyph glyph-name="rcommaaccent" unicode="&#x157;" horiz-adv-x="328" 
d="M341.5 448c-17 4 -32.167 6.00195 -45.5 6.00195c-18.667 0 -35.167 -6.33301 -49.5 -19s-25.666 -26.334 -33.999 -41.001s-13.5 -25.667 -15.5 -33v-1l-51 -360h-72l70 500h53l-3 -103c0 3.33301 4.66699 14.666 14 33.999s22.5 37.333 39.5 54s37.5 25 61.5 25
c12.667 0 27.667 -2.16699 45 -6.5s28.666 -7.5 33.999 -9.5l-13 -55c-5.33301 2 -16.5 5 -33.5 9zM103 -44.998c9.33301 0 17 -3 23 -9l4 -6c5.33301 -9.33301 8 -20.333 8 -33c0 -29.333 -10.667 -63.5 -32 -102.5s-47 -69.833 -77 -92.5l-16 19
c24.667 20 44.5 44.5 59.5 73.5s22.167 55.167 21.5 78.5c-10.667 0 -19 3 -25 9c-4.66699 5.33301 -7 12.333 -7 21c0 14 5 25 15 33c8 6 16.667 9 26 9z" />
    <glyph glyph-name="Rcaron" unicode="&#x158;" horiz-adv-x="539" 
d="M230 831l31 24l96 -101l124 101l25 -26l-136 -121h-40zM342 650c59.333 0 105.333 -14.167 138 -42.5s49 -69.166 49 -122.499c0 -60.667 -14.167 -110.334 -42.5 -149.001s-64.5 -65.667 -108.5 -81l127 -255h-87l-116 241h-98l-34 -241h-76l91 650h157zM210 286
l81 0.000976562c104.667 0 157 66.667 157 200c0 39.333 -10.333 69.166 -31 89.499s-50.667 30.5 -90 30.5h-72z" />
    <glyph glyph-name="rcaron" unicode="&#x159;" horiz-adv-x="328" 
d="M145 696l31 24l96 -101l124 101l25 -26l-136 -121h-40zM341.5 448c-17 4 -32.167 6.00195 -45.5 6.00195c-18.667 0 -35.167 -6.33301 -49.5 -19s-25.666 -26.334 -33.999 -41.001s-13.5 -25.667 -15.5 -33v-1l-51 -360h-72l70 500h53l-3 -103
c0 3.33301 4.66699 14.666 14 33.999s22.5 37.333 39.5 54s37.5 25 61.5 25c12.667 0 27.667 -2.16699 45 -6.5s28.666 -7.5 33.999 -9.5l-13 -55c-5.33301 2 -16.5 5 -33.5 9z" />
    <glyph glyph-name="Sacute" unicode="&#x15a;" horiz-adv-x="490" 
d="M482 841l-120 -135l-37 5l96 145zM469 575c-12 9.33301 -27.665 18.0039 -46.998 26.0039s-41.666 12 -66.999 12c-42 0 -75.5 -11 -100.5 -33s-37.5 -52.333 -37.5 -91c0 -20.667 5.16699 -38.5 15.5 -53.5s23 -27.667 38 -38s35.833 -22.166 62.5 -35.499
c30 -16 54.167 -30.333 72.5 -43s33.833 -29.167 46.5 -49.5s19 -45.166 19 -74.499c0 -40 -9.83301 -75.5 -29.5 -106.5s-46.834 -55.167 -81.501 -72.5s-74 -26 -118 -26c-42.667 0 -77.834 6.66699 -105.501 20s-47.834 27.666 -60.501 42.999s-19 24.666 -19 27.999
l30 39c0 -2.66699 5.33301 -10.834 16 -24.501s27.334 -26.5 50.001 -38.5s51.334 -18 86.001 -18c48 0 85.5 13 112.5 39s40.5 58.333 40.5 97c0 20.667 -5.16699 38.5 -15.5 53.5s-23 27.667 -38 38s-35.833 22.166 -62.5 35.499c-29.333 15.333 -53 29.166 -71 41.499
s-33.333 28.5 -46 48.5s-19 44.333 -19 73c0 60 20 107.333 60 142s92.333 52 157 52c29.333 0 54.666 -4.16699 75.999 -12.5s38.166 -17.333 50.499 -27s18.5 -15.167 18.5 -16.5l-15 -44c0 1.33301 -6 6.66602 -18 15.999z" />
    <glyph glyph-name="sacute" unicode="&#x15b;" horiz-adv-x="408" 
d="M425 706l-120 -135l-37 5l96 145zM90.5 78c9 -10.667 22.001 -20.665 39.001 -29.998s37.833 -14 62.5 -14c41.333 0 72.833 10.667 94.5 32s32.5 46.666 32.5 75.999c0 16.667 -4.33301 30.5 -13 41.5s-19.167 19.667 -31.5 26s-29.5 14.166 -51.5 23.499
c-24.667 10 -44.834 19.333 -60.501 28s-28.834 20.667 -39.501 36s-16 35 -16 59c0 47.333 17.833 84.833 53.5 112.5s80.5 41.5 134.5 41.5c21.333 0 41.333 -3.16699 60 -9.5s34 -13.333 46 -21s18 -11.834 18 -12.501l-13 -43c-2.66699 2 -9.16699 6.5 -19.5 13.5
s-23.666 13.833 -39.999 20.5s-33.5 10 -51.5 10c-34.667 0 -62.667 -8.83301 -84 -26.5s-32 -39.834 -32 -66.501c0 -24 8.16699 -42.167 24.5 -54.5s41.166 -25.166 74.499 -38.499c26.667 -11.333 47.667 -21.333 63 -30s28.5 -20.667 39.5 -36s16.5 -35 16.5 -59
c0 -30 -7.33301 -57.667 -22 -83s-36.834 -45.666 -66.501 -60.999s-66.5 -23 -110.5 -23c-35.333 0 -64.166 5.33301 -86.499 16s-38.666 22 -48.999 34s-15.5 19.333 -15.5 22l30 35c0 -2 4.5 -8.33301 13.5 -19z" />
    <glyph glyph-name="Scedilla" unicode="&#x15e;" horiz-adv-x="490" 
d="M469 575c-12 9.33301 -27.6699 18 -47.0029 26s-41.666 12 -66.999 12c-42 0 -75.5 -11 -100.5 -33s-37.5 -52.333 -37.5 -91c0 -20.667 5.16699 -38.5 15.5 -53.5s23 -27.667 38 -38s35.833 -22.166 62.5 -35.499c30 -16 54.167 -30.333 72.5 -43
s33.833 -29.167 46.5 -49.5s19 -45.166 19 -74.499c0 -38.667 -9.16699 -73.167 -27.5 -103.5s-43.666 -54.333 -75.999 -72s-69.5 -27.5 -111.5 -29.5l-15 -59c0 -0.666992 7.66699 -3 23 -7s29.5 -11.5 42.5 -22.5s19.5 -26.5 19.5 -46.5
c0 -31.333 -10.167 -56.833 -30.5 -76.5s-49.5 -29.5 -87.5 -29.5c-20 0 -36.333 3.16699 -49 9.5s-22 13 -28 20s-9 11.167 -9 12.5l20 20c0.666992 -1.33301 3.33398 -4.66602 8.00098 -9.99902s11.5 -10.333 20.5 -15s20.167 -7 33.5 -7c25.333 0 44.5 6.5 57.5 19.5
s19.5 31.5 19.5 55.5c0 17.333 -6.33301 29.333 -19 36s-25.334 11.167 -38.001 13.5s-19 3.83301 -19 4.5l22 82c-39.333 2 -71.666 9.66699 -96.999 23s-43.833 27.333 -55.5 42s-17.5 23.334 -17.5 26.001l30 39c0 -2.66699 5.33301 -10.834 16 -24.501
s27.334 -26.5 50.001 -38.5s51.334 -18 86.001 -18c48 0 85.5 13 112.5 39s40.5 58.333 40.5 97c0 20.667 -5.16699 38.5 -15.5 53.5s-23 27.667 -38 38s-35.833 22.166 -62.5 35.499c-29.333 15.333 -53 29.166 -71 41.499s-33.333 28.5 -46 48.5s-19 44.333 -19 73
c0 60 20 107.333 60 142s92.333 52 157 52c29.333 0 54.666 -4.16699 75.999 -12.5s38.166 -17.333 50.499 -27s18.5 -15.167 18.5 -16.5l-15 -44c0 1.33301 -6 6.66602 -18 15.999z" />
    <glyph glyph-name="scedilla" unicode="&#x15f;" horiz-adv-x="408" 
d="M90.5 78c9 -10.667 22.002 -20.666 39.002 -29.999s37.833 -14 62.5 -14c41.333 0 72.833 10.667 94.5 32s32.5 46.666 32.5 75.999c0 16.667 -4.33301 30.5 -13 41.5s-19.167 19.667 -31.5 26s-29.5 14.166 -51.5 23.499c-24.667 10 -44.834 19.333 -60.501 28
s-28.834 20.667 -39.501 36s-16 35 -16 59c0 47.333 17.833 84.833 53.5 112.5s80.5 41.5 134.5 41.5c21.333 0 41.333 -3.16699 60 -9.5s34 -13.333 46 -21s18 -11.834 18 -12.501l-13 -43c-2.66699 2 -9.16699 6.5 -19.5 13.5s-23.666 13.833 -39.999 20.5
s-33.5 10 -51.5 10c-34.667 0 -62.667 -8.83301 -84 -26.5s-32 -39.834 -32 -66.501c0 -24 8.16699 -42.167 24.5 -54.5s41.166 -25.166 74.499 -38.499c26.667 -11.333 47.667 -21.333 63 -30s28.5 -20.667 39.5 -36s16.5 -35 16.5 -59
c0 -45.333 -15.5 -83.666 -46.5 -114.999s-76.5 -48.333 -136.5 -51l-15 -60c0 -0.666992 7.66699 -3 23 -7s29.5 -11.5 42.5 -22.5s19.5 -26.5 19.5 -46.5c0 -31.333 -10.167 -56.833 -30.5 -76.5s-49.5 -29.5 -87.5 -29.5c-20 0 -36.333 3.16699 -49 9.5s-22 13 -28 20
s-9 11.167 -9 12.5l20 20c0.666992 -1.33301 3.33398 -4.66602 8.00098 -9.99902s11.5 -10.333 20.5 -15s20.167 -7 33.5 -7c25.333 0 44.5 6.5 57.5 19.5s19.5 31.5 19.5 55.5c0 17.333 -6.33301 29.333 -19 36s-25.334 11.167 -38.001 13.5s-19 3.83301 -19 4.5l22 82
c-32 1.33301 -58.333 7.33301 -79 18s-35.667 21.667 -45 33s-14 18.333 -14 21l30 35c0 -2 4.5 -8.33301 13.5 -19z" />
    <glyph glyph-name="Scaron" unicode="&#x160;" horiz-adv-x="490" 
d="M238 831l31 24l96 -101l124 101l25 -26l-136 -121h-40zM469 575c-12 9.33301 -27.665 18.0039 -46.998 26.0039s-41.666 12 -66.999 12c-42 0 -75.5 -11 -100.5 -33s-37.5 -52.333 -37.5 -91c0 -20.667 5.16699 -38.5 15.5 -53.5s23 -27.667 38 -38
s35.833 -22.166 62.5 -35.499c30 -16 54.167 -30.333 72.5 -43s33.833 -29.167 46.5 -49.5s19 -45.166 19 -74.499c0 -40 -9.83301 -75.5 -29.5 -106.5s-46.834 -55.167 -81.501 -72.5s-74 -26 -118 -26c-42.667 0 -77.834 6.66699 -105.501 20
s-47.834 27.666 -60.501 42.999s-19 24.666 -19 27.999l30 39c0 -2.66699 5.33301 -10.834 16 -24.501s27.334 -26.5 50.001 -38.5s51.334 -18 86.001 -18c48 0 85.5 13 112.5 39s40.5 58.333 40.5 97c0 20.667 -5.16699 38.5 -15.5 53.5s-23 27.667 -38 38
s-35.833 22.166 -62.5 35.499c-29.333 15.333 -53 29.166 -71 41.499s-33.333 28.5 -46 48.5s-19 44.333 -19 73c0 60 20 107.333 60 142s92.333 52 157 52c29.333 0 54.666 -4.16699 75.999 -12.5s38.166 -17.333 50.499 -27s18.5 -15.167 18.5 -16.5l-15 -44
c0 1.33301 -6 6.66602 -18 15.999z" />
    <glyph glyph-name="scaron" unicode="&#x161;" horiz-adv-x="408" 
d="M169 696l31 24l96 -101l124 101l25 -26l-136 -121h-40zM90.5 78c9 -10.667 22.001 -20.665 39.001 -29.998s37.833 -14 62.5 -14c41.333 0 72.833 10.667 94.5 32s32.5 46.666 32.5 75.999c0 16.667 -4.33301 30.5 -13 41.5s-19.167 19.667 -31.5 26
s-29.5 14.166 -51.5 23.499c-24.667 10 -44.834 19.333 -60.501 28s-28.834 20.667 -39.501 36s-16 35 -16 59c0 47.333 17.833 84.833 53.5 112.5s80.5 41.5 134.5 41.5c21.333 0 41.333 -3.16699 60 -9.5s34 -13.333 46 -21s18 -11.834 18 -12.501l-13 -43
c-2.66699 2 -9.16699 6.5 -19.5 13.5s-23.666 13.833 -39.999 20.5s-33.5 10 -51.5 10c-34.667 0 -62.667 -8.83301 -84 -26.5s-32 -39.834 -32 -66.501c0 -24 8.16699 -42.167 24.5 -54.5s41.166 -25.166 74.499 -38.499c26.667 -11.333 47.667 -21.333 63 -30
s28.5 -20.667 39.5 -36s16.5 -35 16.5 -59c0 -30 -7.33301 -57.667 -22 -83s-36.834 -45.666 -66.501 -60.999s-66.5 -23 -110.5 -23c-35.333 0 -64.166 5.33301 -86.499 16s-38.666 22 -48.999 34s-15.5 19.333 -15.5 22l30 35c0 -2 4.5 -8.33301 13.5 -19z" />
    <glyph glyph-name="Tcaron" unicode="&#x164;" horiz-adv-x="461" 
d="M207 831l31 24l96 -101l124 101l25 -26l-136 -121h-40zM539 602h-186l-85 -602h-76l85 602h-185l7 48h447z" />
    <glyph glyph-name="tcaron" unicode="&#x165;" horiz-adv-x="326" 
d="M440 762l-82 -212l-31 3l64 216zM228 451l-42 -299c-2.66699 -18.667 -4 -36.667 -4 -54c0 -22 3.5 -37.5 10.5 -46.5s18.167 -13.5 33.5 -13.5c16.667 0 32 1.66699 46 5s21 5.33301 21 6l-1 -40c-1.33301 -1.33301 -5.66602 -3.5 -12.999 -6.5s-18 -5.83301 -32 -8.5
s-30.667 -4 -50 -4c-30.667 0 -53.334 7.5 -68.001 22.5s-22 39.5 -22 73.5c0 16 1.33301 32 4 48l44 317h-52l7 42l52 6l50 159h45l-22 -158h128l-7 -49h-128z" />
    <glyph glyph-name="Utilde" unicode="&#x168;" horiz-adv-x="620" 
d="M161.5 37.5c-33 31.667 -49.5 75.5 -49.5 131.5c0 14 1 28.333 3 43l62 438h75l-59 -421c-2 -16 -3 -31 -3 -45c0 -46.667 11.333 -82.167 34 -106.5s56 -36.5 100 -36.5c52.667 0 95 16.5 127 49.5s52 79.167 60 138.5l59 421h55l-62 -438
c-9.33301 -68 -35.333 -122 -78 -162s-101.667 -60 -177 -60c-64.667 0 -113.5 15.833 -146.5 47.5zM585 781c-8 -8.66699 -18.834 -16.8311 -32.501 -24.498s-29.5 -11.5 -47.5 -11.5c-13.333 0 -25.833 2 -37.5 6s-24.834 10 -39.501 18c-16 7.33301 -29 12.833 -39 16.5
s-20.667 5.5 -32 5.5s-21.833 -2.83301 -31.5 -8.5s-17.334 -11.667 -23.001 -18s-9.16699 -10.5 -10.5 -12.5l-20 25c0 1.33301 4.83301 7.5 14.5 18.5s22.334 21.167 38.001 30.5s33.167 14 52.5 14c14.667 0 28 -2.16699 40 -6.5s25.667 -10.5 41 -18.5
c13.333 -6.66699 24.833 -11.834 34.5 -15.501s19.834 -5.5 30.501 -5.5s20 2 28 6s14.333 8.16699 19 12.5s7.33398 7.16602 8.00098 8.49902l19 -25c0 -1.33301 -4 -6.33301 -12 -15z" />
    <glyph glyph-name="utilde" unicode="&#x169;" horiz-adv-x="510" 
d="M376 0l-3 48c-38.667 -38.667 -89.667 -58 -153 -58c-42.667 0 -75.667 10.667 -99 32s-35 52.666 -35 93.999c0 11.333 1 23 3 35l49 349h72l-46 -334c-2 -12 -3 -23 -3 -33c0 -60 29.667 -90 89 -90c24 0 45.333 3.83301 64 11.5s33.667 15.834 45 24.501
s17 13.667 17 15l58 406h73l-71 -500h-60zM499 631c-8 -8.66699 -18.834 -16.8311 -32.501 -24.498s-29.5 -11.5 -47.5 -11.5c-13.333 0 -25.833 2 -37.5 6s-24.834 10 -39.501 18c-16 7.33301 -29 12.833 -39 16.5s-20.667 5.5 -32 5.5s-21.833 -2.83301 -31.5 -8.5
s-17.334 -11.667 -23.001 -18s-9.16699 -10.5 -10.5 -12.5l-20 25c0 1.33301 4.83301 7.5 14.5 18.5s22.334 21.167 38.001 30.5s33.167 14 52.5 14c14.667 0 28 -2.16699 40 -6.5s25.667 -10.5 41 -18.5c13.333 -6.66699 24.833 -11.834 34.5 -15.501
s19.834 -5.5 30.501 -5.5s20 2 28 6s14.333 8.16699 19 12.5s7.33398 7.16602 8.00098 8.49902l19 -25c0 -1.33301 -4 -6.33301 -12 -15z" />
    <glyph glyph-name="Umacron" unicode="&#x16a;" horiz-adv-x="620" 
d="M510 771h-185l5 36h185zM161.5 37.5c-33 31.667 -49.5 75.5 -49.5 131.5c0 14 1 28.333 3 43l62 438h75l-59 -421c-2 -16 -3 -31 -3 -45c0 -46.667 11.333 -82.167 34 -106.5s56 -36.5 100 -36.5c52.667 0 95 16.5 127 49.5s52 79.167 60 138.5l59 421h55l-62 -438
c-9.33301 -68 -35.333 -122 -78 -162s-101.667 -60 -177 -60c-64.667 0 -113.5 15.833 -146.5 47.5z" />
    <glyph glyph-name="umacron" unicode="&#x16b;" horiz-adv-x="510" 
d="M438 636h-185l5 36h185zM376 0l-3 48c-38.667 -38.667 -89.667 -58 -153 -58c-42.667 0 -75.667 10.667 -99 32s-35 52.666 -35 93.999c0 11.333 1 23 3 35l49 349h72l-46 -334c-2 -12 -3 -23 -3 -33c0 -60 29.667 -90 89 -90c24 0 45.333 3.83301 64 11.5
s33.667 15.834 45 24.501s17 13.667 17 15l58 406h73l-71 -500h-60z" />
    <glyph glyph-name="Uring" unicode="&#x16e;" horiz-adv-x="620" 
d="M476 714.5c-19.333 -19 -43.667 -28.499 -73 -28.499c-24 0 -43 6.66699 -57 20s-21 32.666 -21 57.999c0 34 9.83301 60.667 29.5 80s44.167 29 73.5 29c22.667 0 41.167 -7 55.5 -21s21.5 -33.667 21.5 -59c0 -33.333 -9.66699 -59.5 -29 -78.5zM462.499 832.001
c-9.66699 9.33301 -22.167 14 -37.5 14c-20.667 0 -37.667 -6.66699 -51 -20s-20 -33 -20 -59c0 -18 4.83301 -31.667 14.5 -41s22.5 -14 38.5 -14c20.667 0 37.5 6.66699 50.5 20s19.5 33 19.5 59c0 18 -4.83301 31.667 -14.5 41zM161.499 37.501
c-33 31.667 -49.5 75.5 -49.5 131.5c0 14 1 28.333 3 43l62 438h75l-59 -421c-2 -16 -3 -31 -3 -45c0 -46.667 11.333 -82.167 34 -106.5s56 -36.5 100 -36.5c52.667 0 95 16.5 127 49.5s52 79.167 60 138.5l59 421h55l-62 -438c-9.33301 -68 -35.333 -122 -78 -162
s-101.667 -60 -177 -60c-64.667 0 -113.5 15.833 -146.5 47.5z" />
    <glyph glyph-name="uring" unicode="&#x16f;" horiz-adv-x="510" 
d="M405 579.5c-19.333 -19 -43.667 -28.499 -73 -28.499c-24 0 -43 6.66699 -57 20s-21 32.666 -21 57.999c0 34 9.83301 60.667 29.5 80s44.167 29 73.5 29c22.667 0 41.167 -7 55.5 -21s21.5 -33.667 21.5 -59c0 -33.333 -9.66699 -59.5 -29 -78.5zM391.499 697.001
c-9.66699 9.33301 -22.167 14 -37.5 14c-20.667 0 -37.667 -6.66699 -51 -20s-20 -33 -20 -59c0 -18 4.83301 -31.667 14.5 -41s22.5 -14 38.5 -14c20.667 0 37.5 6.66699 50.5 20s19.5 33 19.5 59c0 18 -4.83301 31.667 -14.5 41zM375.999 0.000976562l-3 48
c-38.667 -38.667 -89.667 -58 -153 -58c-42.667 0 -75.667 10.667 -99 32s-35 52.666 -35 93.999c0 11.333 1 23 3 35l49 349h72l-46 -334c-2 -12 -3 -23 -3 -33c0 -60 29.667 -90 89 -90c24 0 45.333 3.83301 64 11.5s33.667 15.834 45 24.501s17 13.667 17 15l58 406h73
l-71 -500h-60z" />
    <glyph glyph-name="Uhungarumlaut" unicode="&#x170;" horiz-adv-x="620" 
d="M372 853l50 -13l-82 -129l-31 14zM501 853l50 -13l-82 -129l-31 14zM161.5 37.5c-33 31.667 -49.5 75.5 -49.5 131.5c0 14 1 28.333 3 43l62 438h75l-59 -421c-2 -16 -3 -31 -3 -45c0 -46.667 11.333 -82.167 34 -106.5s56 -36.5 100 -36.5c52.667 0 95 16.5 127 49.5
s52 79.167 60 138.5l59 421h55l-62 -438c-9.33301 -68 -35.333 -122 -78 -162s-101.667 -60 -177 -60c-64.667 0 -113.5 15.833 -146.5 47.5z" />
    <glyph glyph-name="uhungarumlaut" unicode="&#x171;" horiz-adv-x="510" 
d="M310 718l50 -13l-82 -129l-31 14zM439 718l50 -13l-82 -129l-31 14zM376 0l-3 48c-38.667 -38.667 -89.667 -58 -153 -58c-42.667 0 -75.667 10.667 -99 32s-35 52.666 -35 93.999c0 11.333 1 23 3 35l49 349h72l-46 -334c-2 -12 -3 -23 -3 -33c0 -60 29.667 -90 89 -90
c24 0 45.333 3.83301 64 11.5s33.667 15.834 45 24.501s17 13.667 17 15l58 406h73l-71 -500h-60z" />
    <glyph glyph-name="Uogonek" unicode="&#x172;" horiz-adv-x="620" 
d="M161.5 37.5c-33 31.667 -49.502 75.5 -49.502 131.5c0 14 1 28.333 3 43l62 438h75l-59 -421c-2 -16 -3 -31 -3 -45c0 -46.667 11.333 -82.167 34 -106.5s56 -36.5 100 -36.5c52.667 0 95 16.5 127 49.5s52 79.167 60 138.5l59 421h55l-62 -438
c-8 -56 -27.167 -102.833 -57.5 -140.5s-71.833 -62.167 -124.5 -73.5c-23.333 -14 -45.333 -33.333 -66 -58s-31 -55.334 -31 -92.001c0 -25.333 8.83301 -42.666 26.5 -51.999s40.834 -14 69.501 -14l-5 -32c-41.333 0 -75.166 6.66699 -101.499 20s-39.5 38 -39.5 74
c0 53.333 31.333 102.333 94 147c-4 -0.666992 -10.667 -1 -20 -1c-64.667 0 -113.5 15.833 -146.5 47.5z" />
    <glyph glyph-name="uogonek" unicode="&#x173;" horiz-adv-x="510" 
d="M417 0c-22 -12 -44.335 -30.834 -67.002 -56.501s-34 -57.5 -34 -95.5c0 -25.333 8.83301 -42.666 26.5 -51.999s40.834 -14 69.501 -14l-5 -32c-41.333 0 -75.166 6.66699 -101.499 20s-39.5 38 -39.5 74c0 33.333 11.167 63.333 33.5 90s47.833 49 76.5 67l-3 47
c-38.667 -38.667 -89.667 -58 -153 -58c-42.667 0 -75.667 10.667 -99 32s-35 52.666 -35 93.999c0 11.333 1 23 3 35l49 349h72l-46 -334c-2 -12 -3 -23 -3 -33c0 -60 29.667 -90 89 -90c24 0 45.333 3.83301 64 11.5s33.667 15.834 45 24.501s17 13.667 17 15l58 406h73
l-71 -500h-19z" />
    <glyph glyph-name="Ydieresis" unicode="&#x178;" horiz-adv-x="507" 
d="M292 819c10 0 18.333 -3.33398 25 -10.001c5.33301 -5.33301 8 -13 8 -23c0 -13.333 -5.33301 -25.333 -16 -36c-8.66699 -6.66699 -17.667 -10 -27 -10c-10 0 -18.333 3.33301 -25 10c-5.33301 6.66699 -8 14.334 -8 23.001c0 13.333 5.33301 25.333 16 36
c8.66699 6.66699 17.667 10 27 10zM446 818.999c10 0 18.333 -3.33301 25 -10c5.33301 -6.66699 8 -14.334 8 -23.001c0 -13.333 -5.33301 -25.333 -16 -36c-8.66699 -6.66699 -18 -10 -28 -10c-9.33301 0 -17.333 3.33301 -24 10c-5.33301 6.66699 -8 14.334 -8 23.001
c0 13.333 5.33301 25.333 16 36c8.66699 6.66699 17.667 10 27 10zM178 649.999l134 -320l223 320h61l-266 -377l-37 -273h-76l37 269l-161 381h85z" />
    <glyph glyph-name="Zacute" unicode="&#x179;" horiz-adv-x="527" 
d="M492 841l-120 -135l-37 5l96 145zM570 609l-431 -561h353l-7 -48h-445l6 40l430 562h-342l6 48h436z" />
    <glyph glyph-name="zacute" unicode="&#x17a;" horiz-adv-x="415" 
d="M428 706l-120 -135l-37 5l96 145zM440 460l-313 -415h252l-4 -45h-340l6 40l314 415h-234l3 45h321z" />
    <glyph glyph-name="Zdotaccent" unicode="&#x17b;" horiz-adv-x="527" 
d="M377 822c12 0 21.334 -3.33398 28.001 -10.001c5.33301 -6 8 -14.667 8 -26c0 -14.667 -5.66699 -27.667 -17 -39c-10.667 -7.33301 -21.334 -11 -32.001 -11c-12 0 -21 3.66699 -27 11s-9 16 -9 26c0 7.33301 1.5 14.333 4.5 21s7.5 12.334 13.5 17.001
c8 7.33301 18.333 11 31 11zM570.001 608.999l-431 -561h353l-7 -48h-445l6 40l430 562h-342l6 48h436z" />
    <glyph glyph-name="zdotaccent" unicode="&#x17c;" horiz-adv-x="415" 
d="M317 687c12 0 21.334 -3.33398 28.001 -10.001c5.33301 -6 8 -14.667 8 -26c0 -14.667 -5.66699 -27.667 -17 -39c-10.667 -7.33301 -21.334 -11 -32.001 -11c-12 0 -21 3.66699 -27 11s-9 16 -9 26c0 7.33301 1.5 14.333 4.5 21s7.5 12.334 13.5 17.001
c8 7.33301 18.333 11 31 11zM440.001 459.999l-313 -415h252l-4 -45h-340l6 40l314 415h-234l3 45h321z" />
    <glyph glyph-name="Zcaron" unicode="&#x17d;" horiz-adv-x="527" 
d="M249 831l31 24l96 -101l124 101l25 -26l-136 -121h-40zM570 609l-431 -561h353l-7 -48h-445l6 40l430 562h-342l6 48h436z" />
    <glyph glyph-name="zcaron" unicode="&#x17e;" horiz-adv-x="415" 
d="M181 696l31 24l96 -101l124 101l25 -26l-136 -121h-40zM440 460l-313 -415h252l-4 -45h-340l6 40l314 415h-234l3 45h321z" />
    <glyph glyph-name="longs" unicode="&#x17f;" horiz-adv-x="286" 
d="M222.5 713.5c24.333 30.333 60.165 45.5029 107.498 45.5029c16 0 30.667 -2.16699 44 -6.5s24 -8.83301 32 -13.5s13 -7.66699 15 -9l-16 -39c-1.33301 1.33301 -5.16602 3.83301 -11.499 7.5s-14.666 7.16699 -24.999 10.5s-21.5 5 -33.5 5
c-25.333 0 -44.833 -10.833 -58.5 -32.5s-24.5 -61.167 -32.5 -118.5l-86 -604c-20.667 -146 -77.667 -219 -171 -219c-16 0 -29.167 1.66699 -39.5 5s-18 6.66602 -23 9.99902s-7.83301 5.66602 -8.5 6.99902l21 41c0.666992 -0.666992 2.83398 -2.33398 6.50098 -5.00098
s9 -5.16699 16 -7.5s15.167 -3.5 24.5 -3.5c26.667 0 48.167 13.333 64.5 40s28.833 70.667 37.5 132l86 612c9.33301 64.667 26.166 112.167 50.499 142.5z" />
    <glyph glyph-name="florin" unicode="&#x192;" horiz-adv-x="282" 
d="M109 451l5.99902 42.002l52 6v1l10 71c9.33301 64 26.333 111.333 51 142s60.334 46 107.001 46c16 0 30.667 -2.16699 44 -6.5s24 -8.83301 32 -13.5s13 -7.66699 15 -9l-15 -39c-1.33301 1.33301 -5.33301 3.83301 -12 7.5s-15.167 7.16699 -25.5 10.5s-21.5 5 -33.5 5
c-25.333 0 -45 -10.833 -59 -32.5s-25 -61.167 -33 -118.5l-9 -63h146l-7 -49h-146l-33 -236l-36 -260c-10.667 -74.667 -31.667 -129.167 -63 -163.5s-66.333 -51.5 -105 -51.5c-16 0 -29 1.16699 -39 3.5s-17 4.66602 -21 6.99902s-6.33301 3.83301 -7 4.5l20 47
c0 -0.666992 4.66699 -2.33398 14 -5.00098s20.333 -4 33 -4c20.667 0 39.667 12.5 57 37.5s30 66.5 38 124.5l70 496h-51z" />
    <glyph glyph-name="Ohorn" unicode="&#x1a0;" horiz-adv-x="654" 
d="M630 533c18 -40.667 27.002 -86.666 27.002 -137.999c0 -82 -14.833 -153.667 -44.5 -215s-69.334 -108.333 -119.001 -141s-104.167 -49 -163.5 -49c-76 0 -135.333 24 -178 72s-64 114 -64 198c0 78.667 13.167 148.167 39.5 208.5s64.166 107.166 113.499 140.499
s107 50 173 50c27.333 0 52.333 -3 75 -9c20.667 1.33301 38 9 52 23s24 36 30 66h62c-5.33301 -26.667 -15.5 -49.5 -30.5 -68.5s-33.5 -33.833 -55.5 -44.5c37.333 -21.333 65 -52.333 83 -93zM455.502 78.501c37 27 66.501 67.999 88.501 122.999s33 122.167 33 201.5
c0 61.333 -13.833 111.333 -41.5 150s-69.5 58 -125.5 58c-48.667 0 -91.334 -13.833 -128.001 -41.5s-65 -68.667 -85 -123s-30 -120.166 -30 -197.499c0 -66 14.667 -117.667 44 -155s70.333 -56 123 -56c44 0 84.5 13.5 121.5 40.5z" />
    <glyph glyph-name="ohorn" unicode="&#x1a1;" horiz-adv-x="501" 
d="M503 304c0 -62.667 -10.166 -117.667 -30.499 -165s-49.666 -84 -87.999 -110s-83.833 -39 -136.5 -39c-58 0 -102.667 18 -134 54s-47 86.667 -47 152c0 95.333 22.167 171.5 66.5 228.5s107.166 85.5 188.499 85.5c26 0 48 -3.33301 66 -10
c21.333 1.33301 39.166 9 53.499 23s24.5 36 30.5 66h62c-6 -28.667 -17.333 -53 -34 -73s-37 -34.667 -61 -44c42.667 -35.333 64 -91.333 64 -168zM384.001 107.5c29.333 49 44.001 118.833 44.001 209.5c0 47.333 -9.5 84 -28.5 110s-47.5 39 -85.5 39
c-56 0 -98.667 -24.667 -128 -74s-44 -119.333 -44 -210c0 -46.667 9.5 -83 28.5 -109s47.833 -39 86.5 -39c55.333 0 97.666 24.5 126.999 73.5z" />
    <glyph glyph-name="Uhorn" unicode="&#x1af;" horiz-adv-x="620" 
d="M703 653c-23.333 -21.333 -51.001 -35 -83.001 -41l-57 -400c-9.33301 -68 -35.333 -122 -78 -162s-101.667 -60 -177 -60c-64.667 0 -113.5 15.833 -146.5 47.5s-49.5 75.5 -49.5 131.5c0 14 1 28.333 3 43l62 438h75l-59 -421c-2 -16 -3 -31 -3 -45
c0 -46.667 11.333 -82.167 34 -106.5s56 -36.5 100 -36.5c52.667 0 95 16.5 127 49.5s52 79.167 60 138.5l59 421h28c22.667 0 41.5 7 56.5 21s25.833 36.667 32.5 68h62c-7.33301 -36 -22.666 -64.667 -45.999 -86z" />
    <glyph glyph-name="uhorn" unicode="&#x1b0;" horiz-adv-x="510" 
d="M575.5 509c-20.333 -20.667 -44.833 -34.999 -73.5 -42.999l-66 -466h-60l-3 48c-38.667 -38.667 -89.667 -58 -153 -58c-42.667 0 -75.667 10.667 -99 32s-35 52.666 -35 93.999c0 11.333 1 23 3 35l49 349h72l-46 -334c-2 -12 -3 -23 -3 -33c0 -60 29.667 -90 89 -90
c24 0 45.333 3.83301 64 11.5s33.667 15.834 45 24.501s17 13.667 17 15l58 406h30c22.667 0 41.5 7 56.5 21s25.833 36.667 32.5 68h62c-6 -32.667 -19.167 -59.334 -39.5 -80.001z" />
    <glyph glyph-name="uni021A" unicode="&#x21a;" horiz-adv-x="461" 
d="M539 602h-186l-85 -602h-76l85 602h-185l7 48h447zM232 -45c9.33301 0 17 -3 23 -9l4 -6c5.33301 -9.33301 8 -20.333 8 -33c0 -29.333 -10.667 -63.5 -32 -102.5s-47 -69.833 -77 -92.5l-16 19c24.667 20 44.5 44.5 59.5 73.5s22.167 55.167 21.5 78.5
c-10.667 0 -19 3 -25 9c-4.66699 5.33301 -7 12.333 -7 21c0 14 5 25 15 33c8 6 16.667 9 26 9z" />
    <glyph glyph-name="uni021B" unicode="&#x21b;" horiz-adv-x="326" 
d="M228 451l-42 -299c-2.66699 -18.667 -4 -36.667 -4 -54c0 -22 3.5 -37.5 10.5 -46.5s18.167 -13.5 33.5 -13.5c16.667 0 32 1.66699 46 5s21 5.33301 21 6l-1 -40c-1.33301 -1.33301 -5.66602 -3.5 -12.999 -6.5s-18 -5.83301 -32 -8.5s-30.667 -4 -50 -4
c-30.667 0 -53.334 7.5 -68.001 22.5s-22 39.5 -22 73.5c0 16 1.33301 32 4 48l44 317h-52l7 42l52 6l50 159h45l-22 -158h128l-7 -49h-128zM163 -45c9.33301 0 17 -3 23 -9l4 -6c5.33301 -9.33301 8 -20.333 8 -33c0 -29.333 -10.667 -63.5 -32 -102.5
s-47 -69.833 -77 -92.5l-16 19c24.667 20 44.5 44.5 59.5 73.5s22.167 55.167 21.5 78.5c-10.667 0 -19 3 -25 9c-4.66699 5.33301 -7 12.333 -7 21c0 14 5 25 15 33c8 6 16.667 9 26 9z" />
    <glyph glyph-name="uni0237" unicode="&#x237;" horiz-adv-x="238" 
d="M235 500l-76.001 -540.997c-20.667 -146 -78 -219 -172 -219c-16 0 -29.167 1.66699 -39.5 5s-18 6.66602 -23 9.99902s-7.83301 5.66602 -8.5 6.99902l21 41c0.666992 -0.666992 2.83398 -2.33398 6.50098 -5.00098s9 -5.16699 16 -7.5s15.167 -3.5 24.5 -3.5
c26.667 0 48.167 13.333 64.5 40s28.833 70.667 37.5 132l76 541h73z" />
    <glyph glyph-name="uni02BC" unicode="&#x2bc;" horiz-adv-x="141" 
d="M173 754c10 0 18.667 -3.66797 26 -11.001l3 -6l3 -5l1 -2c2.66699 -9.33301 4 -17.333 4 -24c0 -20 -5.5 -43.833 -16.5 -71.5s-25.5 -54.5 -43.5 -80.5s-37.333 -46.667 -58 -62l-19 23c24.667 19.333 45.5 44.333 62.5 75s26.833 58.334 29.5 83.001h-3
c-10.667 0 -19.334 3.33301 -26.001 10c-5.33301 6 -8 14 -8 24c0 15.333 5.33301 27.333 16 36c8.66699 7.33301 18.334 11 29.001 11z" />
    <glyph glyph-name="circumflex" unicode="&#x2c6;" horiz-adv-x="336" 
d="M384 629l-23 -32l-96 97l-123 -97l-15 32l125 114h40z" />
    <glyph glyph-name="caron" unicode="&#x2c7;" horiz-adv-x="336" 
d="M128 696l31 24l96 -101l124 101l25 -26l-136 -121h-40z" />
    <glyph glyph-name="breve" unicode="&#x2d8;" horiz-adv-x="353" 
d="M321.5 633c15 8.66699 26.001 18 33.001 28s10.5 16 10.5 18v2l45 -6c0 -4 -4.83301 -14.167 -14.5 -30.5s-25.834 -31.833 -48.501 -46.5s-52.667 -22 -90 -22c-52.667 0 -86.5 12.167 -101.5 36.5s-22.5 45.166 -22.5 62.499l46 6v-2
c0 -3.33301 1.83301 -9.66602 5.5 -18.999s11.667 -18.333 24 -27s30.5 -13 54.5 -13s43.5 4.33301 58.5 13z" />
    <glyph glyph-name="dotaccent" unicode="&#x2d9;" horiz-adv-x="365" 
d="M308 687c12 0 21.334 -3.33398 28.001 -10.001c5.33301 -6 8 -14.667 8 -26c0 -14.667 -5.66699 -27.667 -17 -39c-10.667 -7.33301 -21.334 -11 -32.001 -11c-12 0 -21 3.66699 -27 11s-9 16 -9 26c0 7.33301 1.5 14.333 4.5 21s7.5 12.334 13.5 17.001
c8 7.33301 18.333 11 31 11z" />
    <glyph glyph-name="ring" unicode="&#x2da;" horiz-adv-x="409" 
d="M303 579.5c-19.333 -19 -43.667 -28.499 -73 -28.499c-24 0 -43 6.66699 -57 20s-21 32.666 -21 57.999c0 34 9.83301 60.667 29.5 80s44.167 29 73.5 29c22.667 0 41.167 -7 55.5 -21s21.5 -33.667 21.5 -59c0 -33.333 -9.66699 -59.5 -29 -78.5zM289.499 697.001
c-9.66699 9.33301 -22.167 14 -37.5 14c-20.667 0 -37.667 -6.66699 -51 -20s-20 -33 -20 -59c0 -18 4.83301 -31.667 14.5 -41s22.5 -14 38.5 -14c20.667 0 37.5 6.66699 50.5 20s19.5 33 19.5 59c0 18 -4.83301 31.667 -14.5 41z" />
    <glyph glyph-name="ogonek" unicode="&#x2db;" horiz-adv-x="233" 
d="M143.5 -15c-20.333 -14.667 -38.502 -33.499 -54.502 -56.499s-24 -49.833 -24 -80.5c0 -25.333 8.83301 -42.666 26.5 -51.999s40.834 -14 69.501 -14l-5 -32c-41.333 0 -75.166 6.66699 -101.499 20s-39.5 38 -39.5 74c0 33.333 11 63.166 33 89.499
s46.833 48.166 74.5 65.499s41.5 25 41.5 23l10 -18c0 2 -10.167 -4.33301 -30.5 -19z" />
    <glyph glyph-name="tilde" unicode="&#x2dc;" horiz-adv-x="396" 
d="M439 631c-8 -8.66699 -18.834 -16.8311 -32.501 -24.498s-29.5 -11.5 -47.5 -11.5c-13.333 0 -25.833 2 -37.5 6s-24.834 10 -39.501 18c-16 7.33301 -29 12.833 -39 16.5s-20.667 5.5 -32 5.5s-21.833 -2.83301 -31.5 -8.5s-17.334 -11.667 -23.001 -18
s-9.16699 -10.5 -10.5 -12.5l-20 25c0 1.33301 4.83301 7.5 14.5 18.5s22.334 21.167 38.001 30.5s33.167 14 52.5 14c14.667 0 28 -2.16699 40 -6.5s25.667 -10.5 41 -18.5c13.333 -6.66699 24.833 -11.834 34.5 -15.501s19.834 -5.5 30.501 -5.5s20 2 28 6
s14.333 8.16699 19 12.5s7.33398 7.16602 8.00098 8.49902l19 -25c0 -1.33301 -4 -6.33301 -12 -15z" />
    <glyph glyph-name="hungarumlaut" unicode="&#x2dd;" horiz-adv-x="375" 
d="M221 718l50 -13l-82 -129l-31 14zM350 718l50 -13l-82 -129l-31 14z" />
    <glyph glyph-name="gravecomb" unicode="&#x300;" horiz-adv-x="0" 
d="M-60 724l63 -143l-42 -8l-85 135z" />
    <glyph glyph-name="acutecomb" unicode="&#x301;" horiz-adv-x="0" 
d="M23 706l-120 -135l-37 5l96 145z" />
    <glyph glyph-name="uni0302" unicode="&#x302;" horiz-adv-x="0" 
d="M6 598l-23 -32l-96 97l-123 -97l-15 32l125 114h40z" />
    <glyph glyph-name="tildecomb" unicode="&#x303;" horiz-adv-x="0" 
d="M1 631c-8 -8.66699 -18.834 -16.8311 -32.501 -24.498s-29.5 -11.5 -47.5 -11.5c-13.333 0 -25.833 2 -37.5 6s-24.834 10 -39.501 18c-16 7.33301 -29 12.833 -39 16.5s-20.667 5.5 -32 5.5s-21.833 -2.83301 -31.5 -8.5s-17.334 -11.667 -23.001 -18
s-9.16699 -10.5 -10.5 -12.5l-20 25c0 1.33301 4.83301 7.5 14.5 18.5s22.334 21.167 38.001 30.5s33.167 14 52.5 14c14.667 0 28 -2.16699 40 -6.5s25.667 -10.5 41 -18.5c13.333 -6.66699 24.833 -11.834 34.5 -15.501s19.834 -5.5 30.501 -5.5s20 2 28 6
s14.333 8.16699 19 12.5s7.33398 7.16602 8.00098 8.49902l19 -25c0 -1.33301 -4 -6.33301 -12 -15z" />
    <glyph glyph-name="uni0304" unicode="&#x304;" horiz-adv-x="0" 
d="M12 636h-185l5 36h185z" />
    <glyph glyph-name="uni0306" unicode="&#x306;" horiz-adv-x="0" 
d="M-70.5 633c15 8.66699 26.001 18 33.001 28s10.5 16 10.5 18v2l45 -6c0 -4 -4.83301 -14.167 -14.5 -30.5s-25.834 -31.833 -48.501 -46.5s-52.667 -22 -90 -22c-52.667 0 -86.5 12.167 -101.5 36.5s-22.5 45.166 -22.5 62.499l46 6v-2
c0 -3.33301 1.83301 -9.66602 5.5 -18.999s11.667 -18.333 24 -27s30.5 -13 54.5 -13s43.5 4.33301 58.5 13z" />
    <glyph glyph-name="uni0307" unicode="&#x307;" horiz-adv-x="0" 
d="M-22 687c12 0 21.334 -3.33398 28.001 -10.001c5.33301 -6 8 -14.667 8 -26c0 -14.667 -5.66699 -27.667 -17 -39c-10.667 -7.33301 -21.334 -11 -32.001 -11c-12 0 -21 3.66699 -27 11s-9 16 -9 26c0 7.33301 1.5 14.333 4.5 21s7.5 12.334 13.5 17.001
c8 7.33301 18.333 11 31 11z" />
    <glyph glyph-name="uni0308" unicode="&#x308;" horiz-adv-x="0" 
d="M-172 684c9.33301 0 17.333 -3.33398 24 -10.001c5.33301 -5.33301 8 -13 8 -23c0 -13.333 -5.33301 -25.333 -16 -36c-8.66699 -6.66699 -17.667 -10 -27 -10c-10 0 -18.333 3.33301 -25 10c-5.33301 6.66699 -8 14.334 -8 23.001c0 13.333 5.33301 25.333 16 36
c8.66699 6.66699 18 10 28 10zM-19 683.999c10 0 18.333 -3.33301 25 -10c5.33301 -6.66699 8 -14.334 8 -23.001c0 -13.333 -5.33301 -25.333 -16 -36c-8.66699 -6.66699 -18 -10 -28 -10c-9.33301 0 -17.333 3.33301 -24 10c-5.33301 6.66699 -8 14.334 -8 23.001
c0 13.333 5.33301 25.333 16 36c8.66699 6.66699 17.667 10 27 10z" />
    <glyph glyph-name="hookabovecomb" unicode="&#x309;" horiz-adv-x="0" 
d="M-143 567c0.666992 4 7.00098 10.3369 19.001 19.0039c9.33301 6.66699 16.833 13 22.5 19s9.5 13 11.5 21c0.666992 3.33301 1 7.66602 1 12.999c0 9.33301 -2.5 16.166 -7.5 20.499s-13.167 6.5 -24.5 6.5c-8 0 -15.5 -1.33301 -22.5 -4s-12.667 -5.33398 -17 -8.00098
s-6.83301 -4.33398 -7.5 -5.00098l-14 43c2 1.33301 6.83301 3.5 14.5 6.5s17 6 28 9s21.5 4.5 31.5 4.5c20.667 0 37.667 -5 51 -15s20 -25.333 20 -46c0 -8.66699 -0.666992 -15.667 -2 -21c-2 -12.667 -6.5 -22.5 -13.5 -29.5s-16.833 -14.5 -29.5 -22.5
c-7.33301 -4.66699 -12.833 -8.5 -16.5 -11.5s-5.83398 -6.83301 -6.50098 -11.5l-2 -8l-39 -1c0 2 1 9 3 21z" />
    <glyph glyph-name="uni030A" unicode="&#x30a;" horiz-adv-x="0" 
d="M-16 579.5c-19.333 -19 -43.667 -28.499 -73 -28.499c-24 0 -43 6.66699 -57 20s-21 32.666 -21 57.999c0 34 9.83301 60.667 29.5 80s44.167 29 73.5 29c22.667 0 41.167 -7 55.5 -21s21.5 -33.667 21.5 -59c0 -33.333 -9.66699 -59.5 -29 -78.5zM-29.501 697.001
c-9.66699 9.33301 -22.167 14 -37.5 14c-20.667 0 -37.667 -6.66699 -51 -20s-20 -33 -20 -59c0 -18 4.83301 -31.667 14.5 -41s22.5 -14 38.5 -14c20.667 0 37.5 6.66699 50.5 20s19.5 33 19.5 59c0 18 -4.83301 31.667 -14.5 41z" />
    <glyph glyph-name="uni030B" unicode="&#x30b;" horiz-adv-x="0" 
d="M-156 718l50 -13l-82 -129l-31 14zM-27 718l50 -13l-82 -129l-31 14z" />
    <glyph glyph-name="uni030C" unicode="&#x30c;" horiz-adv-x="0" 
d="M-255 696l31 24l96 -101l124 101l25 -26l-136 -121h-40z" />
    <glyph glyph-name="uni031B" unicode="&#x31b;" horiz-adv-x="0" 
d="M-186 500c22.667 0 41.5 6.99902 56.5 20.999s25.833 36.667 32.5 68h62c-8 -41.333 -27 -73.166 -57 -95.499s-64 -33.5 -102 -33.5z" />
    <glyph glyph-name="dotbelowcomb" unicode="&#x323;" horiz-adv-x="0" 
d="M-178 -79c12 0 21.332 -3.66699 27.999 -11c5.33301 -5.33301 8 -13.333 8 -24c0 -14.667 -5.33301 -27 -16 -37c-9.33301 -7.33301 -19.666 -11 -30.999 -11c-12.667 0 -21.667 3.66699 -27 11c-6 6 -9 14 -9 24c0 14.667 5.66699 27 17 37c8 7.33301 18 11 30 11z" />
    <glyph glyph-name="uni0326" unicode="&#x326;" horiz-adv-x="0" 
d="M-160 -122c10.667 0 19.334 -3.33398 26.001 -10.001l4 -6c4 -8 6 -18 6 -30c0 -20 -5.33301 -43.833 -16 -71.5s-25 -54.5 -43 -80.5s-37.333 -47 -58 -63l-18 23c24 19.333 44.5 44.333 61.5 75s26.5 58.334 28.5 83.001c-12.667 0 -22.334 3.33301 -29.001 10
c-5.33301 6.66699 -8 14.667 -8 24c0 14 5.66699 26 17 36c7.33301 6.66699 17 10 29 10z" />
    <glyph glyph-name="uni0327" unicode="&#x327;" horiz-adv-x="0" 
d="M-199 -66c0 -0.666992 7.66699 -3.00098 23 -7.00098s29.5 -11.5 42.5 -22.5s19.5 -26.5 19.5 -46.5c0 -31.333 -10.167 -56.833 -30.5 -76.5s-49.5 -29.5 -87.5 -29.5c-20 0 -36.333 3.16699 -49 9.5s-22 13 -28 20s-9 11.167 -9 12.5l20 20
c0.666992 -1.33301 3.33398 -4.66602 8.00098 -9.99902s11.5 -10.333 20.5 -15s20.167 -7 33.5 -7c25.333 0 44.5 6.5 57.5 19.5s19.5 31.5 19.5 55.5c0 17.333 -6.33301 29.333 -19 36s-25.334 11.167 -38.001 13.5s-19 3.83301 -19 4.5l24 89h29z" />
    <glyph glyph-name="uni0328" unicode="&#x328;" horiz-adv-x="0" 
d="M-142.5 -15c-20.333 -14.667 -38.502 -33.499 -54.502 -56.499s-24 -49.833 -24 -80.5c0 -25.333 8.83301 -42.666 26.5 -51.999s40.834 -14 69.501 -14l-5 -32c-41.333 0 -75.166 6.66699 -101.499 20s-39.5 38 -39.5 74c0 33.333 11 63.166 33 89.499
s46.833 48.166 74.5 65.499s41.5 25 41.5 23l10 -18c0 2 -10.167 -4.33301 -30.5 -19z" />
    <glyph glyph-name="uni0335" unicode="&#x335;" horiz-adv-x="0" 
d="M-321 229l6 39h268l-6 -39h-268z" />
    <glyph glyph-name="uni0400" unicode="&#x400;" horiz-adv-x="507" 
d="M342 859l63 -143l-42 -8l-85 135zM466 0h-372l91 650h350l-6 -48h-275l-35 -250h252l-7 -46h-251l-36 -258h296z" />
    <glyph glyph-name="uni0401" unicode="&#x401;" horiz-adv-x="507" 
d="M296 819c10 0 18.333 -3.33398 25 -10.001c5.33301 -5.33301 8 -13 8 -23c0 -13.333 -5.33301 -25.333 -16 -36c-8.66699 -6.66699 -17.667 -10 -27 -10c-10 0 -18.333 3.33301 -25 10c-5.33301 6.66699 -8 14.334 -8 23.001c0 13.333 5.33301 25.333 16 36
c8.66699 6.66699 17.667 10 27 10zM450 818.999c10 0 18.333 -3.33301 25 -10c5.33301 -6.66699 8 -14.334 8 -23.001c0 -13.333 -5.33301 -25.333 -16 -36c-8.66699 -6.66699 -18 -10 -28 -10c-9.33301 0 -17.333 3.33301 -24 10c-5.33301 6.66699 -8 14.334 -8 23.001
c0 13.333 5.33301 25.333 16 36c8.66699 6.66699 17.667 10 27 10zM466 -0.000976562h-372l91 650h350l-6 -48h-275l-35 -250h252l-7 -46h-251l-36 -258h296z" />
    <glyph glyph-name="uni0402" unicode="&#x402;" horiz-adv-x="640" 
d="M345 604l-39 -278.999c0 1.33301 8.66699 8.66602 26 21.999s39.333 25.5 66 36.5s56 16.5 88 16.5c48 0 82.833 -9.83301 104.5 -29.5s32.5 -49.834 32.5 -90.501c0 -13.333 -1 -28 -3 -44l-7 -49c-10.667 -74 -31 -125.333 -61 -154s-67 -43 -111 -43
c-20.667 0 -37.834 2.83301 -51.501 8.5s-23.667 11.834 -30 18.501s-9.5 10.667 -9.5 12l18 33c1.33301 -1.33301 4.33301 -4.5 9 -9.5s11.5 -9.66699 20.5 -14s19.833 -6.5 32.5 -6.5c57.333 0 92 46.333 104 139l8 50c2 16 3 30.333 3 43c0 31.333 -7.16699 53 -21.5 65
s-38.833 18 -73.5 18c-32.667 0 -62.667 -7.83301 -90 -23.5s-47.666 -30.167 -60.999 -43.5l-39 -280h-76l85 604h-174l6 46h426l-7 -46h-175z" />
    <glyph glyph-name="uni0403" unicode="&#x403;" horiz-adv-x="409" 
d="M444 841l-120 -135l-37 5l96 145zM253 602l-83 -602h-76l92 650h304l-4 -48h-233z" />
    <glyph glyph-name="uni0404" unicode="&#x404;" horiz-adv-x="575" 
d="M169 295c-0.666992 -9.33301 -1.00195 -23.6689 -1.00195 -43.002c0 -69.333 17.5 -122 52.5 -158s81.833 -54 140.5 -54c35.333 0 66.666 7.33301 93.999 22s49 30.334 65 47.001s24 26.334 24 29.001l23 -32c0 -3.33301 -9.16699 -14.833 -27.5 -34.5
s-44 -38.167 -77 -55.5s-72.5 -26 -118.5 -26c-51.333 0 -96.333 10.5 -135 31.5s-68.667 51.667 -90 92s-32 88.166 -32 143.499c0 76.667 14 145.5 42 206.5s67.333 108.833 118 143.5s108.334 52 173.001 52c30.667 0 59.167 -4 85.5 -12s48.333 -16.833 66 -26.5
s26.5 -15.167 26.5 -16.5l-14 -48c0 0.666992 -8.66699 5.66699 -26 15s-38.166 18 -62.499 26s-49.5 12 -75.5 12c-67.333 0 -122.166 -23.667 -164.499 -71s-69.5 -112.666 -81.5 -195.999h331l-7 -47h-329z" />
    <glyph glyph-name="uni0405" unicode="&#x405;" horiz-adv-x="490" 
d="M469 575c-12 9.33301 -27.665 18.0039 -46.998 26.0039s-41.666 12 -66.999 12c-42 0 -75.5 -11 -100.5 -33s-37.5 -52.333 -37.5 -91c0 -20.667 5.16699 -38.5 15.5 -53.5s23 -27.667 38 -38s35.833 -22.166 62.5 -35.499c30 -16 54.167 -30.333 72.5 -43
s33.833 -29.167 46.5 -49.5s19 -45.166 19 -74.499c0 -40 -9.83301 -75.5 -29.5 -106.5s-46.834 -55.167 -81.501 -72.5s-74 -26 -118 -26c-42.667 0 -77.834 6.66699 -105.501 20s-47.834 27.666 -60.501 42.999s-19 24.666 -19 27.999l30 39
c0 -2.66699 5.33301 -10.834 16 -24.501s27.334 -26.5 50.001 -38.5s51.334 -18 86.001 -18c48 0 85.5 13 112.5 39s40.5 58.333 40.5 97c0 20.667 -5.16699 38.5 -15.5 53.5s-23 27.667 -38 38s-35.833 22.166 -62.5 35.499c-29.333 15.333 -53 29.166 -71 41.499
s-33.333 28.5 -46 48.5s-19 44.333 -19 73c0 60 20 107.333 60 142s92.333 52 157 52c29.333 0 54.666 -4.16699 75.999 -12.5s38.166 -17.333 50.499 -27s18.5 -15.167 18.5 -16.5l-15 -44c0 1.33301 -6 6.66602 -18 15.999z" />
    <glyph glyph-name="uni0406" unicode="&#x406;" horiz-adv-x="265" 
d="M170 0h-76l91 650h76z" />
    <glyph glyph-name="uni0407" unicode="&#x407;" horiz-adv-x="265" 
d="M160 819c10 0 18.333 -3.33398 25 -10.001c5.33301 -5.33301 8 -13 8 -23c0 -13.333 -5.33301 -25.333 -16 -36c-8.66699 -6.66699 -17.667 -10 -27 -10c-10 0 -18.333 3.33301 -25 10c-5.33301 6.66699 -8 14.334 -8 23.001c0 13.333 5.33301 25.333 16 36
c8.66699 6.66699 17.667 10 27 10zM314 818.999c10 0 18.333 -3.33301 25 -10c5.33301 -6.66699 8 -14.334 8 -23.001c0 -13.333 -5.33301 -25.333 -16 -36c-8.66699 -6.66699 -18 -10 -28 -10c-9.33301 0 -17.333 3.33301 -24 10c-5.33301 6.66699 -8 14.334 -8 23.001
c0 13.333 5.33301 25.333 16 36c8.66699 6.66699 17.667 10 27 10zM170 -0.000976562h-76l91 650h76z" />
    <glyph glyph-name="uni0408" unicode="&#x408;" horiz-adv-x="374" 
d="M40.5 61.5c6.33301 -5.66699 15.333 -10.9971 27 -15.9971s25.834 -7.5 42.501 -7.5c28 0 52.333 10.833 73 32.5s35.334 61.834 44.001 120.501l64 459h76l-65 -459c-10.667 -74.667 -31.334 -126.834 -62.001 -156.501s-68.667 -44.5 -114 -44.5
c-24.667 0 -45.334 3.16699 -62.001 9.5s-29 13.166 -37 20.499s-12 11.666 -12 12.999l16 38c0 -0.666992 3.16699 -3.83398 9.5 -9.50098z" />
    <glyph glyph-name="uni0409" unicode="&#x409;" horiz-adv-x="871" 
d="M327 602c-28.667 -198.667 -66.167 -349.834 -112.5 -453.501s-97.5 -155.5 -153.5 -155.5c-12 0 -21.333 0.833008 -28 2.5s-10.667 2.83398 -12 3.50098l10 54c1.33301 -0.666992 4.33301 -1.5 9 -2.5s10 -1.5 16 -1.5c93.333 0 168.333 200.333 225 601h317l-37 -262
h77c69.333 0 122.5 -13.167 159.5 -39.5s55.5 -65.833 55.5 -118.5c0 -70.667 -22.5 -126.667 -67.5 -168s-110.833 -62 -197.5 -62h-157l84 602h-188zM513 44h79c60 0 105.833 16.167 137.5 48.5s47.5 78.5 47.5 138.5c0 76.667 -48.333 115 -145 115h-77z" />
    <glyph glyph-name="uni040A" unicode="&#x40a;" horiz-adv-x="906" 
d="M213 312l-43 -312h-76l91 650h76l-41 -292h297l41 292h76l-37 -262h77c69.333 0 122.5 -13.167 159.5 -39.5s55.5 -65.833 55.5 -118.5c0 -70.667 -22.5 -126.667 -67.5 -168s-110.833 -62 -197.5 -62h-157l43 312h-297zM549 44h79c60 0 105.833 16.167 137.5 48.5
s47.5 78.5 47.5 138.5c0 76.667 -48.333 115 -145 115h-77z" />
    <glyph glyph-name="uni040B" unicode="&#x40b;" horiz-adv-x="670" 
d="M343 604l-40.001 -278.998c13.333 13.333 35.5 29.166 66.5 47.499s68.833 27.5 113.5 27.5c48.667 0 83.667 -9.66699 105 -29s32 -49.333 32 -90c0 -14 -1 -29 -3 -45l-33 -236h-76l31 221c2 16 3 30.333 3 43c0 31.333 -7.16699 53 -21.5 65s-38.833 18 -73.5 18
c-32 0 -61.167 -7.33301 -87.5 -22s-47.166 -29.334 -62.499 -44.001l-39 -281h-76l85 604h-175l7 46h425l-7 -46h-174z" />
    <glyph glyph-name="uni040C" unicode="&#x40c;" horiz-adv-x="600" 
d="M498 841l-120 -135l-37 5l96 145zM185 650h76l-50 -354l89 70l259 284h61l-268 -290l208 -360h-95l-177 302l-85 -62l-33 -240h-76z" />
    <glyph glyph-name="uni040D" unicode="&#x40d;" horiz-adv-x="652" 
d="M388 859l63 -143l-42 -8l-85 135zM558 0h-75l72 518l10 37h-1l-392 -544l-6 -11h-72l91 650h76l-73 -523l-10 -33h1l393 545l6 11h71z" />
    <glyph glyph-name="uni040E" unicode="&#x40e;" horiz-adv-x="569" 
d="M467 763.5c13.333 9 22.332 18.333 26.999 28s7 16.167 7 19.5l1 5l59 -6c0 -4 -4.66699 -14.167 -14 -30.5s-25.666 -31.833 -48.999 -46.5s-54.333 -22 -93 -22c-54.667 0 -89.5 12 -104.5 36s-22.5 45 -22.5 63l60 6l-1 -5c0 -12 3.83301 -25.167 11.5 -39.5
s28.5 -21.5 62.5 -21.5c24 0 42.667 4.5 56 13.5zM631.999 650l-252.998 -475.001c-36 -68 -71.167 -115.667 -105.5 -143s-71.5 -41 -111.5 -41c-16 0 -30 1.5 -42 4.5s-21.167 6 -27.5 9s-10.166 5.16699 -11.499 6.5l18 53c1.33301 -1.33301 4.66602 -3.5 9.99902 -6.5
s13.166 -5.83301 23.499 -8.5s22.166 -4 35.499 -4c26 0 50 7.33301 72 22s45.667 42.334 71 83.001l-189 500h87l151 -422l213 422h59z" />
    <glyph glyph-name="uni040F" unicode="&#x40f;" horiz-adv-x="623" 
d="M177 48h281l85 602h76l-91 -650h-183l-39 -211h-48l19 211h-183l91 650h76z" />
    <glyph glyph-name="uni0410" unicode="&#x410;" horiz-adv-x="568" 
d="M422 650l124 -650h-79l-40 200h-255l-96 -200h-53l310 650h89zM191 241h228l-63 351z" />
    <glyph glyph-name="uni0411" unicode="&#x411;" horiz-adv-x="533" 
d="M255 602l-31 -214.001h75c69.333 0 122.833 -13.167 160.5 -39.5s56.5 -66.166 56.5 -119.499c0 -70.667 -22.833 -126.5 -68.5 -167.5s-111.5 -61.5 -197.5 -61.5h-156l91 650h328l-6 -48h-252zM175 43.999l79 -0.000976562c60 0 106 15.833 138 47.5
s48 77.834 48 138.501c0 77.333 -48.667 116 -146 116h-76z" />
    <glyph glyph-name="uni0412" unicode="&#x412;" horiz-adv-x="542" 
d="M349 650c60 0 105.666 -12.667 136.999 -38s47 -59.333 47 -102c0 -41.333 -11.167 -76 -33.5 -104s-49.833 -49.667 -82.5 -65c32.667 -9.33301 58.334 -25.333 77.001 -48s28 -51 28 -85c0 -64 -22 -114.667 -66 -152s-109.667 -56 -197 -56h-165l91 650h164z
M389.499 371.5c19 10.333 35.5 26.5 49.5 48.5s21 50 21 84s-10.667 59.5 -32 76.5s-50.333 25.5 -87 25.5h-87l-35 -250h119c15.333 0 32.5 5.16699 51.5 15.5zM174.999 44h88c60.667 0 106.5 14.5 137.5 43.5s46.5 70.167 46.5 123.5c0 34 -10 59.833 -30 77.5
s-47 26.5 -81 26.5h-123z" />
    <glyph glyph-name="uni0413" unicode="&#x413;" horiz-adv-x="409" 
d="M253 602l-83 -602h-76l92 650h304l-4 -48h-233z" />
    <glyph glyph-name="uni0414" unicode="&#x414;" horiz-adv-x="611" 
d="M509 48h74.999l-42 -217h-49l13 169h-405l-42 -169h-45l26 217h54c36 56.667 67.333 130.5 94 221.5s51.334 217.833 74.001 380.5h331zM236.499 258.5c-25.667 -84.333 -55.5 -154.5 -89.5 -210.5h286l79 554h-204c-22 -144.667 -45.833 -259.167 -71.5 -343.5z" />
    <glyph glyph-name="uni0415" unicode="&#x415;" horiz-adv-x="507" 
d="M466 0h-372l91 650h350l-6 -48h-275l-35 -250h252l-7 -46h-251l-36 -258h296z" />
    <glyph glyph-name="uni0416" unicode="&#x416;" horiz-adv-x="862" 
d="M507 375h94l217 275h63l-233 -283l172 -367h-89l-146 327h-84l-46 -327h-75l46 327h-85l-211 -327h-88l244 354l-135 296h63l121 -276h97l39 276h75z" />
    <glyph glyph-name="uni0417" unicode="&#x417;" horiz-adv-x="483" 
d="M177.5 622.5c17 9 37.8291 17.333 62.4961 25s50.334 11.5 77.001 11.5c54.667 0 96.5 -12.333 125.5 -37s43.5 -58.334 43.5 -101.001c0 -44 -12.667 -81.667 -38 -113s-55.666 -55.333 -90.999 -72c33.333 -7.33301 59.5 -21.5 78.5 -42.5s28.5 -49.5 28.5 -85.5
c0 -42 -10 -79.5 -30 -112.5s-48.5 -58.833 -85.5 -77.5s-80.167 -28 -129.5 -28c-48 0 -85.833 7.5 -113.5 22.5s-46.667 30.833 -57 47.5s-15.5 27.334 -15.5 32.001l32 35c0 -3.33301 5 -12.333 15 -27s26.167 -28.5 48.5 -41.5s51.833 -19.5 88.5 -19.5
c50.667 0 90.667 15.667 120 47s44 72.666 44 123.999c0 67.333 -37 101 -111 101l-93 -4l7 48l97 -4c17.333 0.666992 35.833 7.5 55.5 20.5s36.334 31.833 50.001 56.5s20.5 53.334 20.5 86.001c0 31.333 -9.16699 55.5 -27.5 72.5s-45.166 25.5 -80.499 25.5
c-22.667 0 -44.667 -3.5 -66 -10.5s-39.833 -14.667 -55.5 -23s-23.5 -12.833 -23.5 -13.5l-2 43c0 0.666992 8.5 5.5 25.5 14.5z" />
    <glyph glyph-name="uni0418" unicode="&#x418;" horiz-adv-x="652" 
d="M558 0h-75l72 518l10 37h-1l-392 -544l-6 -11h-72l91 650h76l-73 -523l-10 -33h1l393 545l6 11h71z" />
    <glyph glyph-name="uni0419" unicode="&#x419;" horiz-adv-x="652" 
d="M483 763.5c13.333 9 22.332 18.333 26.999 28s7 16.167 7 19.5l1 5l59 -6c0 -4 -4.66699 -14.167 -14 -30.5s-25.666 -31.833 -48.999 -46.5s-54.333 -22 -93 -22c-55.333 0 -90.333 12 -105 36s-22 45 -22 63l60 6l-1 -5c0 -12 3.83301 -25.167 11.5 -39.5
s28.5 -21.5 62.5 -21.5c24 0 42.667 4.5 56 13.5zM557.999 0h-75l72 518l10 37h-1l-392 -544l-6 -11h-72l91 650h76l-73 -523l-10 -33h1l393 545l6 11h71z" />
    <glyph glyph-name="uni041A" unicode="&#x41a;" horiz-adv-x="580" 
d="M185 650h76l-50 -354l89 70l259 284h61l-268 -290l208 -360h-95l-177 302l-85 -62l-33 -240h-76z" />
    <glyph glyph-name="uni041B" unicode="&#x41b;" horiz-adv-x="602" 
d="M507 0h-75l84 602h-189c-28.667 -198.667 -66.167 -349.834 -112.5 -453.501s-97.5 -155.5 -153.5 -155.5c-12 0 -21.333 0.833008 -28 2.5s-10.667 2.83398 -12 3.50098l10 54c1.33301 -0.666992 4.33301 -1.5 9 -2.5s10 -1.5 16 -1.5c93.333 0 168.333 200.333 225 601
h317z" />
    <glyph glyph-name="uni041C" unicode="&#x41c;" horiz-adv-x="835" 
d="M741 0h-74l75 557l-304 -557h-61l-148 557l-80 -557h-55l94 650h94l151 -557h1l307 557h88z" />
    <glyph glyph-name="uni041D" unicode="&#x41d;" horiz-adv-x="638" 
d="M543 0h-76l43 312h-297l-43 -312h-76l91 650h76l-41 -292h297l41 292h76z" />
    <glyph glyph-name="uni041E" unicode="&#x41e;" horiz-adv-x="654" 
d="M612.5 180c-29.667 -61.333 -69.3311 -108.333 -118.998 -141s-104.167 -49 -163.5 -49c-76 0 -135.333 24 -178 72s-64 114 -64 198c0 78.667 13.167 148.167 39.5 208.5s64.166 107.166 113.499 140.499s107 50 173 50c81.333 0 142.166 -24.667 182.499 -74
s60.5 -112.666 60.5 -189.999c0 -82 -14.833 -153.667 -44.5 -215zM535.503 553c-27.667 38.667 -69.499 57.999 -125.499 57.999c-48.667 0 -91.334 -13.833 -128.001 -41.5s-65 -68.667 -85 -123s-30 -120.166 -30 -197.499c0 -66 14.667 -117.667 44 -155
s70.333 -56 123 -56c44 0 84.5 13.5 121.5 40.5s66.5 68 88.5 123s33 122.167 33 201.5c0 61.333 -13.833 111.333 -41.5 150z" />
    <glyph glyph-name="uni041F" unicode="&#x41f;" horiz-adv-x="623" 
d="M528 0h-76l85 602h-283l-84 -602h-76l91 650h434z" />
    <glyph glyph-name="uni0420" unicode="&#x420;" horiz-adv-x="496" 
d="M341 650c59.333 0 105.167 -14.167 137.5 -42.5s48.5 -70.5 48.5 -126.5c0 -59.333 -11.833 -107.833 -35.5 -145.5s-54 -65 -91 -82s-75.833 -25.5 -116.5 -25.5h-82l-32 -228h-76l91 650h156zM208.001 270h71c48.667 0 88.834 16.833 120.501 50.5
s47.5 87.5 47.5 161.5c0 41.333 -10.333 72.333 -31 93s-50.334 31 -89.001 31h-73z" />
    <glyph glyph-name="uni0421" unicode="&#x421;" horiz-adv-x="570" 
d="M561 570.5c-18 9.66699 -39.335 18.498 -64.002 26.498s-50 12 -76 12c-47.333 0 -90.166 -13.5 -128.499 -40.5s-68.833 -67 -91.5 -120s-34 -117.167 -34 -192.5c0 -69.333 17.167 -122.666 51.5 -159.999s80.5 -56 138.5 -56c35.333 0 66.833 7.16699 94.5 21.5
s49.667 30 66 47s24.5 26.5 24.5 28.5l23 -32c0 -3.33301 -9.33301 -14.833 -28 -34.5s-44.667 -38 -78 -55s-72.666 -25.5 -117.999 -25.5c-78.667 0 -140.667 23.833 -186 71.5s-68 113.167 -68 196.5c0 78 14.167 147.333 42.5 208s67.833 108 118.5 142s108 51 172 51
c30.667 0 59.5 -4.16699 86.5 -12.5s49.667 -17.5 68 -27.5s27.5 -15.667 27.5 -17l-14 -47c0 0.666992 -9 5.83398 -27 15.501z" />
    <glyph glyph-name="uni0422" unicode="&#x422;" horiz-adv-x="461" 
d="M539 602h-186l-85 -602h-76l85 602h-185l7 48h447z" />
    <glyph glyph-name="uni0423" unicode="&#x423;" horiz-adv-x="569" 
d="M632 650l-252.998 -475.001c-36 -68 -71.167 -115.667 -105.5 -143s-71.5 -41 -111.5 -41c-16 0 -30 1.5 -42 4.5s-21.167 6 -27.5 9s-10.166 5.16699 -11.499 6.5l18 53c1.33301 -1.33301 4.66602 -3.5 9.99902 -6.5s13.166 -5.83301 23.499 -8.5s22.166 -4 35.499 -4
c26 0 50 7.33301 72 22s45.667 42.334 71 83.001l-189 500h87l151 -422l213 422h59z" />
    <glyph glyph-name="uni0424" unicode="&#x424;" horiz-adv-x="710" 
d="M659 517.5c44 -33.667 66 -84.832 66 -153.499c0 -94 -28.667 -164.833 -86 -212.5s-136 -72.167 -236 -73.5l-11 -78h-75l11 78c-79.333 1.33301 -141 18.833 -185 52.5s-66 84.167 -66 151.5c0 94 28.5 165.167 85.5 213.5s135.167 73.166 234.5 74.499l11 80h75
l-11 -80c80.667 -1.33301 143 -18.833 187 -52.5zM199.5 159.002c29.667 -25.333 74.167 -38.668 133.5 -40.001l58 409c-157.333 -3.33301 -236 -87 -236 -251c0 -53.333 14.833 -92.666 44.5 -117.999zM601 488c-30 25.333 -75 38.667 -135 40l-58 -409
c158.667 2 238 85.333 238 250c0 54 -15 93.667 -45 119z" />
    <glyph glyph-name="uni0425" unicode="&#x425;" horiz-adv-x="541" 
d="M271 322l-154 328h92l122 -272h1l206 272h63l-243 -315l165 -335h-93l-131 279h-1l-213 -279h-67z" />
    <glyph glyph-name="uni0426" unicode="&#x426;" horiz-adv-x="637" 
d="M177 48h281l85 602h76l-85 -602h76l-44 -217h-49l13 169h-436l91 650h76z" />
    <glyph glyph-name="uni0427" unicode="&#x427;" horiz-adv-x="565" 
d="M395 0l38 274.001c-12 -8 -32.5 -17.333 -61.5 -28s-65.5 -16 -109.5 -16c-92.667 0 -139 44.667 -139 134c0 14 1 29 3 45l34 241h76l-32 -230c-2.66699 -22.667 -4 -37.667 -4 -45c0 -32.667 7.83301 -56.334 23.5 -71.001s40.167 -22 73.5 -22
c32.667 0 61.667 4.5 87 13.5s44 17.167 56 24.5l46 330h75l-91 -650h-75z" />
    <glyph glyph-name="uni0428" unicode="&#x428;" horiz-adv-x="852" 
d="M470 48h218l85 602h75l-91 -650h-663l91 650h76l-84 -602h217l85 602h76z" />
    <glyph glyph-name="uni0429" unicode="&#x429;" horiz-adv-x="866" 
d="M764 48h70l-43 -217h-49l13 169h-661l91 650h76l-84 -602h218l84 602h76l-84 -602h217l85 602h75z" />
    <glyph glyph-name="uni042A" unicode="&#x42a;" horiz-adv-x="620" 
d="M92 602l7 48h249l-37 -262h77c69.333 0 122.5 -13.167 159.5 -39.5s55.5 -65.833 55.5 -118.5c0 -70.667 -22.5 -126.667 -67.5 -168s-110.833 -62 -197.5 -62h-157l84 602h-173zM262 44h80c60 0 105.833 16.167 137.5 48.5s47.5 78.5 47.5 138.5
c0 76.667 -48.333 115 -145 115h-77z" />
    <glyph glyph-name="uni042B" unicode="&#x42b;" horiz-adv-x="757" 
d="M261 650l-37 -262h77c69.333 0 122.5 -13.167 159.5 -39.5s55.5 -65.833 55.5 -118.5c0 -70.667 -22.5 -126.667 -67.5 -168s-110.833 -62 -197.5 -62h-157l91 650h76zM663 0h-76l91 650h76zM175 44h80c60 0 105.833 16.167 137.5 48.5s47.5 78.5 47.5 138.5
c0 76.667 -48.333 115 -145 115h-77z" />
    <glyph glyph-name="uni042C" unicode="&#x42c;" horiz-adv-x="533" 
d="M261 650l-37 -262h77c69.333 0 122.5 -13.167 159.5 -39.5s55.5 -65.833 55.5 -118.5c0 -70.667 -22.5 -126.667 -67.5 -168s-110.833 -62 -197.5 -62h-157l91 650h76zM175 44h80c60 0 105.833 16.167 137.5 48.5s47.5 78.5 47.5 138.5c0 76.667 -48.333 115 -145 115
h-77z" />
    <glyph glyph-name="uni042D" unicode="&#x42d;" horiz-adv-x="561" 
d="M84.5 111c13.667 -17.333 33 -33.5029 58 -48.5029s54.833 -22.5 89.5 -22.5c63.333 0 116.833 22.333 160.5 67s72.167 110.334 85.5 197.001h-325l7 46h322c2 19.333 3 39 3 59c0 66.667 -15.833 116.834 -47.5 150.501s-76.5 50.5 -134.5 50.5
c-28 0 -54 -3.66699 -78 -11s-43.833 -15.5 -59.5 -24.5s-23.5 -13.833 -23.5 -14.5l-6 45c0 0.666992 9.33301 5.83398 28 15.501s41.5 18.5 68.5 26.5s55.5 12 85.5 12c78.667 0 139.667 -23.167 183 -69.5s65 -110.833 65 -193.5c0 -80 -13.833 -150.667 -41.5 -212
s-66.167 -109 -115.5 -143s-105.666 -51 -168.999 -51c-45.333 0 -83.333 8.16699 -114 24.5s-53.834 33.833 -69.501 52.5s-23.5 29.667 -23.5 33l31 41c0 -2.66699 6.83301 -12.667 20.5 -30z" />
    <glyph glyph-name="uni042E" unicode="&#x42e;" horiz-adv-x="899" 
d="M862 179c-27.333 -60 -66.167 -106.501 -116.5 -139.501s-108.833 -49.5 -175.5 -49.5c-76 0 -134.667 23.833 -176 71.5s-62 113.834 -62 198.501c0 17.333 0.333008 30.333 1 39h-121l-42 -299h-76l91 650h76l-43 -305h120c8.66699 62.667 27.5 117.667 56.5 165
s66.5 84 112.5 110s98 39 156 39c76 0 135 -24.167 177 -72.5s63 -114.833 63 -199.5c0 -78.667 -13.667 -148 -41 -208zM778.999 555.999c-28.667 38 -69.333 57 -122 57c-48 0 -90.667 -14.5 -128 -43.5s-66.333 -70.833 -87 -125.5s-31 -119 -31 -193
c0 -68 14.333 -120.833 43 -158.5s69.334 -56.5 122.001 -56.5c48.667 0 91.667 14.333 129 43s66.166 70.167 86.499 124.5s30.5 118.833 30.5 193.5c0 68 -14.333 121 -43 159z" />
    <glyph glyph-name="uni042F" unicode="&#x42f;" horiz-adv-x="547" 
d="M376 0l36 262h-129l-157 -262h-77l173 271c-31.333 10 -56.833 28 -76.5 54s-29.5 59 -29.5 99c0 46.667 10.5 87.167 31.5 121.5s48.333 60.333 82 78s68.5 26.5 104.5 26.5h208l-91 -650h-75zM220 340.5c19.333 -21 42.333 -31.5 69 -31.5h130l41 297h-128
c-21.333 0 -43 -7.33301 -65 -22s-40.167 -35.667 -54.5 -63s-21.5 -59 -21.5 -95s9.66699 -64.5 29 -85.5z" />
    <glyph glyph-name="uni0430" unicode="&#x430;" 
d="M383 0l-4 58.0029c-10 -15.333 -26.5 -30.5 -49.5 -45.5s-54.167 -22.5 -93.5 -22.5c-52 0 -93.333 17.667 -124 53s-46 84.666 -46 147.999c0 59.333 10 113.166 30 161.499s49 86.666 87 114.999s83.333 42.5 136 42.5c36.667 0 64 -6.33301 82 -19s29.667 -24 35 -34
l17 43h58l-70 -500h-58zM337.5 62.0029c20.333 15.333 35.1689 30.002 44.502 44.002l44 303c-1.33301 4 -5.33301 10 -12 18s-17.167 15.833 -31.5 23.5s-32.5 11.5 -54.5 11.5c-60.667 0 -106.834 -24.833 -138.501 -74.5s-47.5 -116.834 -47.5 -201.501
c0 -48.667 10.333 -85.334 31 -110.001s49.667 -37 87 -37c31.333 0 57.166 7.66699 77.499 23z" />
    <glyph glyph-name="uni0431" unicode="&#x431;" horiz-adv-x="505" 
d="M209 565c-45.333 -62.667 -72.335 -144 -81.002 -244h5c5.33301 27.333 16.833 55.5 34.5 84.5s41.167 53.667 70.5 74s62.666 30.5 99.999 30.5c55.333 0 97.666 -16.5 126.999 -49.5s44 -81.167 44 -144.5c0 -62.667 -10.167 -118.667 -30.5 -168
s-49.666 -88 -87.999 -116s-83.5 -42 -135.5 -42c-39.333 0 -72.666 10 -99.999 30s-47.666 46.667 -60.999 80s-20 70 -20 110c0 94.667 11.333 180.167 34 256.5s57.5 138.5 104.5 186.5s105.833 76 176.5 84l135 17l-7 -72l-118 -12
c-81.333 -7.33301 -144.666 -42.333 -189.999 -105zM234.498 432c-26.333 -23.333 -47.333 -56 -63 -98s-23.5 -89.333 -23.5 -142c0 -45.333 9.66699 -83 29 -113s47 -45 83 -45c55.333 0 98 25 128 75s45 120.667 45 212c0 97.333 -37.667 146 -113 146
c-30.667 0 -59.167 -11.667 -85.5 -35z" />
    <glyph glyph-name="uni0432" unicode="&#x432;" horiz-adv-x="465" 
d="M120.5 -5.5c-31 3 -46.501 4.83301 -46.501 5.5l70 500c8.66699 1.33301 27.334 3.33301 56.001 6s54.667 4 78 4c59.333 0 104.833 -10 136.5 -30s47.5 -47.667 47.5 -83c0 -38 -10.5 -68 -31.5 -90s-46.5 -38.333 -76.5 -49c27.333 -6 50 -17.5 68 -34.5
s27 -38.5 27 -64.5c0 -51.333 -17.833 -92.333 -53.5 -123s-93.167 -46 -172.5 -46c-37.333 0 -71.5 1.5 -102.5 4.5zM318.499 278.5c18.333 7 34.834 19.333 49.501 37s22 42.5 22 74.5c0 25.333 -10.5 45 -31.5 59s-50.167 21 -87.5 21
c-12.667 0 -32.334 -1.33301 -59.001 -4l-28 -195h107c0 -2 9.16699 0.5 27.5 7.5zM151 33c23.333 -2 48 -3 74 -3c52 0 90.167 12.5 114.5 37.5s36.5 57.167 36.5 96.5c0 24 -7.83301 42.667 -23.5 56s-39.167 20 -70.5 20h-102z" />
    <glyph glyph-name="uni0433" unicode="&#x433;" horiz-adv-x="409" 
d="M373.5 48c-13.667 -14 -33.002 -27.166 -58.002 -39.499s-55.167 -18.5 -90.5 -18.5c-49.333 0 -89.166 12.167 -119.499 36.5s-45.5 55.5 -45.5 93.5c0 38.667 8.16699 68.5 24.5 89.5s36.333 35.667 60 44s53.167 15.5 88.5 21.5c35.333 5.33301 64 15.5 86 30.5
s33 41.833 33 80.5c0 24 -9.66699 43.333 -29 58s-45.333 22 -78 22c-24 0 -45.5 -3.83301 -64.5 -11.5s-34.333 -15.834 -46 -24.501s-17.5 -13.667 -17.5 -15l-9 41c0 1.33301 6.5 6.66602 19.5 15.999s31 18 54 26s50.167 12 81.5 12c50 0 89.5 -11.333 118.5 -34
s43.5 -53 43.5 -91c0 -36 -9 -64 -27 -84s-39.333 -33.833 -64 -41.5s-55.334 -14.167 -92.001 -19.5c-33.333 -5.33301 -59.833 -16.166 -79.5 -32.499s-29.5 -45.5 -29.5 -87.5c0 -24 9.83301 -44.167 29.5 -60.5s44.5 -24.5 74.5 -24.5
c26.667 0 49.834 4.66699 69.501 14s34.834 19.333 45.501 30s16 16.667 16 18l26 -24c0 -2.66699 -6.83301 -11 -20.5 -25z" />
    <glyph glyph-name="uni0434" unicode="&#x434;" horiz-adv-x="516" 
d="M356.5 -203.5c-43.667 -37.667 -96.1631 -56.501 -157.496 -56.501c-34.667 0 -64 5.83301 -88 17.5s-42.5 24.334 -55.5 38.001s-19.5 21.5 -19.5 23.5l29 38c0 -2 5.5 -9 16.5 -21s26.167 -23.333 45.5 -34s42 -16 68 -16c49.333 0 87.666 15 114.999 45
s46.333 82.333 57 157v4c0 1.33301 0.333008 2.33301 1 3v1l5 40c0 -1.33301 -5.5 -6 -16.5 -14s-26 -15.333 -45 -22s-41.833 -10 -68.5 -10c-56.667 0 -100 18.5 -130 55.5s-45 88.167 -45 153.5c0 62 10.667 116.5 32 163.5s50.166 83.333 86.499 109
s77.166 38.5 122.499 38.5c39.333 0 68.5 -7.5 87.5 -22.5s31.5 -29.833 37.5 -44.5l21 57h57l-74 -522c-10.667 -83.333 -37.834 -143.833 -81.501 -181.5zM338.504 52.499c18.333 9.66699 32.167 19.165 41.5 28.498l44 311c0 2.66699 -3.16699 9.83398 -9.5 21.501
s-17.166 22.834 -32.499 33.501s-35.333 16 -60 16c-53.333 0 -96.333 -23 -129 -69s-49 -111.667 -49 -197c0 -52 10.5 -91.5 31.5 -118.5s52.5 -40.5 94.5 -40.5c27.333 0 50.166 4.83301 68.499 14.5z" />
    <glyph glyph-name="uni0435" unicode="&#x435;" horiz-adv-x="453" 
d="M411.5 45.5c-13.667 -13.667 -33 -26.333 -58 -38s-55.5 -17.5 -91.5 -17.5c-58.667 0 -106 17.333 -142 52s-54 84.667 -54 150c0 62.667 10.5 118.167 31.5 166.5s50.333 85.666 88 111.999s81.167 39.5 130.5 39.5c46.667 0 83.5 -12.667 110.5 -38
s40.5 -56.666 40.5 -93.999c0 -62 -27.167 -102.833 -81.5 -122.5s-120.5 -29.5 -198.5 -29.5h-45c-0.666992 -9.33301 -1 -23.666 -1 -42.999c0 -50 12.167 -87.333 36.5 -112s56.833 -37 97.5 -37c26.667 0 49.667 4.33301 69 13s34.5 18.167 45.5 28.5
s16.5 16.166 16.5 17.499l26 -24c0 -2 -6.83301 -9.83301 -20.5 -23.5zM201 413.501c-28 -35.667 -46.332 -85.5 -54.999 -149.5h43c61.333 0 112.166 7.66699 152.499 23s60.5 47 60.5 95c0 24.667 -8.33301 45 -25 61s-40 24 -70 24c-42.667 0 -78 -17.833 -106 -53.5z
" />
    <glyph glyph-name="uni0436" unicode="&#x436;" horiz-adv-x="642" 
d="M393 263l70 27l165 210h59l-175 -224l118 -276h-80l-95 237l-69 -22l-30 -215h-73l37 263l-61 -22l-168 -241h-79l189 259l-101 241h58l88 -216l80 25l27 191h73z" />
    <glyph glyph-name="uni0437" unicode="&#x437;" horiz-adv-x="417" 
d="M112.5 476c17 8.66699 37.165 16.5029 60.498 23.5029s47.666 10.5 72.999 10.5c52.667 0 94 -10.5 124 -31.5s45 -48.5 45 -82.5c0 -35.333 -9.5 -63.833 -28.5 -85.5s-42.5 -37.5 -70.5 -47.5c25.333 -8 46 -20.667 62 -38s24 -39.333 24 -66
c0 -32 -8.33301 -60.833 -25 -86.5s-40.5 -45.834 -71.5 -60.501s-67.5 -22 -109.5 -22s-75.833 6.16699 -101.5 18.5s-44 25.5 -55 39.5s-16.5 22.667 -16.5 26l28 32c0 -2.66699 4.66699 -9.83398 14 -21.501s24.333 -22.834 45 -33.501s47 -16 79 -16
c43.333 0 77 12.167 101 36.5s36 54.5 36 90.5c0 23.333 -8.33301 42 -25 56s-37.667 21 -63 21l-86 -2l7 42l89 -2h3c9.33301 1.33301 21 5.33301 35 12s26.667 18.167 38 34.5s17 37.5 17 63.5c0 23.333 -10.167 42.166 -30.5 56.499s-47.166 21.5 -80.499 21.5
c-20.667 0 -41.167 -3.33301 -61.5 -10s-37.166 -13.667 -50.499 -21s-21.666 -12.333 -24.999 -15l-6 43c0 0.666992 8.5 5.33398 25.5 14.001z" />
    <glyph glyph-name="uni0438" unicode="&#x438;" horiz-adv-x="529" 
d="M525 500l-70 -500h-73l58 412l-310 -412h-56l70 500h73l-56 -398l300 398h64z" />
    <glyph glyph-name="uni0439" unicode="&#x439;" horiz-adv-x="529" 
d="M412 628.5c13.333 9 22.332 18.333 26.999 28s7 16.167 7 19.5l1 5l59 -6c0 -4 -4.66699 -14.167 -14 -30.5s-25.666 -31.833 -48.999 -46.5s-54.333 -22 -93 -22c-55.333 0 -90.333 12 -105 36s-22 45 -22 63l60 6l-1 -5c0 -12 3.83301 -25.167 11.5 -39.5
s28.5 -21.5 62.5 -21.5c24 0 42.667 4.5 56 13.5zM524.999 500l-70 -500h-73l58 412l-310 -412h-56l70 500h73l-56 -398l300 398h64z" />
    <glyph glyph-name="uni043A" unicode="&#x43a;" horiz-adv-x="456" 
d="M144 500h73l-32 -230l74 35l171 195h51l-177 -206l129 -294h-84l-107 252l-64 -27l-31 -225h-73z" />
    <glyph glyph-name="uni043B" unicode="&#x43b;" horiz-adv-x="472" 
d="M325 0l64.001 453.001h-142c-15.333 -122.667 -40.833 -230.334 -76.5 -323.001s-87.834 -139 -156.501 -139c-6.66699 0 -11.667 0.333008 -15 1l10 49h4c50 0 90.833 47 122.5 141s54.167 200 67.5 318h265l-70 -500h-73z" />
    <glyph glyph-name="uni043C" unicode="&#x43c;" horiz-adv-x="647" 
d="M575 0h-67l51 397l5 32l-223 -429h-56l-99 426l-1 -11l-67 -415h-47l84 500h89l89 -426l217 426h88z" />
    <glyph glyph-name="uni043D" unicode="&#x43d;" horiz-adv-x="516" 
d="M144 500h73l-31 -220h222l31 220h73l-70 -500h-73l33 235h-222l-33 -235h-73z" />
    <glyph glyph-name="uni043E" unicode="&#x43e;" horiz-adv-x="501" 
d="M472.5 139c-20.333 -47.333 -49.666 -84 -87.999 -110s-83.833 -39 -136.5 -39c-58 0 -102.667 18 -134 54s-47 86.667 -47 152c0 95.333 22.167 171.5 66.5 228.5s107.166 85.5 188.499 85.5c58 0 102.667 -18 134 -54s47 -86.667 47 -152
c0 -62.667 -10.167 -117.667 -30.5 -165zM186 392c-29.333 -49.333 -43.999 -119.333 -43.999 -210c0 -46.667 9.5 -83 28.5 -109s47.833 -39 86.5 -39c55.333 0 97.666 24.5 126.999 73.5s44 118.833 44 209.5c0 47.333 -9.5 84 -28.5 110s-47.5 39 -85.5 39
c-56 0 -98.667 -24.667 -128 -74z" />
    <glyph glyph-name="uni043F" unicode="&#x43f;" horiz-adv-x="509" 
d="M435 0h-73l64 453h-216l-63 -453h-73l70 500h361z" />
    <glyph glyph-name="uni0440" unicode="&#x440;" 
d="M204 500l0.999023 -60.999c10 14.667 27.167 30.167 51.5 46.5s56.833 24.5 97.5 24.5c51.333 0 91.833 -17.5 121.5 -52.5s44.5 -83.833 44.5 -146.5c0 -60 -9.66699 -114.333 -29 -163s-47.666 -87.167 -84.999 -115.5s-81.333 -42.5 -132 -42.5
c-27.333 0 -50 3.5 -68 10.5s-31.5 14.667 -40.5 23s-13.5 13.166 -13.5 14.499h-1l-40 -288l-72 -2l105 752h60zM246.999 438.001c-20 -15.333 -35.002 -29.999 -45.002 -43.999l-44 -312c6 -8.66699 16.833 -18.167 32.5 -28.5s37.834 -15.5 66.501 -15.5
c60.667 0 106.834 24.167 138.501 72.5s47.5 116.166 47.5 203.499c0 50 -10.333 87 -31 111s-50 36 -88 36c-31.333 0 -57 -7.66699 -77 -23z" />
    <glyph glyph-name="uni0441" unicode="&#x441;" horiz-adv-x="423" 
d="M430 434.5c-12 7.66699 -26.668 14.833 -44.001 21.5s-35.666 10 -54.999 10c-124.667 0 -187 -93.667 -187 -281c0 -51.333 11.833 -89.333 35.5 -114s55.167 -37 94.5 -37c26 0 48 4.33301 66 13s32 18 42 28s15 15.667 15 17l29 -21
c0 -2.66699 -6.16699 -10.834 -18.5 -24.501s-30.666 -26.5 -54.999 -38.5s-54.5 -18 -90.5 -18c-60.667 0 -108.334 17.5 -143.001 52.5s-52 85.5 -52 151.5c0 97.333 22 174.333 66 231s108 85 192 85c24 0 46 -3.5 66 -10.5s36.667 -14.667 50 -23s20 -12.833 20 -13.5
l-13 -41c0 0.666992 -6 4.83398 -18 12.501z" />
    <glyph glyph-name="uni0442" unicode="&#x442;" horiz-adv-x="410" 
d="M305 453l-64 -453h-72l63 453h-152l7 47h376l-7 -47h-151z" />
    <glyph glyph-name="uni0443" unicode="&#x443;" horiz-adv-x="452" 
d="M11 -206.5c7.33301 -2.33301 15.668 -3.50098 25.001 -3.50098c30.667 0 58.5 16.333 83.5 49s55.167 84 90.5 154l-124 507h86l89 -417l194 417h52l-244 -507c-38.667 -80.667 -75.334 -143 -110.001 -187s-72 -66 -112 -66c-12 0 -22.333 1 -31 3s-15.167 4 -19.5 6
s-6.83301 3.33301 -7.5 4l14 46c2 -1.33301 6.66699 -3.16602 14 -5.49902z" />
    <glyph glyph-name="uni0444" unicode="&#x444;" horiz-adv-x="630" 
d="M427 510c66 0 116.831 -18.6689 152.498 -56.002s53.5 -90 53.5 -158c0 -62.667 -11.167 -117 -33.5 -163s-54.666 -81.333 -96.999 -106s-92.166 -37 -149.499 -37l-5 1l-4 -32c-20 -146 -77 -219 -171 -219c-16 0 -29.167 1.66699 -39.5 5
s-17.833 6.66602 -22.5 9.99902s-7.33398 5.66602 -8.00098 6.99902l18 38c0.666992 -0.666992 2.83398 -2.16699 6.50098 -4.5s9 -4.66602 16 -6.99902s15.167 -3.5 24.5 -3.5c27.333 0 49.5 13.667 66.5 41s29.833 71.666 38.5 132.999l4 31h-4
c-66 0 -116.667 18.667 -152 56s-53 90 -53 158c0 62.667 11.167 117 33.5 163s54.333 81.333 96 106s91.167 37 148.5 37l4 -1l5 31c20 146 77 219 171 219c16 0 29.167 -1.66699 39.5 -5s17.833 -6.66602 22.5 -9.99902s7.33398 -5.66602 8.00098 -6.99902l-18 -39
c-0.666992 0.666992 -2.83398 2.33398 -6.50098 5.00098s-9 5.16699 -16 7.5s-15.167 3.5 -24.5 3.5c-27.333 0 -49.5 -13.667 -66.5 -41s-29.833 -71.666 -38.5 -132.999l-4 -30h5zM522.498 424.998c-24.333 27.333 -59.833 41.333 -106.5 42l-62 -433
c66.667 0.666992 117.5 23.5 152.5 68.5s52.5 111.5 52.5 199.5c0 54.667 -12.167 95.667 -36.5 123zM176.998 75.998c24 -27.333 59.333 -41.333 106 -42l61 432c-135.333 -2 -203 -91 -203 -267c0 -54.667 12 -95.667 36 -123z" />
    <glyph glyph-name="uni0445" unicode="&#x445;" horiz-adv-x="443" 
d="M299 261l131 -261h-85l-104 216l-169 -216h-60l201 249l-123 251h86l95 -209l157 209h59z" />
    <glyph glyph-name="uni0446" unicode="&#x446;" horiz-adv-x="520" 
d="M154 47h213l65 453h73l-65 -453h64l-35 -197h-46l14 150h-363l70 500h73z" />
    <glyph glyph-name="uni0447" unicode="&#x447;" horiz-adv-x="460" 
d="M456 500l-70 -500.001h-73l31 220c-12 -6 -29.833 -12.333 -53.5 -19s-53.5 -10 -89.5 -10c-74.667 0 -112 34 -112 102c0 10.667 1 22 3 34l24 173h73l-24 -171c-1.33301 -13.333 -2 -22.666 -2 -27.999c0 -46.667 23 -70 69 -70c20.667 0 39.667 2 57 6s31 8 41 12
s16.333 6.66699 19 8l34 243h73z" />
    <glyph glyph-name="uni0448" unicode="&#x448;" horiz-adv-x="717" 
d="M643 0h-569l70 500h73l-64 -453h175l64 453h73l-64 -453h175l65 453h72z" />
    <glyph glyph-name="uni0449" unicode="&#x449;" horiz-adv-x="728" 
d="M679 -150h-47l14 150h-572l70 500h73l-64 -453h175l64 453h73l-64 -453h175l65 453h72l-64 -453h64z" />
    <glyph glyph-name="uni044A" unicode="&#x44a;" horiz-adv-x="536" 
d="M272 312c26.667 3.33301 52.668 5.00098 78.001 5.00098c52 0 94.667 -11.5 128 -34.5s50 -56.5 50 -100.5c0 -60.667 -18.833 -107.834 -56.5 -141.501s-91.834 -50.5 -162.501 -50.5c-34 0 -66 1.33301 -96 4s-49 4.66699 -57 6l63 453h-137l7 47h210l-7 -47z
M267.001 272.001l-34 -237.999c25.333 -2 51.333 -3 78 -3c43.333 0 77.5 13.833 102.5 41.5s37.5 64.167 37.5 109.5c0 33.333 -10.333 57.666 -31 72.999s-46.667 23 -78 23c-32 0 -57 -2 -75 -6z" />
    <glyph glyph-name="uni044B" unicode="&#x44b;" horiz-adv-x="654" 
d="M268 317c52 0 94.668 -11.499 128.001 -34.499s50 -56.5 50 -100.5c0 -60.667 -18.833 -107.834 -56.5 -141.501s-91.834 -50.5 -162.501 -50.5c-34 0 -66 1.33301 -96 4s-49 4.66699 -57 6l70 500h73l-27 -188c26.667 3.33301 52.667 5 78 5zM580.001 0.000976562h-73
l70 500h73zM185.001 272.001l-34 -237.999c24.667 -2 50.667 -3 78 -3c43.333 0 77.5 13.833 102.5 41.5s37.5 64.167 37.5 109.5c0 33.333 -10.333 57.666 -31 72.999s-46.667 23 -78 23c-32 0 -57 -2 -75 -6z" />
    <glyph glyph-name="uni044C" unicode="&#x44c;" horiz-adv-x="453" 
d="M268 317c52 0 94.668 -11.499 128.001 -34.499s50 -56.5 50 -100.5c0 -60.667 -18.833 -107.834 -56.5 -141.501s-91.834 -50.5 -162.501 -50.5c-34 0 -66 1.33301 -96 4s-49 4.66699 -57 6l70 500h73l-27 -188c26.667 3.33301 52.667 5 78 5zM185.001 272.001
l-34 -237.999c24.667 -2 50.667 -3 78 -3c43.333 0 77.5 13.833 102.5 41.5s37.5 64.167 37.5 109.5c0 33.333 -10.333 57.666 -31 72.999s-46.667 23 -78 23c-32 0 -57 -2 -75 -6z" />
    <glyph glyph-name="uni044D" unicode="&#x44d;" horiz-adv-x="433" 
d="M68 79.5c10.667 -11 25.8291 -21.334 45.4961 -31.001s43.167 -14.5 70.5 -14.5c48.667 0 88.334 16.833 119.001 50.5s50.334 82.5 59.001 146.5l-222 -1l7 48h219l1 34c0 52 -12.5 90.833 -37.5 116.5s-58.167 38.5 -99.5 38.5c-20.667 0 -40.167 -3.33301 -58.5 -10
s-33.833 -14 -46.5 -22s-19 -12.333 -19 -13l-3 42c0 0.666992 7.33301 5.16699 22 13.5s32.334 15.833 53.001 22.5s42.334 10 65.001 10c58 0 104.833 -17.667 140.5 -53s53.5 -84.666 53.5 -147.999c0 -64 -10.667 -120.167 -32 -168.5s-50.833 -85.5 -88.5 -111.5
s-80.5 -39 -128.5 -39c-36.667 0 -67 5.83301 -91 17.5s-41.833 24 -53.5 37s-17.5 20.833 -17.5 23.5l26 31c0 -2 5.33301 -8.5 16 -19.5z" />
    <glyph glyph-name="uni044E" unicode="&#x44e;" horiz-adv-x="675" 
d="M634 458c29.333 -34.667 44 -84.333 44 -149c0 -98 -20.5 -175.667 -61.5 -233s-103.167 -86 -186.5 -86c-56 0 -98.5 17.167 -127.5 51.5s-43.5 83.5 -43.5 147.5c0 10.667 0.666992 26 2 46h-81l-33 -235h-73l70 500h73l-31 -220h79c11.333 72 36.833 128.333 76.5 169
s92.834 61 159.501 61c59.333 0 103.666 -17.333 132.999 -52zM368.5 392.501c-27.667 -49.667 -41.499 -120.5 -41.499 -212.5c0 -98 36.333 -147 109 -147c57.333 0 100.166 25.167 128.499 75.5s42.5 120.833 42.5 211.5c0 98 -37 147 -111 147
c-57.333 0 -99.833 -24.833 -127.5 -74.5z" />
    </font>
</defs>
</svg>
