<svg xmlns="http://www.w3.org/2000/svg" xmlns:xlink="http://www.w3.org/1999/xlink" viewBox="0 0 65.52 71.75"><defs><style>.cls-1{fill:url(#linear-gradient);}</style><linearGradient id="linear-gradient" y1="35.88" x2="65.52" y2="35.88" gradientUnits="userSpaceOnUse"><stop offset="0" stop-color="#b68d5d"/><stop offset="0.07" stop-color="#bd9463"/><stop offset="0.51" stop-color="#e4c084"/><stop offset="1" stop-color="#b68d5d"/></linearGradient></defs><title>Ресурс 14</title><g id="Слой_2" data-name="Слой 2"><g id="Слой_11" data-name="Слой 11"><path class="cls-1" d="M62.61,18.17v0l-.36.15L60,19.21c-.52.21-1,.44-1.53.67l-2.25,1L53.72,22l-2.21,1c-.56.26-1.1.54-1.65.8-.36.17-.72.31-1.08.46s-.84.39-1.27.57l-1.19.5-1.15.51a1.48,1.48,0,0,1-.39.1,1.66,1.66,0,0,0,.19-.18l1.21-1.49c.45-.54.9-1.08,1.33-1.64s.64-.94,1-1.38a15,15,0,0,0,1.13-1.72,7.62,7.62,0,0,1,.66-1c.14-.16.59-.69.12-.64a1.84,1.84,0,0,0-.7.28c-.29.18-.53.43-.83.61-.5.31-1,.66-1.46,1l-1.27.83c-.38.26-.75.54-1.13.81-.54.39-1.08.78-1.63,1.16l-.91.63a4.29,4.29,0,0,0,.21-.46c.36-.89.71-1.79,1.06-2.68.18-.45.37-.9.56-1.34.28-.67.56-1.33.85-2s.53-1.2.8-1.79c.44-.95.91-1.9,1.33-2.86s.68-1.65,1-2.48C48.54,9,48.77,8.49,49,8c.06-.14.11-.27.16-.41l-.28.34c-.36.45-.71.92-1.07,1.38-.55.71-1.11,1.4-1.64,2.12S44.94,13.1,44.34,14l-1.15,1.59-1.3,1.73c-.29.39-.59.77-.89,1.15-.59.76-1.19,1.51-1.78,2.26-.1.12-.18.25-.3.42,0-.41.06-.76.09-1.11.07-.66.13-1.32.19-2,0-.46.11-.92.14-1.38s0-1,.08-1.52.1-1.17.12-1.75c0-.35.1-.68.12-1a1.9,1.9,0,0,0-.11-.75c-.19-.43-.43.23-.49.43a7.21,7.21,0,0,1-.55,1.07,14.48,14.48,0,0,0-.92,1.85c-.2.53-.48,1-.7,1.56s-.5,1.31-.75,2-.46,1.2-.68,1.79a2.5,2.5,0,0,0-.07.26,1.4,1.4,0,0,1-.1-.39c0-.41-.09-.83-.14-1.25S35,18,35,17.59s-.09-.92-.14-1.38-.11-.78-.14-1.17c-.06-.61-.08-1.22-.14-1.82-.07-.81-.16-1.62-.24-2.42s-.17-1.8-.26-2.7-.17-1.63-.26-2.44c-.06-.56-.12-1.11-.19-1.66-.11-.81-.23-1.62-.35-2.43h0a.84.84,0,0,0,.52-.87A.82.82,0,0,0,32.9,0a.8.8,0,0,0-.7.9.83.83,0,0,0,.1.29c0,.13,0,.26,0,.38C32.13,2.38,32,3.19,31.9,4c-.07.55-.13,1.1-.19,1.66-.09.81-.17,1.63-.26,2.44s-.17,1.8-.26,2.7S31,12.41,31,13.22c-.06.6-.08,1.21-.13,1.82,0,.39-.1.78-.15,1.17s-.09.92-.14,1.38-.11.85-.16,1.28-.09.84-.14,1.25a1.4,1.4,0,0,1-.1.39,2.5,2.5,0,0,0-.07-.26c-.22-.59-.45-1.19-.67-1.79s-.49-1.32-.76-2-.5-1-.69-1.56A14.55,14.55,0,0,0,27,13.08,7.21,7.21,0,0,1,26.46,12c-.06-.2-.29-.86-.49-.43a1.9,1.9,0,0,0-.11.75c0,.35.11.68.12,1,0,.58.08,1.16.12,1.75s0,1,.08,1.52.09.92.14,1.38c.06.67.13,1.33.19,2,0,.35.06.7.09,1.11-.12-.17-.2-.3-.3-.42-.59-.75-1.19-1.5-1.78-2.26-.3-.38-.6-.76-.89-1.15l-1.3-1.73C22,15,21.56,14.49,21.19,14c-.61-.86-1.2-1.73-1.82-2.58S18.28,10,17.73,9.26c-.36-.46-.71-.93-1.07-1.38-.09-.12-.19-.23-.28-.34.05.14.1.27.16.41.21.54.44,1.08.66,1.62.33.83.65,1.66,1,2.48s.89,1.91,1.33,2.86c.27.59.54,1.19.8,1.79s.57,1.32.85,2c.19.44.38.89.56,1.34.35.89.7,1.79,1.06,2.68l.21.46-.91-.63-1.63-1.16c-.37-.27-.74-.55-1.13-.81l-1.27-.83c-.49-.32-1-.67-1.46-1-.29-.18-.54-.43-.83-.61a1.84,1.84,0,0,0-.7-.28c-.47-.05,0,.48.12.64a6.74,6.74,0,0,1,.66,1A15,15,0,0,0,17,21.24c.37.44.66.93,1,1.38s.88,1.1,1.33,1.64l1.21,1.49.19.18a1.59,1.59,0,0,1-.39-.1l-1.15-.51L18,24.82c-.43-.18-.84-.38-1.26-.57S16,24,15.66,23.79c-.55-.26-1.09-.54-1.65-.8L11.8,22,9.33,20.87l-2.25-1c-.5-.23-1-.46-1.53-.67L3.28,18.3l-.2-.08a.29.29,0,0,0,0-.13.82.82,0,0,0-.89-.69.8.8,0,0,0-.7.9.82.82,0,0,0,.9.69H2.5l.27.21L4.7,20.7c.44.34.89.66,1.34,1l2,1.45,2.21,1.58c.65.47,1.31,1,2,1.41.5.35,1,.68,1.52,1,.32.23.62.47.94.71s.75.53,1.12.81.69.52,1,.78.68.49,1,.75a1.24,1.24,0,0,1,.28.28,1.25,1.25,0,0,0-.26-.07L16,30.11c-.69-.11-1.38-.24-2.08-.33s-1.14-.08-1.7-.18a14.15,14.15,0,0,0-2.06-.12,8.19,8.19,0,0,1-1.21-.07c-.2,0-.89-.17-.61.21a1.68,1.68,0,0,0,.59.47c.31.16.65.25.95.41.51.28,1.05.52,1.58.78s.9.47,1.35.69.85.38,1.27.57l1.82.83,1,.47-.51,0-2.84.42-1.45.19-2.15.26L8,35c-1,.1-2.09.17-3.14.28-.89.1-1.77.24-2.65.36-.58.08-1.16.15-1.74.24L0,35.91.43,36c.58.09,1.16.16,1.74.24.88.12,1.76.26,2.65.36,1,.11,2.1.18,3.14.28l2,.2,2.15.26,1.45.19,2.84.42.51,0-1,.47L14,39.28c-.42.19-.85.37-1.27.57l-1.35.69c-.53.26-1.07.5-1.58.78-.3.16-.64.25-.95.41a1.68,1.68,0,0,0-.59.47c-.28.38.41.25.61.21a8.19,8.19,0,0,1,1.21-.07,14.15,14.15,0,0,0,2.06-.12c.56-.1,1.13-.1,1.7-.18s1.39-.22,2.08-.33l1.89-.31a1.25,1.25,0,0,0,.26-.07,1.24,1.24,0,0,1-.28.28l-1,.75c-.34.26-.68.53-1,.78s-.75.54-1.12.81-.62.48-.94.71c-.5.35-1,.68-1.52,1-.66.46-1.32.94-2,1.41L8,48.68,6,50.13l-1.34,1L2.77,52.63l-.08.06a1.15,1.15,0,0,0-.26,0,.84.84,0,0,0-.51.28l-.11.11a.78.78,0,0,0-.16.59.81.81,0,0,0,.31.53l.18.11a.82.82,0,0,0,.41.05h.08l.2-.05a.81.81,0,0,0,.33-.25l.11-.19a.83.83,0,0,0,.06-.35l2.22-.9c.52-.21,1-.44,1.53-.67l2.25-1,2.47-1.12,2.21-1c.56-.26,1.1-.54,1.65-.8.36-.17.73-.31,1.09-.46s.83-.39,1.26-.57l1.19-.5L20.35,46a1.59,1.59,0,0,1,.39-.1l-.19.18-1.21,1.49c-.45.54-.9,1.08-1.33,1.64s-.64.94-1,1.38a15,15,0,0,0-1.13,1.72,6.74,6.74,0,0,1-.66,1c-.13.16-.59.69-.12.64a1.84,1.84,0,0,0,.7-.28c.29-.18.54-.43.83-.61.5-.31,1-.66,1.46-1l1.27-.83c.39-.26.76-.54,1.13-.81l1.63-1.16.91-.63-.21.46c-.36.89-.71,1.79-1.06,2.68-.18.45-.37.9-.56,1.34-.28.67-.56,1.33-.85,2s-.53,1.2-.8,1.79c-.44,1-.9,1.9-1.33,2.86s-.68,1.65-1,2.48c-.22.54-.45,1.08-.66,1.62-.06.14-.11.27-.16.41.09-.11.19-.22.28-.34.36-.45.71-.92,1.07-1.38.55-.71,1.11-1.4,1.64-2.12s1.21-1.72,1.82-2.58c.37-.53.76-1.06,1.14-1.59l1.3-1.73c.29-.39.59-.77.89-1.15.59-.76,1.19-1.51,1.78-2.26.1-.12.18-.25.3-.42,0,.41-.06.76-.09,1.11-.06.66-.13,1.33-.19,2-.05.46-.1.92-.14,1.38s-.05,1-.08,1.52S26,57.88,26,58.46c0,.35-.1.68-.12,1a1.9,1.9,0,0,0,.11.75c.2.43.43-.23.49-.43A7.21,7.21,0,0,1,27,58.74a14.55,14.55,0,0,0,.93-1.85c.19-.53.47-1,.69-1.56s.51-1.31.76-2,.45-1.2.67-1.79a2.5,2.5,0,0,0,.07-.26,1.4,1.4,0,0,1,.1.39c.05.41.1.83.14,1.25s.12.85.16,1.28.09.92.14,1.38.11.78.15,1.17c.05.61.07,1.22.13,1.82.07.81.16,1.62.24,2.42s.17,1.8.26,2.7.17,1.63.26,2.44c.06.56.12,1.11.19,1.66.11.81.23,1.62.35,2.43v0a.88.88,0,0,0-.37.79.82.82,0,0,0,.9.69.79.79,0,0,0,.69-.89.69.69,0,0,0-.22-.45,1,1,0,0,0,0-.16c.12-.81.24-1.62.35-2.43.07-.55.13-1.1.19-1.66.09-.81.18-1.63.26-2.44s.18-1.8.26-2.7.17-1.61.24-2.42c.06-.6.08-1.21.14-1.82,0-.39.09-.78.14-1.17s.09-.92.14-1.38.11-.85.16-1.28.09-.84.14-1.25a1.4,1.4,0,0,1,.1-.39,2.5,2.5,0,0,0,.07.26c.22.59.45,1.19.68,1.79s.48,1.32.75,2,.5,1,.7,1.56a14.48,14.48,0,0,0,.92,1.85,7.21,7.21,0,0,1,.55,1.07c.06.2.3.86.49.43a1.9,1.9,0,0,0,.11-.75c0-.35-.11-.68-.12-1,0-.58-.08-1.17-.12-1.75s0-1-.08-1.52-.09-.92-.14-1.38c-.06-.67-.12-1.33-.19-2,0-.35-.06-.7-.09-1.11.12.17.2.3.3.42.59.75,1.19,1.5,1.78,2.26.3.38.6.76.89,1.15l1.3,1.73,1.15,1.59c.6.86,1.19,1.73,1.81,2.58s1.09,1.41,1.64,2.12c.36.46.71.93,1.07,1.38l.28.34c0-.14-.1-.27-.16-.41-.21-.54-.44-1.08-.65-1.62-.34-.83-.66-1.66-1-2.48s-.89-1.91-1.33-2.86c-.27-.59-.54-1.19-.8-1.79s-.57-1.32-.85-2c-.19-.44-.38-.89-.56-1.34-.35-.89-.7-1.79-1.06-2.68a4.29,4.29,0,0,0-.21-.46l.91.63c.55.38,1.09.77,1.63,1.16.38.27.75.55,1.13.81l1.27.83c.49.32,1,.67,1.46,1,.3.18.54.43.83.61a1.84,1.84,0,0,0,.7.28c.47,0,0-.48-.12-.64a7.62,7.62,0,0,1-.66-1,15,15,0,0,0-1.13-1.72c-.37-.44-.66-.93-1-1.38s-.88-1.1-1.33-1.64L45,46.07a1.66,1.66,0,0,0-.19-.18,1.48,1.48,0,0,1,.39.1l1.15.51,1.19.5c.43.18.84.38,1.27.57s.72.29,1.08.46c.55.26,1.09.54,1.65.8l2.21,1L56.19,51l2.25,1c.51.23,1,.46,1.53.67l2.27.91.2.08c0,.06,0,.12,0,.18a.83.83,0,0,0,.26.33.78.78,0,0,0,.59.16.76.76,0,0,0,.53-.3l.11-.19a.78.78,0,0,0,0-.4V53.3a1.17,1.17,0,0,0,0-.2.78.78,0,0,0-.25-.34.83.83,0,0,0-.59-.16.91.91,0,0,0-.29.1l-.09-.07-1.92-1.51-1.35-1-2-1.45L55.29,47.1c-.65-.47-1.31-1-2-1.41l-1.51-1c-.33-.23-.63-.47-1-.71s-.75-.53-1.12-.81-.69-.52-1-.78-.68-.49-1-.75a1.09,1.09,0,0,1-.29-.28,1.25,1.25,0,0,0,.26.07l1.89.31c.69.11,1.39.24,2.08.33s1.14.08,1.7.18a14.15,14.15,0,0,0,2.06.12,8.19,8.19,0,0,1,1.21.07c.2,0,.89.17.61-.21a1.68,1.68,0,0,0-.59-.47c-.31-.16-.64-.25-1-.41-.51-.28-1-.52-1.57-.78s-.91-.47-1.36-.69-.85-.38-1.27-.57l-1.82-.83-1-.47.51,0L52,37.51l1.44-.19,2.15-.26,2-.2c1-.1,2.09-.17,3.14-.28.89-.1,1.77-.24,2.66-.36L65.09,36l.43-.07-.43-.07-1.73-.24c-.89-.12-1.77-.26-2.66-.36-1.05-.11-2.1-.18-3.14-.28l-2-.2-2.15-.26L52,34.31l-2.85-.42-.51,0,1-.47,1.82-.83c.42-.19.85-.37,1.27-.57s.9-.47,1.36-.69,1.06-.5,1.57-.78c.31-.16.64-.25,1-.41a1.68,1.68,0,0,0,.59-.47c.28-.38-.41-.25-.61-.21a8.19,8.19,0,0,1-1.21.07,14.15,14.15,0,0,0-2.06.12c-.56.1-1.13.1-1.7.18s-1.39.22-2.08.33l-1.89.31a1.25,1.25,0,0,0-.26.07,1.09,1.09,0,0,1,.29-.28c.33-.26.67-.5,1-.75s.68-.53,1-.78.75-.54,1.12-.81.62-.48,1-.71l1.51-1c.66-.46,1.32-.94,2-1.41l2.21-1.58,2-1.45c.45-.33.9-.65,1.35-1l1.92-1.51L63,19a1.07,1.07,0,0,0,.53.13.79.79,0,0,0,.69-.89.82.82,0,0,0-.89-.7A.76.76,0,0,0,62.61,18.17ZM43.33,23.32a11.6,11.6,0,0,1,1.37-1c.4-.29.8-.58,1.21-.86s1.09-.74,1.62-1.13,1.28-.95,1.92-1.43l0,0-.32.4L48,20.82c-.31.4-.59.83-.9,1.22s-.88,1.05-1.33,1.58c-.19.22-.39.43-.58.66-.41.5-.82,1-1.22,1.52-.08.1-.13.22-.2.32l-.34.48a2.28,2.28,0,0,0-.19-.3c-.08-.09-.07-.15,0-.25.47-.6.95-1.2,1.4-1.82.13-.18.37-.38.12-.61l-.23-.05a.17.17,0,0,0-.12,0l-.9.37-1.39.66a.4.4,0,0,1-.55-.14,1.34,1.34,0,0,0,.3-.12C42.35,24,42.9,23.74,43.33,23.32Zm.85,5.83v0a.31.31,0,0,0,.05.1h0l.06.09v0h0c.15.18.32.35.52.55a1.71,1.71,0,0,1-.36.08.25.25,0,0,1-.2-.1c-.08-.12-.15-.25-.22-.38h0L44,29.42a.75.75,0,0,0-.07-.12h0l-.23-.38a.24.24,0,0,1,0-.22,1.44,1.44,0,0,1,.25-.28c.07.27.13.5.21.73Zm2.46,7V37c-.16-.08-.32-.11-.4-.21s0-.23,0-.35,0-.37.07-.55,0-.37-.07-.55,0-.28,0-.35.24-.13.4-.21v1.3Zm-8.46,9.16,1-1,1.43,2.56,0,0Zm.52.88,0,0h0a.43.43,0,0,0,0-.05Zm-5.8,3h-.28l-.74.18A1.83,1.83,0,0,1,32,49a.28.28,0,0,1,.18-.13h1.18a.26.26,0,0,1,.18.13,1.83,1.83,0,0,1,.11.35l-.74-.18ZM32.76,48l.29,0c.07,0,.12.06.18.09l0,.06-.3,0v0h-.28v0l-.3,0,0-.06c.06,0,.12-.09.18-.09Zm-.13-.73c0-.21,0-.3.13-.3s.12.09.14.3h-.27Zm-.71.87h-.07c-.14-.69-.28-1.38-.43-2.08l1.14,0Zm1.68,0L33,46l1.14,0c-.14.7-.29,1.39-.43,2.08Zm-.24-2.82H31.17c-.12,0-.16-.07-.1-.18s.14-.35.23-.52a18.08,18.08,0,0,0,1-2.26,6.19,6.19,0,0,1,.28-.58l.21-.36.21.36a4.41,4.41,0,0,1,.28.58,16.76,16.76,0,0,0,1,2.26c.09.17.15.35.23.52s0,.18-.11.18ZM25,46.88l0,0,1.43-2.56,1,1Zm1.88-.76v.05h0v0Zm-5.54-3.47a.31.31,0,0,0,0-.1h0l-.06-.09v0h0c-.16-.18-.33-.35-.53-.55a2,2,0,0,1,.36-.08.25.25,0,0,1,.2.1c.08.12.15.25.22.38h0l.07.12.07.12h0l.23.38a.24.24,0,0,1,0,.22,1.72,1.72,0,0,1-.24.28c-.08-.27-.14-.5-.22-.73h0Zm-2.45-6.93V34.8c.17.08.32.11.4.21s0,.23,0,.35,0,.37-.07.55.05.37.07.55.05.28,0,.35-.23.13-.4.21v-1.3ZM21.2,29.4v0l.06-.09h0a.31.31,0,0,0,0-.1v0h0c.08-.23.14-.46.22-.73a1.72,1.72,0,0,1,.24.28.24.24,0,0,1,0,.22l-.23.38h0l-.07.12-.07.12h0c-.07.13-.14.26-.22.38a.25.25,0,0,1-.2.1,2,2,0,0,1-.36-.08c.2-.2.37-.37.53-.55Zm6.14-2.84-1,1L24.94,25l0,0Zm-.51-.88v0h0v.05Zm5.93-3h.14l.74-.18a1.83,1.83,0,0,1-.11.35.26.26,0,0,1-.18.13H32.17a.28.28,0,0,1-.18-.13,1.83,1.83,0,0,1-.11-.35l.74.18h.14Zm0-5.87Zm0,7-.29,0c-.06,0-.12-.06-.18-.09l0-.06.3,0v0h.28v0l.3,0,0,.06c-.06,0-.11.09-.18.09Zm.14.73c0,.21,0,.3-.14.3s-.11-.09-.13-.3h.27Zm.7-.87h.07c.14.69.29,1.38.43,2.08l-1.14,0Zm-1.68,0,.64,2.11-1.14,0c.15-.7.29-1.39.43-2.08Zm.24,2.82c.2,0,.4,0,.6,0s.4,0,.6,0h1c.12,0,.16.07.11.18s-.14.35-.23.52a16.76,16.76,0,0,0-1,2.26A4.41,4.41,0,0,1,33,30l-.21.36L32.55,30a6.19,6.19,0,0,1-.28-.58,18.08,18.08,0,0,0-1-2.26c-.09-.17-.16-.35-.23-.52s0-.18.1-.18Zm8.38-1.55s0,0,0,0l-1.43,2.56-1-1Zm-1.89.76a.43.43,0,0,0,0-.05h0l0,0ZM43.2,37.26l.37-1.33,2.57,1.23v.06Zm2.13.33-.35,1c-.33-.11-.33,0-.24-.43L44.8,38c.12-.4.12-.4.53-.38Zm-1.14,0c-.08.19-.15.38-.22.56-.3-.08-.14-.26-.11-.39A.23.23,0,0,1,44.19,37.63Zm-.84,0c-.1.2-.11.2-.39,0ZM43,34.17c.28-.23.29-.23.39,0Zm1.59,1.74,0,0v0Zm.72-.09c-.05-.27-.05-.27.23-.36,0,.15,0,.3.07.45s0,.3-.07.45c-.28-.09-.28-.09-.23-.36,0,0,0-.06,0-.09S45.28,35.85,45.27,35.82Zm-1.7.07-.37-1.33,2.94,0v.06Zm.4-2.26c.07.18.14.37.22.56a.23.23,0,0,1-.33-.17C43.83,33.89,43.67,33.71,44,33.63Zm1.36.6c-.41,0-.41,0-.53-.38l-.06-.22c-.09-.41-.09-.32.24-.43.11.34.23.67.35,1Zm-.56-1.32c-.57.15-1.05.51-1.63.67s-1.3.45-2,.67c-.2.07-.41.08-.61.16s-.61.32-.93.45-.7.22-1,.35-.85.32-1.27.5l-.44.2.44.2c.42.18.84.35,1.27.5s.7.22,1,.35.61.32.93.45.41.09.61.16c.65.22,1.29.5,2,.67s1.06.52,1.63.67a.33.33,0,0,1,.1.06l0,0c-.2,0-.39-.13-.59-.17s-.32,0-.48-.05l-1.19-.22c-.14,0-.29,0-.44-.06l-1.48-.14-1.56-.12a13.18,13.18,0,0,1-1.41-.11,12,12,0,0,1-1.29-.29L36,37.58a.51.51,0,0,0-.07-.17c.43,0,.87.05,1.3,0a2,2,0,0,0,.73,0c.24-.11.17-.35,0-.46l-1.41-.74-.55-.3.55-.29,1.41-.75c.21-.11.28-.35,0-.46a2,2,0,0,0-.73,0,11,11,0,0,0-1.15,0,.5.5,0,0,0,0-.21l.4-.23a12,12,0,0,1,1.29-.29,13.18,13.18,0,0,1,1.41-.11l1.56-.12,1.48-.14c.15,0,.3,0,.44-.06L43.78,33c.16,0,.32,0,.48-.05s.39-.11.59-.17l0,0A.33.33,0,0,1,44.77,32.91Zm-1.94,3a6.08,6.08,0,0,1-.16.74,5,5,0,0,1-.35.69.16.16,0,0,1-.16,0c-.5-.18-1-.38-1.5-.58s-.84-.34-1.26-.49-.8-.28-1.2-.41c.4-.13.8-.26,1.2-.41s.84-.33,1.26-.49l1.5-.58a.16.16,0,0,1,.16,0,5,5,0,0,1,.35.69A6.08,6.08,0,0,1,42.83,35.91Zm1.74,3.67c-.14.29-.27.58-.41.86,0,.07-.11.17-.16.16s-.15-.1-.23-.16.13-.06.15-.09a4.69,4.69,0,0,0,.34-.67C44.33,39.49,44.41,39.48,44.57,39.58Zm-1-.17c-.1.23-.18.45-.29.7l-.25-.25h.08a2.06,2.06,0,0,0,.23-.37C43.42,39.33,43.49,39.33,43.6,39.41Zm-.75-.15-.14.31-.32-.33,0-.05Zm.09,3.5,0,.05-2-.67.56-1C42,41.71,42.45,42.23,42.94,42.76Zm-.59-1.32c0-.07.13,0,.32,0l-.06.12-.07.11C42.36,41.59,42.31,41.52,42.35,41.44Zm-1,1.41.34.1-.46.6c-.12-.06-.15-.12-.05-.24a2.42,2.42,0,0,0,.21-.39Zm-.43-.16-.19.28-.28-.34,0-.05Zm.32-2.59c-.1.18-.21.34-.3.52s-.2.35-.3.52l-.5.85c-.07.11-.14.1-.21,0a4.71,4.71,0,0,1-.33-.45,19.24,19.24,0,0,0-1.48-2,5.07,5.07,0,0,1-.36-.54l-.21-.35c.14,0,.28,0,.42,0a3.44,3.44,0,0,1,.64,0A20.45,20.45,0,0,0,41,39a5.32,5.32,0,0,1,.56.06c.12,0,.16.07.1.18Zm-.06-11.59c-.1-.12-.07-.18.05-.24.16.2.3.39.46.61l-.34.09a.25.25,0,0,0,0-.07A2.42,2.42,0,0,0,41.16,28.51Zm1.73.5a.12.12,0,0,1,0,0l-1.5,1.61-.56-1Zm-.22,1.33c-.19.09-.27.11-.32,0s0-.15.19-.27l.07.11Zm-2.21-1.1,0,0,.28-.34.19.28Zm.16,1.44c.1.17.19.35.3.52s.2.34.3.52l.48.86c.06.11,0,.17-.1.18a5.32,5.32,0,0,1-.56.06,20.45,20.45,0,0,0-2.45.29,3.44,3.44,0,0,1-.64,0h-.42l.21-.35a5.07,5.07,0,0,1,.36-.54,19.24,19.24,0,0,0,1.48-2,4.71,4.71,0,0,1,.33-.45c.07-.1.14-.11.21,0Zm1.77,1.9.32-.33.14.31-.44.07Zm.67-.62c.07-.08.15-.15.25-.25.11.25.19.47.29.7-.11.08-.18.08-.23-.08a2.06,2.06,0,0,0-.23-.37Zm1.2.18a4.69,4.69,0,0,0-.34-.67s-.08,0-.15-.09.15-.15.23-.16.13.09.16.16c.14.28.27.57.41.86C44.41,32.34,44.33,32.33,44.26,32.14Zm-2-.14c-.18-.3-.36-.62-.58-1l2.14-.5,0,.07Q43,31.28,42.22,32Zm1.35-1.79a.48.48,0,0,1-.17-.1l-.16-.25c-.05-.09-.09-.17-.13-.26a.45.45,0,0,1,0-.2h.07c0,.09.08.18.13.27h0l.08.12.06.13h0l.17.25Zm0-2.11a.27.27,0,0,1-.44,0c-.27-.36-.52-.74-.78-1.1a.18.18,0,0,1,0-.25l.22-.29c.34.51.67,1,1,1.51A.2.2,0,0,1,43.52,28.1Zm-1.14.2c0,.06.09.18.06.22s-.16.08-.25.12,0-.14,0-.18a5.11,5.11,0,0,0-.41-.62c-.13-.15-.11-.23.06-.33C42,27.78,42.21,28,42.38,28.3Zm-.32-2.23-.33.2a1.34,1.34,0,0,1-.07-.18.39.39,0,0,0-.08-.14c-.16-.19-.33-.39-.51-.57s-.23-.25,0-.54L42,25.9S42.08,26.05,42.06,26.07Zm-.85.62c-.26.22-.18.27-.48,0a1.21,1.21,0,0,1-.16-.16c-.29-.3-.29-.3-.07-.65h0ZM39,24c-.1,0-.25-.1-.29-.18a1.49,1.49,0,0,1,0-.46l.79.46.17.1.17.1.8.45c-.16.11-.27.23-.39.24s-.21-.09-.31-.16l-.44-.33Zm.51,1.13c-.22.2-.21.2-.42,0L39,25.06l-.09,0c-.26-.09-.26-.09-.2-.37l.43.16Zm.82,2.24c-.22.22-.29,0-.39-.1a.22.22,0,0,1,0-.37Zm-1,.61.22-.32C39.71,27.81,39.71,27.82,39.37,28Zm-1.22-1.41-1.34-.35c.51-.84,1-1.68,1.51-2.52l0,0C38.3,24.65,38.22,25.6,38.15,26.54Zm-.42-3.09c-.25-.07-.51-.11-.76-.16h-.15l-.19,0a2.64,2.64,0,0,1,0-.4s.11-.06.16-.05l1.39.29C38.06,23.52,38,23.53,37.73,23.45Zm-.14.73h0c-.19.37-.19.37-.59.27a1.41,1.41,0,0,1-.22-.06c-.4-.12-.32-.07-.26-.41Zm-.61,1a.22.22,0,0,1-.31.2c-.13,0-.36,0-.28-.28Zm-.46.71c-.06.13-.12.23-.17.34C36.3,25.85,36.3,25.84,36.52,25.86Zm.56,1.1a5.88,5.88,0,0,1,.71.23,5.47,5.47,0,0,1,.56.51,4.07,4.07,0,0,1,.43.65.18.18,0,0,1,0,.16l-1.26,1-1.06.85-1,.83c.08-.41.17-.82.25-1.24s.13-.89.2-1.34.16-1.06.25-1.59c0-.05.08-.11.12-.11A3.38,3.38,0,0,1,37.08,27ZM36.17,24c-.16.57-.08,1.17-.24,1.75s-.26,1.34-.39,2c0,.2-.14.4-.17.61s0,.69-.08,1-.15.71-.21,1.07-.15.9-.2,1.35c0,.16,0,.32-.05.48l.39-.28c.37-.27.73-.55,1.07-.84s.54-.5.83-.73.58-.37.85-.58.29-.31.45-.45c.51-.45,1.07-.87,1.55-1.35s1-.66,1.4-1.08l.09-.06,0,0a6.14,6.14,0,0,0-.45.43c-.11.12-.18.27-.28.39-.26.31-.53.61-.79.91-.1.11-.18.24-.27.36-.29.4-.58.8-.86,1.21L38,31.58c-.26.39-.5.8-.79,1.17s-.59.65-.9,1l-.42.24a.37.37,0,0,0-.18-.08c.21-.34.44-.67.62-1,.1-.2.32-.41.34-.65s-.21-.33-.41-.2l-1.35.85-.53.33c0-.21,0-.41,0-.62,0-.53,0-1.06.06-1.6,0-.23-.17-.41-.38-.26s-.27.43-.39.62c-.24.37-.43.77-.64,1.16a.33.33,0,0,0-.11-.15v-.55a13.19,13.19,0,0,1,.4-1.26,13.56,13.56,0,0,1,.61-1.28c.23-.47.45-.94.67-1.41s.42-.9.62-1.35c.06-.14.13-.27.18-.41.13-.38.26-.77.39-1.14.06-.15.15-.29.2-.44s.1-.4.15-.6h.05ZM34.53,25a.21.21,0,0,0,0,.06c0-.1-.06-.2-.09-.34l.75.1c0,.14,0,.19-.18.17A1.61,1.61,0,0,0,34.53,25Zm.37.54q-.07.23-.15.42h-.06l-.13-.44Zm.34-1.42A4.53,4.53,0,0,0,34.5,24s-.08.05-.16.09a.69.69,0,0,1,0-.28s.14-.06.22-.06l1,.08C35.5,24,35.44,24.1,35.24,24.07ZM32.79,38.93h0l0,0Zm-2.23-14c-.17,0-.2,0-.19-.17l.75-.1c0,.14-.06.24-.08.34L31,25A1.63,1.63,0,0,0,30.56,24.94Zm.4.53-.13.44h0c-.05-.13-.11-.27-.16-.42Zm.22-1.36c-.07,0-.11-.09-.16-.09a4.6,4.6,0,0,0-.74.05c-.2,0-.25,0-.25-.22l.95-.08c.08,0,.2,0,.22.06A.69.69,0,0,1,31.18,24.11Zm-1,2c.05.14.12.27.18.41l.62,1.35.67,1.41c.21.43.45.84.62,1.28s.27.83.39,1.26v.45a.33.33,0,0,0-.21.07,10.18,10.18,0,0,0-.53-1c-.13-.19-.2-.48-.4-.62s-.39,0-.38.26c0,.54,0,1.07.07,1.6,0,.21,0,.41,0,.62l-.52-.33c-.45-.28-.91-.56-1.35-.85-.2-.13-.45-.06-.42.2s.24.45.34.65c.2.38.44.74.67,1.1h-.08a.23.23,0,0,0-.11,0l-.46-.27c-.3-.32-.62-.63-.89-1s-.53-.78-.8-1.17l-.89-1.29c-.28-.41-.57-.81-.86-1.21-.09-.12-.17-.25-.27-.36-.26-.3-.53-.6-.79-.91-.1-.12-.17-.27-.28-.39A6,6,0,0,0,24,27l0,0,.1.06c.42.42,1,.66,1.39,1.08s1,.9,1.56,1.35c.15.14.28.32.44.45s.58.37.86.58.54.5.82.73.7.57,1.07.84l.39.28c0-.16,0-.32-.05-.48-.05-.45-.12-.9-.19-1.35s-.17-.71-.22-1.07,0-.69-.08-1S30,28,30,27.78c-.14-.68-.22-1.36-.4-2s-.08-1.18-.23-1.75a.45.45,0,0,1,0-.11h0c.05.2.09.4.15.6s.14.29.2.44C29.89,25.3,30,25.69,30.14,26.07Zm0,11.33,0,.06,0-.06Zm-2.57,0a2,2,0,0,0,.74,0,9.42,9.42,0,0,0,1.06,0,.43.43,0,0,0,0,.25l-.32.18a11.44,11.44,0,0,1-1.29.29,13.18,13.18,0,0,1-1.41.11l-1.56.12-1.48.14c-.15,0-.3,0-.44.06l-1.19.22c-.15,0-.32,0-.48.05s-.39.12-.59.17l0,0,.1-.06c.57-.15,1.05-.51,1.63-.67s1.3-.45,1.95-.67c.2-.07.42-.08.61-.16s.62-.32.94-.45.69-.22,1-.35.85-.32,1.27-.5l.44-.2-.44-.2c-.42-.18-.84-.35-1.27-.5s-.7-.22-1-.35-.62-.32-.94-.45-.41-.09-.61-.16c-.65-.22-1.28-.5-1.95-.67s-1.06-.52-1.63-.67l-.1-.06,0,0c.2.06.39.13.59.17s.33,0,.48.05l1.19.22c.14,0,.29,0,.44.06l1.48.14,1.56.12a13.18,13.18,0,0,1,1.41.11,11.44,11.44,0,0,1,1.29.29l.39.22h0a.35.35,0,0,0,0,.2h0c-.37,0-.75,0-1.12,0a2,2,0,0,0-.74,0c-.24.11-.17.35,0,.46l1.41.75.55.29-.55.3L27.65,37C27.44,37.06,27.37,37.3,27.61,37.41Zm-3.25,5.9c.1.12.07.18-.05.24l-.46-.6.34-.1,0,.07A2.42,2.42,0,0,0,24.36,43.31Zm-1.73-.5-.05-.05,1.51-1.61c.2.37.38.69.55,1Zm.22-1.33c.19-.09.28-.11.33,0s0,.15-.2.27l-.07-.11Zm2.22,1.1,0,.05-.29.34-.19-.28Zm-.17-1.44c-.1-.17-.19-.35-.3-.52s-.2-.35-.3-.52l-.48-.86c-.06-.11,0-.17.1-.18a5.32,5.32,0,0,1,.56-.06,20,20,0,0,0,2.45-.29,3.49,3.49,0,0,1,.65,0c.13,0,.27,0,.41,0l-.21.35a3.9,3.9,0,0,1-.36.54,17.8,17.8,0,0,0-1.47,2c-.1.16-.22.3-.33.45s-.15.11-.21,0Zm-1.76-1.9-.32.33c-.06-.11-.1-.2-.15-.31l.44-.07Zm-.68.62-.25.25c-.1-.25-.19-.47-.29-.7.11-.08.18-.08.23.08a2.85,2.85,0,0,0,.23.37Zm-.71.58c-.08.06-.15.15-.23.16s-.13-.09-.16-.16c-.14-.28-.27-.57-.41-.86.17-.1.25-.09.31.1a6,6,0,0,0,.34.67S21.68,40.4,21.75,40.44Zm.57-5.88L22,35.89l-2.57-1.23V34.6Zm-2.13-.33c.12-.36.24-.69.36-1,.32.11.32,0,.23.43l-.06.22c-.12.4-.12.4-.53.38Zm1.14,0c.08-.19.15-.38.22-.56.3.08.14.26.11.39S21.52,34.25,21.33,34.19Zm.85,0c.09-.2.1-.2.38,0Zm.38,3.51c-.28.23-.29.23-.38,0ZM21,35.91l-.05,0v0Zm-.73.09c.05.27.05.27-.22.36,0-.15-.05-.3-.08-.45s.05-.3.08-.45c.27.09.27.09.22.36,0,0,0,.06,0,.09S20.24,36,20.25,36Zm1.7-.07.37,1.33-2.94,0v-.06Zm-.4,2.26c-.07-.18-.14-.37-.22-.56.19-.06.29,0,.33.17S21.85,38.11,21.55,38.19Zm-1.36-.6c.41,0,.41,0,.53.38l.06.22c.09.41.09.32-.23.43-.12-.33-.24-.67-.36-1Zm2.5-1.68a6.11,6.11,0,0,1,.17-.74,4,4,0,0,1,.34-.69.17.17,0,0,1,.16,0l1.51.58c.42.16.83.34,1.25.49s.8.28,1.2.41c-.4.13-.8.26-1.2.41s-.83.33-1.25.49-1,.4-1.51.58a.17.17,0,0,1-.16,0,4,4,0,0,1-.34-.69A6.11,6.11,0,0,1,22.69,35.91ZM21,32.24c.14-.29.27-.58.41-.86,0-.07.11-.17.16-.16s.15.1.23.16-.13.06-.15.09a6,6,0,0,0-.34.67C21.2,32.33,21.12,32.34,21,32.24Zm1,.17c.1-.23.19-.45.29-.7.1.1.18.17.25.25h-.08a2.85,2.85,0,0,0-.23.37C22.1,32.49,22,32.49,21.92,32.41Zm.75.15c0-.11.09-.2.15-.31l.32.33,0,.05Zm-.09-3.5s0,0,.05,0l2,.67c-.17.3-.35.62-.55,1Zm.6,1.32c-.05.07-.14.05-.33,0l.06-.12.07-.11C23.16,30.23,23.21,30.3,23.18,30.38Zm1-1.41-.34-.09.46-.61c.12.06.15.12.05.24a2.42,2.42,0,0,0-.21.39A.25.25,0,0,0,24.19,29Zm.43.16.19-.28.29.34,0,0Zm-.32,2.59c.1-.18.21-.34.3-.52s.2-.35.3-.52l.51-.85c.06-.11.13-.1.21,0s.23.29.33.45a17.8,17.8,0,0,0,1.47,2,3.9,3.9,0,0,1,.36.54l.21.35h-.41a3.49,3.49,0,0,1-.65,0,20,20,0,0,0-2.45-.29,5.32,5.32,0,0,1-.56-.06c-.12,0-.16-.07-.1-.18Zm.88-4.38.38-.47a.22.22,0,0,1,0,.37C25.48,27.34,25.4,27.56,25.18,27.34Zm.75.29c.09.12.15.22.22.32C25.81,27.82,25.81,27.81,25.93,27.63Zm3.66,1c.07.45.13.9.2,1.34s.17.83.25,1.24l-.95-.83c-.34-.29-.7-.57-1.06-.85l-1.25-1a.14.14,0,0,1,0-.16,4,4,0,0,1,.42-.65,5.47,5.47,0,0,1,.56-.51,5.5,5.5,0,0,1,.72-.23,3.26,3.26,0,0,1,.77,0,.18.18,0,0,1,.13.11Zm-.42-2.42c-.05-.11-.1-.21-.17-.34C29.22,25.84,29.22,25.85,29.17,26.2Zm-.32-.85a.22.22,0,0,1-.31-.2l.59-.08C29.21,25.36,29,25.31,28.85,25.35Zm-.1-1-.23.06c-.4.1-.4.1-.59-.27h0L29,24C29.07,24.32,29.14,24.27,28.75,24.39Zm-.05-1.1h-.15c-.25.05-.51.09-.75.16s-.34.07-.47-.28l1.4-.29a.23.23,0,0,1,.16.05c0,.13,0,.26,0,.4Zm0,2.9-1.34.35c-.07-.94-.14-1.89-.22-2.85l.05,0C27.7,24.51,28.2,25.35,28.71,26.19ZM26,25.1l.35-.28.42-.16c.06.28.06.28-.2.37l-.08,0-.07.06C26.22,25.3,26.22,25.3,26,25.1Zm.79-1.31c0,.08-.19.13-.29.18l-.52.22-.44.33c-.1.07-.22.18-.31.16s-.23-.13-.38-.24l.79-.45.17-.1.17-.1.79-.46A1.49,1.49,0,0,1,26.8,23.79ZM25,25.86h0c.22.35.22.35-.06.65l-.17.17c-.3.28-.22.23-.48,0Zm-.57-.48c-.18.18-.35.38-.51.57a.37.37,0,0,0-.07.14,1.34,1.34,0,0,0-.07.18c-.12-.07-.24-.13-.34-.2s0-.13,0-.17l.95-1.06C24.68,25.13,24.67,25.16,24.45,25.38Zm-.77,2.13c.17.1.19.18.07.33a5.11,5.11,0,0,0-.41.62s0,.1,0,.18-.2-.06-.25-.12,0-.16.06-.22C23.31,28,23.49,27.78,23.68,27.51ZM23.22,27c-.26.36-.51.74-.77,1.1a.28.28,0,0,1-.45,0A.2.2,0,0,1,22,28c.32-.5.65-1,1-1.51l.22.29A.18.18,0,0,1,23.22,27Zm-1.14,2.93h0l.06-.13.08-.12h0c.05-.09.09-.18.13-.27h.07a.45.45,0,0,1,0,.2c0,.09-.08.17-.13.26s-.1.17-.16.25a.48.48,0,0,1-.17.1l0-.05ZM23.88,31l-.58,1-1.58-1.41a.14.14,0,0,1,0-.07Zm-3.05-.13-.58,1.23a.18.18,0,0,1-.21.12l-.36-.05c.27-.55.54-1.08.81-1.61,0,0,.09-.09.13-.08A.28.28,0,0,1,20.83,30.89ZM19.93,33l-.12.15a.6.6,0,0,0-.09.13c-.08.24-.17.48-.23.73s-.11.32-.48.27c.16-.46.3-.91.45-1.36,0,0,.1-.12.12-.11A2,2,0,0,1,19.93,33Zm-.44,4.87c.06.25.15.49.23.73a.6.6,0,0,0,.09.13l.12.15a2,2,0,0,1-.35.19s-.1-.06-.12-.11c-.15-.45-.29-.9-.45-1.36C19.38,37.52,19.41,37.54,19.49,37.84ZM20,39.58a.18.18,0,0,1,.21.12l.58,1.23a.28.28,0,0,1-.21.39s-.11,0-.13-.08c-.27-.53-.54-1.06-.81-1.61Zm1.7,1.72a.14.14,0,0,1,0-.07l1.58-1.4c.18.29.37.61.58,1Zm.21.31a.48.48,0,0,1,.17.1c.06.08.11.17.16.25l.13.26a.45.45,0,0,1,0,.2h-.07c0-.09-.08-.18-.13-.27h0L22.16,42l-.06-.13h0l-.17-.25ZM22,43.72a.28.28,0,0,1,.45,0c.26.36.51.74.77,1.1a.18.18,0,0,1,0,.25l-.22.29-1-1.5A.23.23,0,0,1,22,43.72Zm1.14-.2c0-.06-.09-.18-.06-.22s.16-.08.25-.12,0,.14,0,.18a5.11,5.11,0,0,0,.41.62c.12.15.1.23-.07.33C23.49,44,23.31,43.78,23.14,43.52Zm.32,2.23c.1-.07.22-.13.34-.2a1.34,1.34,0,0,0,.07.18.37.37,0,0,0,.07.14c.16.19.33.39.51.57s.23.25,0,.54l-.95-1.06S23.44,45.77,23.46,45.75Zm.85-.62c.26-.22.18-.27.48,0l.17.16c.28.3.28.3.06.65h0Zm2.47,2L26.36,47,26,46.72c.21-.2.21-.2.42,0l.07.06.08,0C26.84,46.88,26.84,46.88,26.78,47.16Zm0,1.33L26,48l-.17-.1-.17-.1-.79-.45c.15-.11.26-.23.38-.24s.21.09.31.16l.44.34c.17.07.35.13.52.21s.25.1.29.18A1.49,1.49,0,0,1,26.78,48.49Zm-1.6-4c.22-.22.3,0,.39.1a.22.22,0,0,1,0,.37Zm1-.61c-.07.1-.13.2-.22.32C25.81,44,25.81,44,26.15,43.87Zm1.22,1.41,1.34.35c-.51.84-1,1.68-1.51,2.52l-.05,0C27.23,47.17,27.3,46.22,27.37,45.28Zm.43,3.09c.24.07.5.11.75.16a.38.38,0,0,0,.15,0,1.38,1.38,0,0,0,.2,0c0,.14,0,.27,0,.4a.23.23,0,0,1-.16,0l-1.4-.29C27.46,48.3,27.49,48.29,27.8,48.37Zm.13-.73h0c.19-.37.19-.37.59-.27l.23.06c.39.12.32.07.25.41Zm.61-1a.22.22,0,0,1,.31-.2c.13,0,.36,0,.28.28ZM29,46l.17-.34C29.22,46,29.22,46,29,46Zm-.55-1.1a5.5,5.5,0,0,1-.72-.23,5.47,5.47,0,0,1-.56-.51,4,4,0,0,1-.42-.65s0-.13,0-.16l1.25-1c.36-.28.72-.56,1.06-.85l.95-.83c-.08.41-.17.83-.25,1.24s-.13.89-.2,1.34l-.24,1.59a.18.18,0,0,1-.13.11A3.26,3.26,0,0,1,28.45,44.86Zm.91,3c.15-.57.08-1.17.23-1.75s.26-1.34.4-2c0-.2.13-.4.16-.61s0-.69.08-1,.16-.71.22-1.07.14-.9.19-1.35c0-.16,0-.32.05-.48l-.39.28c-.37.27-.72.55-1.07.84s-.54.5-.82.73-.58.38-.86.58-.29.31-.44.45c-.52.45-1.07.87-1.56,1.35s-1,.66-1.39,1.08l-.1.06,0,0a6,6,0,0,0,.44-.43c.11-.12.18-.27.28-.39.26-.31.53-.61.79-.91.1-.12.18-.24.27-.36.29-.4.58-.8.86-1.21l.89-1.29c.27-.39.5-.8.8-1.17s.59-.65.89-1l.36-.21a.42.42,0,0,0,.23.07h0c-.21.33-.43.66-.61,1s-.32.41-.34.65.22.33.42.2c.44-.29.9-.57,1.35-.85l.52-.33c0,.21,0,.41,0,.62,0,.53,0,1.06-.07,1.6,0,.23.17.41.38.26s.27-.43.4-.62.37-.66.55-1a.47.47,0,0,0,.19.18V40c-.12.43-.24.85-.39,1.26s-.41.85-.62,1.28L30.94,44c-.21.45-.41.9-.62,1.36-.06.13-.13.26-.18.4-.13.38-.25.77-.39,1.14-.06.15-.15.29-.2.44s-.1.4-.15.6h0A.45.45,0,0,1,29.36,47.81ZM31,46.87l0-.06c0,.1.05.2.08.34l-.75-.1c0-.14,0-.19.19-.17A1.63,1.63,0,0,0,31,46.87Zm-.38-.54c.05-.15.11-.29.16-.42h0l.13.44Zm-.34,1.42a4.6,4.6,0,0,0,.74,0c.05,0,.09,0,.16-.09a.69.69,0,0,1,0,.28s-.14.06-.22.06L30,48C30,47.78,30.08,47.72,30.28,47.75ZM35,46.88c.16,0,.19,0,.18.17l-.75.1c0-.14.06-.24.09-.34a.21.21,0,0,0,0,.06A1.61,1.61,0,0,0,35,46.88Zm-.41-.53.13-.44h.06q.07.2.15.42Zm-.22,1.36c.08,0,.12.09.16.09a4.53,4.53,0,0,0,.74,0c.2,0,.26,0,.25.22l-1,.08c-.08,0-.2,0-.22-.06A.69.69,0,0,1,34.34,47.71Zm1-2c-.05-.14-.12-.27-.18-.4-.2-.46-.41-.91-.62-1.36s-.44-.94-.67-1.41a13.56,13.56,0,0,1-.61-1.28A13.19,13.19,0,0,1,32.9,40v-.33a.3.3,0,0,0,.22-.17,10.07,10.07,0,0,0,.53,1c.12.19.2.48.39.62s.39,0,.38-.26c0-.54-.05-1.07-.06-1.6,0-.21,0-.41,0-.62l.53.33,1.35.85c.2.13.44.06.41-.2s-.24-.45-.34-.65a9.79,9.79,0,0,0-.59-1,.33.33,0,0,0,.18-.11l.39.22c.31.32.62.63.9,1s.53.78.79,1.17l.89,1.29c.28.41.57.81.86,1.21.09.12.17.24.27.36.26.3.53.6.79.91.1.12.17.27.28.39a6.14,6.14,0,0,0,.45.43l0,0-.09-.06c-.42-.42-1-.65-1.4-1.08s-1-.9-1.55-1.35c-.16-.14-.28-.32-.45-.45s-.58-.37-.85-.58-.54-.5-.83-.73-.7-.57-1.07-.84l-.39-.28c0,.16,0,.32.05.48,0,.45.12.9.2,1.35s.16.71.21,1.07,0,.69.08,1,.13.41.17.61c.13.68.21,1.36.39,2s.08,1.18.24,1.75v.11h-.05c0-.2-.09-.4-.15-.6s-.14-.29-.2-.44C35.64,46.52,35.51,46.13,35.38,45.75Zm5-1.27L40,45a.22.22,0,0,1,0-.37C40.05,44.48,40.12,44.26,40.34,44.48Zm-.75-.29-.22-.32C39.71,44,39.71,44,39.59,44.19Zm-3.66-1c-.07-.45-.13-.9-.2-1.34s-.17-.83-.25-1.24l1,.83,1.06.85,1.26,1a.19.19,0,0,1,0,.16,4.07,4.07,0,0,1-.43.65,5.47,5.47,0,0,1-.56.51,5.88,5.88,0,0,1-.71.23,3.38,3.38,0,0,1-.78,0s-.12-.06-.12-.11C36.09,44.26,36,43.73,35.93,43.2Zm.42,2.42c0,.11.11.21.17.34C36.3,46,36.3,46,36.35,45.62Zm.32.85a.22.22,0,0,1,.31.2l-.59.08C36.31,46.46,36.54,46.51,36.67,46.47Zm.11,1a1.41,1.41,0,0,1,.22-.06c.4-.1.4-.1.59.27h0l-1.07.2C36.46,47.5,36.38,47.55,36.78,47.43Zm0,1.09a.38.38,0,0,0,.15,0c.25-.05.51-.09.76-.16s.33-.07.46.28l-1.39.29s-.16,0-.16,0a2.64,2.64,0,0,1,0-.4Zm0-2.89,1.34-.35c.07.94.15,1.89.22,2.85l0,0C37.82,47.31,37.32,46.47,36.81,45.63Zm2.71,1.09-.35.28-.43.16c-.06-.28-.06-.28.2-.37l.09,0,.07-.06C39.31,46.52,39.3,46.52,39.52,46.72ZM38.72,48c0-.08.19-.13.29-.18l.52-.21L40,47.3c.1-.07.22-.18.31-.16s.23.13.39.24l-.8.45-.17.1-.17.1-.79.46A1.49,1.49,0,0,1,38.72,48ZM40.51,46h0c-.22-.35-.22-.35.07-.65a1.21,1.21,0,0,1,.16-.16c.3-.29.22-.24.48,0Zm.56.48c.18-.18.35-.38.51-.57a.39.39,0,0,0,.08-.14,1.34,1.34,0,0,1,.07-.18l.33.2s0,.13,0,.17L41.08,47C40.84,46.69,40.85,46.66,41.07,46.44Zm.77-2.13c-.17-.1-.19-.18-.06-.33a5.11,5.11,0,0,0,.41-.62s0-.1,0-.18.2.06.25.12,0,.16-.06.22C42.21,43.78,42,44,41.84,44.31Zm.46.53c.26-.36.51-.74.78-1.1a.27.27,0,0,1,.44,0,.23.23,0,0,1,0,.16l-1,1.5-.22-.29A.18.18,0,0,1,42.3,44.84Zm1.14-2.93h0l-.06.13-.08.12h0c0,.09-.09.18-.13.27H43.1a.45.45,0,0,1,0-.2c0-.09.08-.17.13-.26l.16-.25a.48.48,0,0,1,.17-.1l0,0Zm-1.8-1.11c.22-.36.4-.68.58-1l1.59,1.4,0,.07Zm2.06,2.1.23-.38h0A.75.75,0,0,0,44,42.4l.08-.12h0c.07-.13.14-.26.22-.38a.25.25,0,0,1,.2-.1,1.71,1.71,0,0,1,.36.08c-.2.2-.37.37-.52.55h0v0l-.06.09h0a.31.31,0,0,0-.05.1v0h0c-.08.23-.14.46-.21.73a1.44,1.44,0,0,1-.25-.28A.24.24,0,0,1,43.7,42.9Zm1-2c.18-.41.38-.82.57-1.23a.18.18,0,0,1,.21-.12l.36.05c-.27.55-.54,1.08-.81,1.61,0,0-.09.09-.13.08A.27.27,0,0,1,44.7,40.93Zm.89-2.08.13-.15a.57.57,0,0,0,.08-.13c.08-.24.17-.48.24-.73s.1-.32.47-.27l-.45,1.36s-.1.12-.12.11A3,3,0,0,1,45.59,38.85ZM46,34c-.07-.25-.16-.49-.24-.73a.57.57,0,0,0-.08-.13L45.59,33a3,3,0,0,1,.35-.19s.1.06.12.11l.45,1.36C46.14,34.3,46.12,34.28,46,34Zm-.56-1.74a.18.18,0,0,1-.21-.12c-.19-.41-.39-.82-.57-1.23a.27.27,0,0,1,.2-.39s.11,0,.13.08c.27.53.54,1.06.81,1.61ZM39.16,22c.38-.54.75-1.09,1.14-1.63s.64-.85,1-1.28.74-1,1.1-1.52c.15-.21.28-.44.43-.65.39-.53.8-1.05,1.19-1.58l1.2-1.65q.44-.58.84-1.17c.17-.24.32-.49.49-.71s.41-.51.62-.77l-.36.92c-.1.26-.25.52-.37.77l-.6,1.32c-.27.62-.55,1.24-.82,1.87s-.51,1.21-.77,1.82c-.11.24-.24.46-.35.7-.26.56-.52,1.13-.77,1.71s-.41,1-.63,1.46-.57,1.2-.85,1.8l-.29.68-.07.07a.46.46,0,0,1-.07-.07s-.05-.1-.08-.12c-.37-.22-.26-.21-.15-.54s.26-.7.39-1.06.35-.89.48-1.35.2-.84.3-1.26l0-.07-.06,0c-.31.3-.65.57-.94.89s-.63.72-.93,1.09-.46.59-.71.87-.17.35-.55.14a.32.32,0,0,0-.14,0l-.1,0s0-.07,0-.09Zm-3.44-.54a2.11,2.11,0,0,0,.18-.33c.24-.6.48-1.21.71-1.81.1-.28.18-.57.28-.84.23-.65.46-1.3.71-1.94.18-.47.4-.92.6-1.39s.48-1.16.72-1.75c.07-.16.13-.32.19-.48l0,0c-.09.79-.2,1.59-.28,2.38s-.1,1.31-.16,2c0,.49-.1,1-.14,1.48a11.82,11.82,0,0,1-.2,1.69c-.15.58-.07,1.17-.17,1.75a1.25,1.25,0,0,0,0,.32.41.41,0,0,1-.4-.41c0-.51-.08-1-.13-1.53,0-.32-.08-.64-.12-1a.39.39,0,0,0-.06-.11l-.16-.17c-.33-.11-.38.2-.47.41-.31.7-.59,1.41-.88,2.12,0,.12-.09.15-.21.13a1.86,1.86,0,0,0-.35,0Zm.36,1.26-.14.34a.17.17,0,0,1-.21.12c-.45,0-.9-.07-1.35-.12a.27.27,0,0,1-.24-.37.2.2,0,0,1,.15-.07Zm-5.33-1.21c.19-1.22.4-2.44.57-3.67.12-.81.19-1.64.27-2.46s.11-1.56.16-2.33.08-1.57.13-2.35c.1-1.32.21-2.64.31-4,.07-1,.11-2,.18-3,.06-.74.18-1.48.22-2.23V1.47a.92.92,0,0,0,.33.11c0,.73.16,1.46.22,2.19.07,1,.11,2,.18,3,.1,1.32.21,2.64.31,4,0,.78.09,1.56.13,2.35s.1,1.55.16,2.33.15,1.65.27,2.46c.17,1.23.38,2.45.57,3.67,0,.15,0,.29,0,.45a1.21,1.21,0,0,1-.3,0,.37.37,0,0,1-.21-.12,3.89,3.89,0,0,1-.44-1c-.23-.93-.53-1.84-.79-2.76l-.18-.68v-.62h0a.39.39,0,0,0,.15-.27.38.38,0,0,0-.07-.29l-.06-.06a.43.43,0,0,0-.35-.14.42.42,0,0,0-.18.75.5.5,0,0,0,.21.09v.55l-.18.68c-.26.92-.56,1.83-.78,2.76a3.91,3.91,0,0,1-.45,1,.37.37,0,0,1-.21.12,1.21,1.21,0,0,1-.3,0C30.72,21.8,30.73,21.66,30.75,21.51Zm.49,1.11a.19.19,0,0,1,.14.07.27.27,0,0,1-.24.37c-.45.05-.9.08-1.35.12a.17.17,0,0,1-.21-.12l-.14-.34Zm-4.88-9.68.05,0c.07.16.13.32.19.48l.72,1.75c.2.47.42.92.61,1.39.25.64.47,1.29.7,1.94.1.27.18.56.29.84.22.6.46,1.21.7,1.81.05.12.13.22.18.33L30,22a1.89,1.89,0,0,0-.35,0c-.12,0-.17,0-.21-.13-.28-.71-.57-1.42-.88-2.12-.08-.21-.14-.52-.47-.41l-.16.17a.39.39,0,0,0-.06.11c0,.32-.09.64-.12,1-.05.51-.09,1-.13,1.53a.41.41,0,0,1-.4.41.93.93,0,0,0,0-.32c-.1-.58,0-1.17-.17-1.75A10.53,10.53,0,0,1,27,18.77l-.15-1.48c-.05-.66-.09-1.31-.16-2S26.46,13.73,26.36,12.94Zm-3.92,7.21c-.25-.58-.51-1.15-.77-1.71-.11-.24-.24-.46-.34-.7-.27-.61-.52-1.22-.78-1.82s-.55-1.25-.82-1.87l-.6-1.32c-.12-.25-.26-.51-.37-.77s-.24-.61-.35-.92l.61.77c.18.22.32.47.49.71l.84,1.17,1.2,1.65c.4.53.8,1.05,1.19,1.58.16.21.28.44.43.65.37.51.73,1,1.1,1.52s.64.85.95,1.28S26,21.46,26.36,22l.43.6a.25.25,0,0,1,0,.09l-.11,0a.33.33,0,0,0-.14,0c-.37.21-.31.12-.54-.14s-.48-.58-.72-.87-.6-.75-.92-1.09-.64-.59-.95-.89l-.05,0s0,0,0,.07c.1.42.17.85.3,1.26s.31.91.48,1.35.28.7.4,1.06.21.32-.16.54c0,0-.05.08-.08.12l-.07.07s-.05,0-.06-.07c-.11-.23-.2-.45-.3-.68l-.85-1.8C22.85,21.13,22.66,20.63,22.44,20.15Zm-2.13,4.13c-.19-.23-.39-.44-.58-.66-.45-.53-.9-1.05-1.33-1.58s-.59-.82-.9-1.22l-1.15-1.5-.32-.4,0,0c.64.48,1.27,1,1.92,1.43s1.09.75,1.62,1.13l1.22.86a11.48,11.48,0,0,1,1.36,1c.43.42,1,.64,1.43,1a1.34,1.34,0,0,0,.3.12.4.4,0,0,1-.55.14L22,23.94l-.9-.37a.17.17,0,0,0-.12,0l-.23.05c-.25.23,0,.43.12.61.45.62.93,1.22,1.41,1.82.07.1.08.16,0,.25s-.11.17-.19.3c-.12-.18-.24-.33-.34-.48s-.12-.22-.2-.32C21.13,25.29,20.72,24.78,20.31,24.28ZM16.4,28.12c-.65-.51-1.33-1-2-1.46s-1.29-.87-1.94-1.3l-2-1.3c-1.1-.74-2.18-1.5-3.28-2.24-.82-.55-1.66-1.09-2.48-1.65-.61-.42-1.19-.89-1.82-1.3l-.09-.06A1,1,0,0,0,3,18.54l.08,0c.67.34,1.37.6,2,.92.89.43,1.77.89,2.67,1.33,1.19.58,2.38,1.14,3.57,1.71l2.11,1.06c.69.35,1.39.7,2.1,1s1.5.69,2.26,1c1.15.47,2.31.89,3.47,1.34l.41.18a1.86,1.86,0,0,1-.18.24.35.35,0,0,1-.22.12,3.75,3.75,0,0,1-1.1-.12c-.92-.27-1.86-.46-2.78-.7l-.68-.19-.4-.23a.45.45,0,0,0-.44-.49c-.52,0-.41.79.1.79a.39.39,0,0,0,.2-.05l.4.23.5.49c.67.69,1.31,1.4,2,2.06a3.74,3.74,0,0,1,.65.9.39.39,0,0,1,0,.24,1.57,1.57,0,0,1-.12.28l-.36-.27C18.33,29.68,17.37,28.89,16.4,28.12Zm.17,4.93A11.82,11.82,0,0,1,15,32.38l-1.35-.62c-.6-.28-1.19-.57-1.79-.84s-1.47-.64-2.2-1v-.06l.51.08,1.88.25c.5.06,1,.1,1.5.17.68.11,1.35.24,2,.36l.87.17q1,.16,1.92.3c.12,0,.25,0,.38,0l.58.06a2.33,2.33,0,0,0-.16.31c0,.12-.1.14-.22.12-.76-.11-1.52-.22-2.28-.31-.22,0-.52-.13-.59.21l.07.22a.39.39,0,0,0,.06.11c.26.2.51.4.78.59l1.26.88a.4.4,0,0,1,.15.54,1,1,0,0,0-.25-.2C17.62,33.58,17.15,33.22,16.57,33.05Zm-1,4.1c-.53,0-1-.13-1.58-.19l-1.87-.18c-.25,0-.52,0-.77-.05-.66-.08-1.31-.17-2-.24l-2-.22-1.44-.14c-.28,0-.57,0-.85-.07l-1-.15,1-.15c.28,0,.57,0,.85-.07l1.44-.14,2-.22c.66-.07,1.31-.16,2-.24.25,0,.52,0,.77-.05L14,34.86c.53-.06,1.05-.14,1.58-.19s1.33-.11,2-.17l.73-.08.1,0,0,.1c0,.05-.07.09-.07.13,0,.43,0,.33-.39.4s-.74.12-1.11.18-.94.15-1.41.26-.82.26-1.24.38l-.07,0,.07,0c.42.12.82.28,1.24.38s.94.17,1.41.26.75.1,1.11.18.39,0,.39.4c0,0,.05.08.07.13l0,.1-.1,0-.73-.08C16.86,37.26,16.19,37.22,15.53,37.15Zm.94,3.73-.87.17c-.68.12-1.35.25-2,.36-.5.07-1,.11-1.5.17l-1.88.25-.51.08v-.06c.73-.31,1.47-.62,2.2-1s1.19-.56,1.79-.84L15,39.44a11.82,11.82,0,0,1,1.56-.67c.58-.17,1.05-.53,1.6-.73a1,1,0,0,0,.25-.2.4.4,0,0,1-.15.54L17,39.26c-.27.19-.52.39-.78.59a.39.39,0,0,0-.06.11l-.07.22c.07.34.37.23.59.21.76-.09,1.52-.2,2.28-.31.12,0,.18,0,.22.12a2.33,2.33,0,0,0,.16.31l-.58.06c-.13,0-.26,0-.38,0Zm1.36,5.31c-.76.31-1.51.65-2.26,1s-1.41.68-2.1,1l-2.11,1.06C10.17,49.85,9,50.41,7.79,51c-.9.44-1.78.9-2.67,1.33-.61.29-1.25.54-1.86.83A.89.89,0,0,0,3,52.86c.58-.38,1.12-.82,1.69-1.21.82-.56,1.66-1.1,2.48-1.65,1.1-.74,2.18-1.5,3.28-2.24l2-1.3c.65-.43,1.3-.85,1.94-1.3s1.36-.95,2-1.46c1-.76,1.93-1.56,2.89-2.33l.36-.27a1.57,1.57,0,0,1,.12.28.39.39,0,0,1,0,.24,3.74,3.74,0,0,1-.65.9c-.69.66-1.33,1.37-2,2.06l-.5.49-.71.41-.11,0c-.52,0-.41.8.1.8.35,0,.41-.36.26-.6l.6-.34.68-.19c.92-.24,1.86-.43,2.78-.7a3.75,3.75,0,0,1,1.1-.12.35.35,0,0,1,.22.12,1.86,1.86,0,0,1,.18.24l-.41.18C20.14,45.29,19,45.73,17.83,46.19Zm-1.63-.72-.12.11a.18.18,0,0,0-.07,0Zm6,3a11.48,11.48,0,0,1-1.36,1l-1.22.86c-.53.38-1.08.74-1.62,1.13s-1.28,1-1.92,1.43l0,0,.32-.4L17.5,51c.31-.4.59-.83.9-1.22s.88-1.05,1.33-1.58c.19-.22.39-.43.58-.66.41-.5.82-1,1.22-1.52.08-.1.13-.22.2-.32s.22-.3.34-.48c.08.13.13.22.19.3s.07.15,0,.25c-.48.6-1,1.2-1.41,1.82-.13.18-.37.38-.12.61l.23,0a.17.17,0,0,0,.12,0l.9-.37,1.39-.66a.41.41,0,0,1,.55.14,1.34,1.34,0,0,0-.3.12C23.17,47.86,22.62,48.08,22.19,48.5Zm4.17,1.32c-.38.54-.75,1.09-1.14,1.63s-.64.85-.95,1.28-.73,1-1.1,1.52c-.15.21-.27.44-.43.65-.39.53-.79,1.05-1.19,1.58l-1.2,1.65-.84,1.17c-.17.24-.31.49-.49.71l-.61.77c.11-.31.23-.61.35-.92s.25-.51.37-.78l.6-1.31c.27-.62.55-1.24.82-1.87s.51-1.21.78-1.82c.1-.24.23-.46.34-.7.26-.56.52-1.13.77-1.71s.41-1,.63-1.46l.85-1.8c.1-.23.19-.45.3-.68,0,0,0,0,.06-.07l.07.07s0,.1.08.12c.37.22.26.21.16.54s-.27.7-.4,1.06-.35.89-.48,1.35-.2.84-.3,1.26c0,0,0,0,0,.07l.05-.05c.31-.3.65-.57.95-.89s.62-.72.92-1.09.46-.59.72-.87.17-.35.54-.14a.33.33,0,0,0,.14,0l.11,0a.25.25,0,0,1,0,.09Zm3.44.54c-.05.11-.13.21-.18.33-.24.6-.48,1.21-.7,1.82-.11.27-.19.56-.29.83-.23.65-.45,1.3-.7,1.94-.19.47-.41.92-.61,1.39l-.72,1.75c-.06.16-.12.32-.19.48l-.05,0c.1-.79.2-1.59.28-2.38s.11-1.31.16-2L27,53.05a10.41,10.41,0,0,1,.19-1.69c.15-.58.07-1.17.17-1.75a.93.93,0,0,0,0-.32.41.41,0,0,1,.4.41c0,.51.08,1,.13,1.53,0,.32.08.64.12,1a.39.39,0,0,0,.06.11l.16.17c.33.11.39-.2.47-.41.31-.7.6-1.41.88-2.12,0-.12.09-.15.21-.13a1.89,1.89,0,0,0,.35,0Zm-.36-1.26.14-.34a.17.17,0,0,1,.21-.12l1.35.12a.27.27,0,0,1,.24.37.19.19,0,0,1-.14.07Zm5.33,1.21c-.19,1.22-.4,2.44-.57,3.67-.12.81-.19,1.64-.27,2.46s-.11,1.56-.16,2.33-.08,1.57-.13,2.35c-.1,1.32-.21,2.64-.31,4-.07,1-.11,2-.18,3-.06.73-.17,1.44-.22,2.17a1,1,0,0,0-.35-.06c0-.7-.15-1.4-.21-2.11-.07-1-.11-2-.18-3-.1-1.32-.21-2.64-.31-4-.05-.78-.08-1.56-.13-2.35s-.09-1.55-.16-2.33-.15-1.65-.27-2.46c-.17-1.23-.38-2.45-.57-3.67,0-.15,0-.29-.05-.45a2,2,0,0,1,.3,0,.37.37,0,0,1,.21.12,3.91,3.91,0,0,1,.45,1c.22.93.52,1.84.78,2.76l.18.68v.62l-.06.06a.41.41,0,0,0-.05.09.35.35,0,0,0,0,.2v.12a.41.41,0,0,0,.15.27l.09,0a.39.39,0,0,0,.21,0,.42.42,0,0,0,.39-.39v-.1a.47.47,0,0,0-.06-.15.34.34,0,0,0-.14-.19A.43.43,0,0,0,32.9,55v-.52l.18-.68c.26-.92.56-1.83.79-2.76a3.89,3.89,0,0,1,.44-1,.37.37,0,0,1,.21-.12,2.19,2.19,0,0,1,.3,0C34.8,50,34.79,50.16,34.77,50.31Zm-.48-1.11a.2.2,0,0,1-.15-.07.27.27,0,0,1,.24-.37l1.35-.12a.17.17,0,0,1,.21.12l.14.34Zm4.87,9.68,0,0c-.06-.16-.12-.32-.19-.48-.24-.59-.47-1.17-.72-1.75s-.42-.92-.6-1.39c-.25-.64-.48-1.29-.71-1.94-.1-.27-.18-.56-.28-.83-.23-.61-.47-1.22-.71-1.82a2.11,2.11,0,0,0-.18-.33l-.24-.54a1.86,1.86,0,0,0,.35,0c.12,0,.17,0,.21.13.29.71.57,1.42.88,2.12.09.21.14.52.47.41a1.25,1.25,0,0,0,.16-.17.39.39,0,0,0,.06-.11c0-.32.09-.64.12-1,.05-.51.09-1,.13-1.53a.41.41,0,0,1,.4-.41,1.25,1.25,0,0,0,0,.32c.1.58,0,1.17.17,1.75a11.65,11.65,0,0,1,.2,1.69c0,.49.1,1,.14,1.48.06.66.1,1.31.16,2S39.07,58.09,39.16,58.88Zm3.92-7.21c.25.58.51,1.15.77,1.71.11.24.24.46.35.7.26.61.51,1.22.77,1.82s.55,1.25.82,1.87l.6,1.31c.12.27.27.52.37.78l.36.92c-.21-.26-.42-.51-.62-.77s-.32-.47-.49-.7c-.27-.4-.55-.79-.84-1.18L44,56.48c-.39-.53-.8-1-1.19-1.58-.15-.21-.28-.44-.43-.65-.36-.51-.73-1-1.1-1.52s-.64-.85-1-1.28-.76-1.09-1.14-1.63l-.43-.6s0-.06,0-.09l.1,0a.32.32,0,0,0,.14,0c.38-.21.31-.12.55.14s.47.58.71.87.6.75.93,1.09.63.59.94.89l.06.05,0-.07c-.1-.42-.17-.85-.3-1.26s-.31-.91-.48-1.35-.28-.7-.39-1.06-.22-.32.15-.54c0,0,0-.08.08-.12l.07-.07.07.07.29.68c.28.6.58,1.2.85,1.8S42.87,51.19,43.08,51.67Zm2.13-4.13c.19.23.39.44.58.66.45.53.9,1,1.33,1.58s.59.82.9,1.22l1.15,1.5.32.4,0,0c-.64-.48-1.27-1-1.92-1.43s-1.08-.75-1.62-1.13-.81-.57-1.21-.86a11.6,11.6,0,0,1-1.37-1c-.43-.42-1-.64-1.43-1a1.34,1.34,0,0,0-.3-.12.41.41,0,0,1,.55-.14l1.39.66.9.37a.17.17,0,0,0,.12,0l.23,0c.25-.23,0-.43-.12-.61-.45-.62-.93-1.22-1.4-1.82-.08-.1-.09-.16,0-.25a2.28,2.28,0,0,0,.19-.3l.34.48c.07.1.12.22.2.32C44.39,46.53,44.8,47,45.21,47.54Zm3.92-3.84c.65.51,1.32,1,2,1.46s1.29.87,1.94,1.3,1.32.86,2,1.3c1.09.74,2.17,1.5,3.27,2.24.82.55,1.66,1.09,2.48,1.65.61.41,1.18.88,1.79,1.28l-.09.16a.88.88,0,0,0-.05.15h0c-.66-.34-1.36-.6-2-.92-.89-.43-1.77-.89-2.66-1.33-1.19-.58-2.39-1.14-3.58-1.71l-2.11-1.06c-.69-.35-1.39-.7-2.09-1s-1.51-.69-2.27-1c-1.15-.46-2.31-.89-3.47-1.34l-.41-.18a1.83,1.83,0,0,1,.19-.24.33.33,0,0,1,.21-.12,3.75,3.75,0,0,1,1.1.12c.92.27,1.86.46,2.78.7l.68.19.31.18a.42.42,0,0,0,.06.26.46.46,0,0,0,.13.18.44.44,0,0,0,.3.08.43.43,0,0,0,.26-.15.42.42,0,0,0,.08-.3.44.44,0,0,0-.11-.27.5.5,0,0,0-.27-.16.41.41,0,0,0-.29.08l0,0-.3-.17-.49-.49c-.68-.69-1.31-1.4-2-2.06a4,4,0,0,1-.65-.9.39.39,0,0,1,0-.24,1.57,1.57,0,0,1,.12-.28l.36.27C47.2,42.14,48.15,42.94,49.13,43.7ZM49,38.77a11.82,11.82,0,0,1,1.56.67l1.36.62c.59.28,1.18.57,1.78.84s1.47.64,2.2,1v.06l-.51-.08-1.87-.25c-.5-.06-1-.1-1.51-.17-.68-.11-1.35-.24-2-.36l-.87-.17c-.63-.11-1.28-.21-1.92-.3-.12,0-.25,0-.38,0l-.58-.06a2.33,2.33,0,0,0,.16-.31c0-.12.1-.14.22-.12.76.11,1.52.22,2.28.31.22,0,.52.13.59-.21L49.35,40a.39.39,0,0,0-.06-.11c-.26-.2-.51-.4-.78-.59l-1.26-.88a.4.4,0,0,1-.15-.54,1.16,1.16,0,0,0,.25.2C47.9,38.24,48.37,38.6,49,38.77Zm1-4.1c.53,0,1,.13,1.58.19l1.87.18c.26,0,.52,0,.77.05l2,.24,2,.22,1.44.14c.28,0,.57,0,.85.07l1,.15-1,.15c-.28,0-.57,0-.85.07l-1.44.14-2,.22-2,.24c-.25,0-.51,0-.77.05L51.57,37c-.53.06-1,.14-1.58.19s-1.32.11-2,.17l-.73.08-.1,0,0-.1c0-.05.07-.09.07-.13,0-.43,0-.33.39-.4s.74-.12,1.11-.18.94-.15,1.41-.26.83-.26,1.24-.38l.07,0-.07,0c-.41-.12-.82-.28-1.24-.38s-.94-.18-1.41-.26-.74-.1-1.11-.18-.39,0-.39-.4c0,0-.05-.08-.07-.13l0-.1.1,0,.73.08C48.67,34.56,49.33,34.6,50,34.67Zm-.94-3.73.87-.17c.68-.12,1.35-.25,2-.36.5-.07,1-.11,1.51-.17L55.33,30l.51-.08V30c-.73.31-1.47.62-2.2,1s-1.19.56-1.78.84l-1.36.62a11.82,11.82,0,0,1-1.56.67c-.58.17-1.05.53-1.6.73a1.16,1.16,0,0,0-.25.2.4.4,0,0,1,.15-.54l1.26-.88c.27-.19.52-.39.78-.59a.39.39,0,0,0,.06-.11l.07-.22c-.07-.34-.37-.23-.59-.21-.76.09-1.52.2-2.28.31-.12,0-.18,0-.22-.12a2.33,2.33,0,0,0-.16-.31l.58-.06c.13,0,.26,0,.38,0C47.77,31.15,48.42,31.05,49.05,30.94ZM62.61,18.87c-.63.41-1.21.88-1.82,1.3-.82.56-1.66,1.1-2.48,1.65-1.1.74-2.18,1.5-3.27,2.24-.65.44-1.32.86-2,1.3s-1.3.85-1.94,1.3-1.35.95-2,1.46c-1,.77-1.93,1.56-2.9,2.33l-.36.27a1.57,1.57,0,0,1-.12-.28.39.39,0,0,1,0-.24,4,4,0,0,1,.65-.9c.7-.66,1.33-1.37,2-2.06l.49-.49.44-.25,0,0a.36.36,0,0,0,.3.08.39.39,0,0,0,.26-.15l.06-.09a.5.5,0,0,0,0-.21v0a.35.35,0,0,0-.15-.26.34.34,0,0,0-.29-.08.39.39,0,0,0-.27.15.41.41,0,0,0,0,.09.35.35,0,0,0,0,.2h0l-.47.27-.68.19c-.92.24-1.86.43-2.78.7a3.75,3.75,0,0,1-1.1.12.33.33,0,0,1-.21-.12,1.83,1.83,0,0,1-.19-.24l.41-.18c1.16-.45,2.32-.87,3.47-1.34.76-.31,1.52-.65,2.27-1s1.4-.68,2.09-1l2.11-1.06c1.19-.57,2.39-1.13,3.58-1.71.89-.44,1.77-.9,2.66-1.33.68-.32,1.38-.58,2-.92l.16-.08a.73.73,0,0,0,.12.3Z"/></g></g></svg>